<svg width="375" height="717" viewBox="0 0 375 717" fill="none" xmlns="http://www.w3.org/2000/svg">
<path d="M170.402 43.2877C114.828 43.2774 60.6852 60.9077 15.7725 93.6387C-29.1402 126.37 -62.5043 172.512 -79.5137 225.419C-96.5231 278.326 -96.2999 335.267 -78.8761 388.039C-61.4524 440.811 -27.7275 486.69 17.4405 519.068C13.6692 548.092 20.2539 577.516 36.036 602.164V709.168H330.908V513.383C374.285 479.91 406.096 433.7 421.883 381.234C437.67 328.767 436.64 272.676 418.937 220.824C401.234 168.973 367.747 123.963 323.171 92.1048C278.595 60.247 225.166 43.1396 170.376 43.1815L170.402 43.2877Z" fill="white"/>
<path d="M469.068 325.726C224.536 -796.008 -988.625 47.0023 -67.6701 558.558C-12.5735 586.646 44.2084 613.449 102.676 638.966C132.125 650.871 163.098 662.442 195.594 673.677L473.767 411.45C472.6 382.648 471.034 354.074 469.068 325.726Z" fill="#FFFACF"/>
<path d="M243.164 676.227L330.828 593.477V513.383C362.579 488.891 388.283 457.436 405.96 421.442C423.637 385.449 432.814 345.877 432.785 305.777C432.785 297.808 432.36 289.838 431.669 282.135L414.482 208.921C399.461 171.132 375.866 137.35 345.557 110.239C315.248 83.1275 279.055 63.4289 239.832 52.6966C200.609 41.9643 159.429 40.4918 119.539 48.3953C79.65 56.2988 42.1424 73.362 9.97476 98.2392C-22.1929 123.116 -48.1406 155.127 -65.822 191.747C-83.5034 228.367 -92.4349 268.594 -91.9119 309.255C-91.3889 349.917 -81.4259 389.901 -62.8085 426.053C-44.1911 462.206 -17.4287 493.539 15.3681 517.581L24.8519 524.195C28.5444 526.639 32.2635 529.03 36.0889 531.315V532.006L243.164 676.227Z" fill="#FFFEF2"/>
<path d="M47.297 539.815C21.1489 490.042 11.6696 433.19 20.2544 377.626C28.8392 322.062 55.0345 270.721 94.9848 231.16C134.935 191.6 186.53 165.909 242.176 157.869C297.821 149.829 354.578 159.865 404.092 186.5C386.088 151.18 360.317 120.396 328.713 96.4619C297.109 72.5274 260.494 56.0632 221.616 48.3054C182.738 40.5476 142.608 41.6979 104.238 51.6697C65.868 61.6416 30.2557 80.176 0.0745083 105.882C-30.1067 131.587 -54.0726 163.796 -70.0239 200.089C-85.9753 236.383 -93.4976 275.819 -92.0262 315.436C-90.5547 355.053 -80.1277 393.822 -61.528 428.832C-42.9283 463.843 -16.6392 494.185 15.3658 517.58L24.8495 524.195C28.542 526.639 32.2611 529.03 36.0865 531.315V532.005L47.297 539.815Z" fill="#FFF48C"/>
<path d="M36.0859 602.217V709.168M330.932 709.168V513.384C374.578 479.639 406.483 432.999 422.114 380.09C437.745 327.18 436.307 270.691 418.006 218.645C399.704 166.598 365.469 121.642 320.162 90.1608C274.856 58.6795 220.782 42.274 165.62 43.2744C110.459 44.2748 57.0157 62.6302 12.8805 95.7335C-31.2547 128.837 -63.8375 175.005 -80.24 227.681C-96.6426 280.356 -96.0308 336.861 -78.4917 389.169C-60.9525 441.477 -27.3778 486.929 17.4638 519.069" stroke="#45413C" stroke-width="15.5894" stroke-linecap="round" stroke-linejoin="round"/>
<path d="M-199.004 264.947C-199.004 253.976 -190.158 245.103 -181.046 245.342L-85.4117 245.209C-54.3837 130.979 49.0076 46.529 172.27 46.3696C237.805 46.2881 301.035 70.5479 349.697 114.444C398.359 158.34 428.985 218.744 435.636 283.941L184.968 284.26L-59.006 284.579L-178.974 284.738C-181.593 284.77 -184.192 284.281 -186.621 283.301C-189.05 282.32 -191.26 280.867 -193.123 279.027C-194.986 277.186 -196.465 274.993 -197.475 272.576C-198.484 270.159 -199.004 267.566 -199.004 264.947Z" fill="#EF233C"/>
<path d="M293.754 251.186C293.75 245.976 292.72 240.819 290.722 236.008C288.723 231.197 285.796 226.827 282.107 223.149C278.419 219.47 274.041 216.554 269.225 214.569C264.409 212.583 259.248 211.567 254.039 211.577C227.261 211.577 214.431 230.04 214.457 251.292L293.754 251.186Z" fill="white"/>
<path d="M145.637 46.3694C145.637 53.3796 148.422 60.1028 153.379 65.0598C158.336 70.0168 165.059 72.8016 172.069 72.8016C179.079 72.8016 185.802 70.0168 190.759 65.0598C195.716 60.1028 198.501 53.3796 198.501 46.3694C198.501 39.3591 195.716 32.636 190.759 27.679C185.802 22.722 179.079 19.9371 172.069 19.9371C165.059 19.9371 158.336 22.722 153.379 27.679C148.422 32.636 145.637 39.3591 145.637 46.3694Z" fill="#EF233C" stroke="#45413C" stroke-width="15.5894" stroke-linecap="round" stroke-linejoin="round"/>
<path d="M409.772 194.311C387.975 149.87 354.138 112.441 312.114 86.2864C270.089 60.1316 221.566 46.3012 172.067 46.3696C69.0215 46.3696 -20.1308 105.61 -64.707 191.84C-34.2828 159.282 2.54641 133.369 43.4664 115.729C84.3864 98.0879 128.513 89.1013 173.073 89.3333C217.632 89.5653 261.663 99.011 302.397 117.077C343.131 135.142 379.688 161.438 409.772 194.311Z" fill="#FF866E"/>
<path d="M-179.177 284.738L-59.2091 284.579L184.765 284.26L435.433 283.941C428.782 218.744 398.156 158.34 349.494 114.444C300.832 70.5479 237.602 46.2881 172.066 46.3696C48.9108 46.529 -54.4805 130.9 -85.6148 245.209L-181.249 245.342C-190.361 245.103 -199.207 253.976 -199.207 264.947C-199.207 267.566 -198.687 270.159 -197.678 272.576C-196.668 274.993 -195.189 277.186 -193.326 279.027C-191.463 280.867 -189.253 282.32 -186.824 283.301C-184.395 284.281 -181.796 284.77 -179.177 284.738ZM214.464 251.186C214.464 229.934 227.269 211.498 254.046 211.472C259.265 211.461 264.434 212.481 269.257 214.473C274.08 216.465 278.462 219.39 282.152 223.08C285.842 226.77 288.767 231.153 290.759 235.976C292.751 240.799 293.772 245.968 293.761 251.186H214.464Z" stroke="#45413C" stroke-width="15.5894" stroke-linecap="round" stroke-linejoin="round"/>
<path d="M214.47 251.186H197.947C194.424 251.186 191.045 252.585 188.554 255.076C186.063 257.567 184.664 260.945 184.664 264.468V284.286" stroke="#45413C" stroke-width="15.5894" stroke-linecap="round" stroke-linejoin="round"/>
<path d="M451.149 663.901C450.669 667.295 448.981 670.403 446.395 672.652C443.809 674.902 440.497 676.143 437.07 676.148H243.145L273.137 453.825H463.024C465.061 453.831 467.074 454.274 468.926 455.124C470.779 455.974 472.427 457.211 473.761 458.751C475.095 460.292 476.084 462.1 476.66 464.055C477.237 466.009 477.388 468.065 477.103 470.083L451.149 663.901Z" fill="#F0F0F0" stroke="#45413C" stroke-width="15.5894" stroke-linecap="round" stroke-linejoin="round"/>
<path d="M273.137 453.824L243.145 676.227H246.439C251.836 676.229 257.053 674.281 261.129 670.742C265.204 667.204 267.865 662.312 268.62 656.967L292.688 476.325C293.084 473.525 292.874 470.673 292.072 467.962C291.271 465.25 289.898 462.742 288.044 460.607C286.191 458.472 283.901 456.759 281.33 455.584C278.758 454.409 275.964 453.8 273.137 453.798V453.824Z" fill="#BDBEC0" stroke="#45413C" stroke-width="15.5894" stroke-linecap="round" stroke-linejoin="round"/>
<path d="M112.352 574.085C135.145 608.779 159.16 620.521 228.096 583.755C232.163 581.44 236.652 579.964 241.298 579.413C245.945 578.863 250.655 579.249 255.15 580.55C259.644 581.85 263.833 584.039 267.467 586.986C271.102 589.932 274.109 593.578 276.311 597.706C278.513 601.835 279.865 606.363 280.287 611.023C280.71 615.683 280.194 620.38 278.77 624.838C277.346 629.295 275.043 633.421 271.997 636.973C268.951 640.526 265.225 643.431 261.037 645.519C244.699 654.205 165.562 707.681 81.5101 649.025C30.6912 613.561 11.2455 563.672 17.4352 519.069" fill="white"/>
<path d="M112.352 574.085C135.145 608.779 159.16 620.521 228.096 583.755C232.163 581.44 236.652 579.964 241.298 579.413C245.945 578.863 250.655 579.249 255.15 580.55C259.644 581.85 263.833 584.039 267.467 586.986C271.102 589.932 274.109 593.578 276.311 597.706C278.513 601.835 279.865 606.363 280.287 611.023C280.71 615.683 280.194 620.38 278.77 624.838C277.346 629.295 275.043 633.421 271.997 636.973C268.951 640.526 265.225 643.431 261.037 645.519C244.699 654.205 165.562 707.681 81.5101 649.025C30.6912 613.561 11.2455 563.672 17.4352 519.069" stroke="#45413C" stroke-width="15.5894" stroke-linecap="round" stroke-linejoin="round"/>
<path d="M42.9727 291.83C42.9727 313.178 51.4531 333.652 66.5483 348.747C81.6435 363.842 102.117 372.323 123.465 372.323C144.813 372.323 165.286 363.842 180.381 348.747C195.477 333.652 203.957 313.178 203.957 291.83C203.957 270.483 195.477 250.009 180.381 234.914C165.286 219.819 144.813 211.338 123.465 211.338C102.117 211.338 81.6435 219.819 66.5483 234.914C51.4531 250.009 42.9727 270.483 42.9727 291.83Z" fill="white" stroke="#45413C" stroke-width="15.5894" stroke-linecap="round" stroke-linejoin="round"/>
<path d="M277.621 291.83C277.621 313.178 286.102 333.652 301.197 348.747C316.292 363.842 336.765 372.323 358.113 372.323C379.461 372.323 399.935 363.842 415.03 348.747C430.125 333.652 438.605 313.178 438.605 291.83C438.605 270.483 430.125 250.009 415.03 234.914C399.935 219.819 379.461 211.338 358.113 211.338C336.765 211.338 316.292 219.819 301.197 234.914C286.102 250.009 277.621 270.483 277.621 291.83Z" fill="white" stroke="#45413C" stroke-width="15.5894" stroke-linecap="round" stroke-linejoin="round"/>
<path d="M253.686 395.328C253.786 398.128 253.321 400.918 252.319 403.534C251.316 406.15 249.797 408.537 247.852 410.553C245.907 412.568 243.576 414.172 240.998 415.267C238.419 416.362 235.647 416.926 232.846 416.926C230.045 416.926 227.272 416.362 224.694 415.267C222.116 414.172 219.784 412.568 217.839 410.553C215.894 408.537 214.375 406.15 213.373 403.534C212.371 400.918 211.906 398.128 212.005 395.328V374.475C218.397 377.965 225.563 379.794 232.846 379.794C240.128 379.794 247.294 377.965 253.686 374.475V395.328Z" fill="#FFA694" stroke="#45413C" stroke-width="15.5894" stroke-linecap="round" stroke-linejoin="round"/>
<path d="M96.1914 321.876C96.1914 333.022 100.619 343.711 108.501 351.592C116.382 359.474 127.071 363.901 138.217 363.901C149.363 363.901 160.053 359.474 167.934 351.592C175.816 343.711 180.243 333.022 180.243 321.876C180.243 310.73 175.816 300.04 167.934 292.159C160.053 284.277 149.363 279.85 138.217 279.85C127.071 279.85 116.382 284.277 108.501 292.159C100.619 300.04 96.1914 310.73 96.1914 321.876Z" fill="#45413C"/>
<path d="M162.105 303.041C169.118 311.01 171.297 320.6 167.02 324.293C162.743 327.985 158.599 320.494 151.612 312.471C144.626 304.449 137.426 298.95 141.703 295.231C145.98 291.512 155.012 294.992 162.105 303.041ZM115.165 346.023C113.462 343.995 112.632 341.375 112.856 338.737C113.08 336.098 114.34 333.656 116.36 331.944C120.558 328.145 122.019 332.502 125.605 336.46C129.191 340.418 133.574 342.49 129.271 346.289C128.328 347.199 127.215 347.915 125.995 348.394C124.776 348.874 123.473 349.108 122.163 349.083C120.852 349.059 119.56 348.776 118.359 348.251C117.158 347.725 116.073 346.968 115.165 346.023Z" fill="#FFFACF"/>
<path d="M323.094 321.876C323.094 333.022 327.522 343.711 335.403 351.592C343.284 359.474 353.974 363.901 365.12 363.901C376.266 363.901 386.955 359.474 394.837 351.592C402.718 343.711 407.146 333.022 407.146 321.876C407.146 310.73 402.718 300.04 394.837 292.159C386.955 284.277 376.266 279.85 365.12 279.85C353.974 279.85 343.284 284.277 335.403 292.159C327.522 300.04 323.094 310.73 323.094 321.876Z" fill="#45413C"/>
<path d="M388.902 303.041C395.888 311.01 398.093 320.6 393.816 324.293C389.539 327.985 385.395 320.494 378.409 312.471C371.422 304.449 364.223 298.95 368.5 295.231C372.777 291.512 381.915 294.992 388.902 303.041ZM342.068 346.023C340.369 343.995 339.538 341.379 339.757 338.743C339.976 336.107 341.226 333.663 343.236 331.944C347.46 328.145 348.921 332.502 352.481 336.46C356.041 340.418 360.451 342.49 356.174 346.289C355.231 347.199 354.118 347.915 352.898 348.394C351.678 348.874 350.376 349.108 349.065 349.083C347.755 349.059 346.462 348.776 345.262 348.251C344.061 347.725 342.975 346.968 342.068 346.023Z" fill="#FFFACF"/>
<path d="M17.4297 519.069C32.0116 529.561 47.6344 538.526 64.0514 545.82M206.121 565.876C224.437 563.359 242.433 558.907 259.809 552.594" stroke="#45413C" stroke-width="15.5894" stroke-linecap="round" stroke-linejoin="round"/>
<path d="M375.219 77.3711L347.804 7.26587M-47.2449 63.5307L-85.1002 21.8501M-155.684 176.246L-234.051 99.4466M-131.562 333.246L-161.581 309.523M-128.906 454.675L-244.703 363.238" stroke="#FFDA8F" stroke-width="15.5894" stroke-miterlimit="10" stroke-linecap="round"/>
<path d="M-336.172 221.619C-301.292 221.274 -272.655 256.154 -272.23 299.747C-272.655 256.26 -244.735 220.716 -209.802 220.371C-244.682 220.716 -273.292 185.836 -273.744 142.243C-273.345 185.73 -301.292 221.274 -336.172 221.619ZM16.6919 -17.5727C38.3159 -17.7852 56.0348 3.91846 56.3004 30.8554C56.0348 3.91846 73.3552 -18.104 94.9526 -18.3165C73.3552 -18.104 55.6098 -39.7811 55.3441 -66.7446C55.6098 -39.7811 38.3159 -17.7852 16.6919 -17.5727ZM481.74 390.706C503.364 390.493 521.11 412.197 521.375 439.134C521.11 412.197 538.403 390.148 560.001 389.936C538.403 390.148 520.658 368.471 520.392 341.534C520.738 368.471 503.364 390.493 481.74 390.706Z" fill="#FFE500" stroke="#EBCB00" stroke-width="15.5894" stroke-linecap="round" stroke-linejoin="round"/>
</svg>
