<svg width="835" height="837" viewBox="0 0 835 837" fill="none" xmlns="http://www.w3.org/2000/svg">
<path d="M145.347 287.681L121.57 285.135C125.993 324.582 138.775 370.6 158.038 419.344L188.729 391.632C170.946 361.303 155.42 327.687 145.347 287.681Z" fill="#DEA47A" stroke="#45413C" stroke-width="10.5945" stroke-linecap="round" stroke-linejoin="round"/>
<path d="M148.52 394.196C160.48 391.327 171.475 385.362 180.402 376.901" stroke="#45413C" stroke-width="10.5945" stroke-linecap="round" stroke-linejoin="round"/>
<path d="M133.644 271.848C140.27 253.524 145.09 236.048 144.711 221.082C137.49 221.082 134.24 226.281 131.117 229.296C132.922 217.598 131.568 203.769 128.048 189.868C123.354 191.908 121.856 196.963 120.303 202.595C116.06 189.759 115.501 181.401 106.005 168.89C104.705 182.755 102.647 192.558 106.005 201.927C100.48 197.053 94.7394 197.071 88.8359 198.497C93.5659 212.94 100.39 225.27 110.5 234.604C104.723 230.831 98.0251 230.452 90.6413 232.474C97.8807 249.182 107.708 264.645 119.761 278.293L133.644 271.848Z" fill="#46B000" stroke="#45413C" stroke-width="10.5945" stroke-linecap="round" stroke-linejoin="round"/>
<path d="M123.964 266.233C122.124 247.473 118.981 228.863 114.559 210.539" stroke="#45413C" stroke-width="10.5945" stroke-linecap="round" stroke-linejoin="round"/>
<path d="M120.652 263.273C107.834 248.252 94.9621 235.597 82.0178 229.766C79.0029 237.817 82.0178 243.613 83.2635 248.343C74.0563 241.41 61.5994 237.204 48.2941 235.308C48.0413 241.41 51.7062 245.183 55.8765 249.263C43.0947 248.631 28.5798 251.213 13.2344 255.311C27.0452 260.727 39.7909 264.735 49.2329 264.843C42.7336 268.96 40.3145 275.369 39.0327 282.536C53.3129 283.258 66.7988 280.73 79.021 273.509C73.3522 278.365 70.1928 285.659 68.8027 294.668C85.7549 293.873 102.924 289.143 120.255 281.471L120.652 263.273Z" fill="#6DD627" stroke="#45413C" stroke-width="10.5945" stroke-linecap="round" stroke-linejoin="round"/>
<path d="M120.486 272.011C95.211 263.616 73.5469 258.904 51.8828 257.099" stroke="#45413C" stroke-width="10.5945" stroke-linecap="round" stroke-linejoin="round"/>
<path d="M127.742 270.729C129.205 246.736 132.526 224.855 141.174 209.113C150.381 213.951 151.753 221.624 154.118 226.931C158.108 213.193 167.442 199.364 179.501 186.817C184.412 192.233 183.599 198.533 182.516 205.592C194.937 194.76 211.6 185.282 230.249 176.562C220.374 192.558 210.607 206.603 201.147 214.33C210.86 212.796 214.435 213.825 221.223 219.277C207.322 231.499 192.229 244.551 174.284 247.819C183.726 247.621 191.236 246.844 199.559 253.885C181.83 266.884 165.51 279.774 142.113 286.869L127.742 270.729Z" fill="#6DD627" stroke="#45413C" stroke-width="10.5945" stroke-linecap="round" stroke-linejoin="round"/>
<path d="M136.784 276.109C151.66 252.639 169.425 232.78 190.944 213.427M125.176 309.453C133.799 310.354 142.509 308.998 150.451 305.518M132.885 344.08C142.693 342.982 152.108 339.606 160.38 334.222M143.843 380.71C154.955 377.548 165.191 371.871 173.757 364.119" stroke="#45413C" stroke-width="10.5945" stroke-linecap="round" stroke-linejoin="round"/>
<path d="M108.764 283.393C109.638 287.097 111.733 290.354 114.589 292.445C117.445 294.537 120.827 295.292 123.991 294.545C127.155 293.799 129.842 291.611 131.461 288.463C133.081 285.315 133.499 281.466 132.624 277.761C132.192 275.927 131.454 274.183 130.455 272.63C129.455 271.076 128.213 269.744 126.799 268.708C125.385 267.673 123.827 266.954 122.214 266.594C120.601 266.233 118.964 266.238 117.397 266.608C115.83 266.978 114.364 267.705 113.082 268.749C111.801 269.793 110.728 271.132 109.927 272.691C109.125 274.249 108.61 275.996 108.41 277.833C108.21 279.669 108.331 281.558 108.764 283.393Z" fill="#915E3A" stroke="#45413C" stroke-width="10.5945" stroke-linecap="round" stroke-linejoin="round"/>
<path d="M131.947 285.864C132.411 287.83 133.202 289.699 134.274 291.363C135.347 293.027 136.68 294.455 138.197 295.564C139.715 296.674 141.387 297.443 143.119 297.829C144.85 298.214 146.607 298.208 148.289 297.811C149.972 297.414 151.546 296.634 152.922 295.515C154.299 294.396 155.451 292.96 156.312 291.289C157.173 289.618 157.727 287.745 157.942 285.777C158.157 283.809 158.029 281.784 157.565 279.818C157.101 277.852 156.31 275.984 155.238 274.319C154.166 272.655 152.833 271.227 151.315 270.118C149.798 269.009 148.125 268.239 146.394 267.854C144.662 267.468 142.905 267.474 141.223 267.871C139.541 268.268 137.967 269.048 136.59 270.168C135.214 271.287 134.062 272.723 133.2 274.393C132.339 276.064 131.785 277.937 131.57 279.905C131.355 281.874 131.483 283.899 131.947 285.864Z" fill="#915E3A" stroke="#45413C" stroke-width="10.5945" stroke-linecap="round" stroke-linejoin="round"/>
<path d="M128.391 325.593C137.576 325.625 146.638 323.485 154.839 319.347M137.814 361.808C148.342 360.308 158.342 356.248 166.935 349.983" stroke="#45413C" stroke-width="10.5945" stroke-linecap="round" stroke-linejoin="round"/>
<path d="M451.344 482.983C454.788 473.472 456.553 463.436 456.561 453.321C456.561 386.794 380.214 332.851 286.047 332.851C191.881 332.851 115.551 386.794 115.551 453.321C115.562 463.434 117.321 473.469 120.75 482.983H451.344Z" fill="#FFE9BD" stroke="#45413C" stroke-width="10.5945" stroke-linejoin="round"/>
<path d="M231.801 412.502C231.801 416.093 236.746 419.537 245.549 422.076C254.352 424.616 266.291 426.042 278.74 426.042C291.189 426.042 303.128 424.616 311.93 422.076C320.733 419.537 325.678 416.093 325.678 412.502C325.678 408.911 320.733 405.467 311.93 402.928C303.128 400.389 291.189 398.962 278.74 398.962C266.291 398.962 254.352 400.389 245.549 402.928C236.746 405.467 231.801 408.911 231.801 412.502Z" fill="#DEBB7E"/>
<path d="M508.807 486.593C529.207 486.593 546.304 472.927 548.254 455.036C548.633 451.425 548.633 449.512 548.633 449.512C528.539 449.512 523.665 436.676 509.818 436.676C495.971 436.676 491.115 449.512 471.021 449.512C450.928 449.512 446.053 436.676 432.206 436.676C418.359 436.676 413.485 449.512 393.392 449.512C373.298 449.512 368.442 436.676 354.577 436.676C340.712 436.676 335.873 449.512 315.78 449.512C295.687 449.512 290.812 436.676 276.965 436.676C263.118 436.676 258.244 449.512 238.15 449.512C218.057 449.512 213.201 436.676 199.354 436.676C185.507 436.676 180.632 449.512 160.539 449.512C140.445 449.512 135.571 436.676 121.724 436.676C107.877 436.676 103.003 449.512 82.9093 449.512C62.8158 449.512 57.9595 436.676 44.1125 436.676C30.2655 436.676 25.3911 449.512 5.2977 449.512V450.288C5.14521 455.098 6.05459 459.882 7.96111 464.3C9.86763 468.719 12.7245 472.663 16.3283 475.852C24.1868 482.85 34.3659 486.679 44.8888 486.593H508.807Z" fill="#4ACFFF"/>
<path d="M548.632 449.512C528.539 449.512 523.664 436.676 509.817 436.676C495.97 436.676 491.114 449.512 471.02 449.512C450.927 449.512 446.053 436.676 432.206 436.676C418.359 436.676 413.484 449.512 393.391 449.512C373.297 449.512 368.441 436.676 354.576 436.676C340.711 436.676 335.873 449.512 315.779 449.512C295.686 449.512 290.811 436.676 276.964 436.676C263.117 436.676 258.243 449.512 238.15 449.512C218.056 449.512 213.2 436.676 199.353 436.676C185.506 436.676 180.631 449.512 160.538 449.512C140.445 449.512 135.57 436.676 121.723 436.676C107.876 436.676 103.002 449.512 82.9084 449.512C62.815 449.512 57.9586 436.676 44.1117 436.676C30.2647 436.676 25.3903 449.512 5.29688 449.512" stroke="#45413C" stroke-width="10.5945" stroke-linecap="round" stroke-linejoin="round"/>
<path d="M362.892 189.868C359.74 173.751 352.384 158.754 341.571 146.394C330.758 134.034 316.87 124.752 301.315 119.486C285.76 114.221 269.09 113.159 252.992 116.409C236.895 119.658 221.942 127.104 209.648 137.992C197.354 148.88 188.156 162.823 182.984 178.409C177.812 193.996 176.851 210.672 180.198 226.75C183.545 242.827 191.081 257.735 202.043 269.963C213.005 282.191 227.003 291.305 242.621 296.383C241.646 325.268 239.118 415.228 245.166 415.228C252.387 415.228 261.685 386.198 261.685 386.198H298.243C298.243 386.198 303.948 415.228 312.686 415.228C318.445 415.228 315.809 358.18 313.3 318.751C337.636 320.105 352.728 281.398 351.645 255.095C363.285 235.474 367.289 212.253 362.892 189.868ZM308.84 293.205C311.079 292.243 313.278 291.189 315.43 290.046C314.688 291.086 313.694 291.922 312.542 292.474C311.39 293.027 310.116 293.278 308.84 293.205Z" fill="white" stroke="#45413C" stroke-width="10.5945" stroke-linecap="round" stroke-linejoin="round"/>
<path d="M293.163 236.033C298.575 246.115 307.565 251.836 313.216 248.789C318.866 245.743 319.104 235.119 313.705 225.015L293.163 236.033Z" fill="#FFA694" stroke="#45413C" stroke-width="10.5945" stroke-linecap="round" stroke-linejoin="round"/>
<path d="M382.35 176.833C368.81 176.219 358.88 171.128 351.767 160.585C342.784 160.25 333.952 162.973 326.717 168.308C319.481 173.643 314.27 181.275 311.934 189.957C309.599 198.638 310.277 207.854 313.859 216.1C317.441 224.345 323.714 231.132 331.653 235.349C339.592 239.567 348.727 240.967 357.565 239.32C366.402 237.673 374.42 233.076 380.306 226.282C386.193 219.487 389.6 210.897 389.971 201.915C390.343 192.932 387.656 184.09 382.35 176.833Z" fill="white" stroke="#45413C" stroke-width="10.5945" stroke-linecap="round" stroke-linejoin="round"/>
<path d="M359.82 192.251C359.82 193.486 360.311 194.671 361.185 195.544C362.058 196.418 363.243 196.908 364.478 196.908C365.713 196.908 366.898 196.418 367.772 195.544C368.645 194.671 369.136 193.486 369.136 192.251C369.136 191.015 368.645 189.831 367.772 188.957C366.898 188.083 365.713 187.593 364.478 187.593C363.243 187.593 362.058 188.083 361.185 188.957C360.311 189.831 359.82 191.015 359.82 192.251Z" fill="#45413C"/>
<path d="M281.79 213.662C280.514 207.099 277.594 200.967 273.304 195.84C269.014 190.712 263.494 186.756 257.26 184.341C251.025 181.926 244.281 181.132 237.656 182.032C231.031 182.932 224.743 185.498 219.379 189.488C219.975 202.577 214.649 212.85 203.348 221.66C203.402 227.165 204.603 232.598 206.875 237.612C209.147 242.627 212.44 247.112 216.544 250.782C220.647 254.452 225.471 257.226 230.707 258.927C235.943 260.627 241.476 261.217 246.953 260.659C252.429 260.101 257.73 258.406 262.515 255.684C267.3 252.961 271.464 249.271 274.743 244.848C278.021 240.426 280.341 235.368 281.554 229.998C282.768 224.628 282.848 219.064 281.79 213.662Z" fill="white" stroke="#45413C" stroke-width="10.5945" stroke-linecap="round" stroke-linejoin="round"/>
<path d="M252.375 213.337C252.375 214.572 252.866 215.757 253.739 216.631C254.613 217.504 255.797 217.995 257.033 217.995C258.268 217.995 259.453 217.504 260.326 216.631C261.2 215.757 261.691 214.572 261.691 213.337C261.691 212.102 261.2 210.917 260.326 210.043C259.453 209.17 258.268 208.679 257.033 208.679C255.797 208.679 254.613 209.17 253.739 210.043C252.866 210.917 252.375 212.102 252.375 213.337Z" fill="#45413C"/>
<path d="M218.416 181.635C222.244 200.7 215.456 214.131 197.926 225.487M347.986 154.086C356.399 171.634 369.939 178.313 390.718 176.797" stroke="#45413C" stroke-width="10.5945" stroke-linecap="round" stroke-linejoin="round"/>
<path d="M256.957 299.903C275.895 300.914 265.568 239.424 283.676 238.251C314.529 236.283 298.372 329.095 260.55 325.412M308.842 293.205C327.781 294.198 317.436 232.708 335.562 231.553C366.144 229.585 350.528 320.827 313.374 318.769" fill="white"/>
<path d="M256.957 299.903C275.895 300.914 265.568 239.424 283.676 238.251C314.529 236.283 298.372 329.095 260.55 325.412M308.842 293.205C327.781 294.198 317.436 232.708 335.562 231.553C366.144 229.585 350.528 320.827 313.374 318.769" stroke="#45413C" stroke-width="10.5945" stroke-linecap="round" stroke-linejoin="round"/>
<path d="M150.328 139.824C145.164 139.824 139.369 136.845 132.599 130.797C126.28 124.813 120.638 118.154 115.773 110.938C111.742 104.89 108.082 98.6017 104.815 92.1084C101.204 84.8871 100.572 81.4028 100.518 79.4711C99.3809 70.9318 106.602 63.4758 111.134 60.3706C114.542 57.8061 118.644 56.3277 122.904 56.128C125.423 56.1347 127.889 56.8514 130.019 58.1957C132.149 59.5401 133.856 61.4577 134.946 63.7285L140.091 73.2246C141.626 76.059 142.348 76.6728 142.565 76.8353C143.193 76.6353 143.798 76.369 144.37 76.0409C148.558 73.5857 148.739 72.7552 148.757 72.7191C148.974 71.329 146.735 66.4546 145.778 64.3784L144.677 62.0134C143.515 59.6289 142.846 57.0346 142.709 54.3855C142.573 51.7365 142.972 49.0872 143.883 46.5958C145.048 43.711 146.779 41.0888 148.974 38.8842C151.17 36.6796 153.784 34.9372 156.664 33.7599C159.888 32.1413 163.422 31.2361 167.027 31.106C173.436 31.106 178.455 34.7167 181.939 41.9381C183.553 45.4696 184.975 49.0856 186.2 52.7701C190.839 66.2921 197.176 89.0574 199.198 101.424C201.094 112.996 195.696 118.105 190.839 120.344C188.039 121.785 184.959 122.598 181.813 122.727C179.778 122.735 177.772 122.246 175.969 121.302C174.166 120.358 172.621 118.988 171.468 117.311C168.293 112.581 165.532 107.586 163.218 102.381C162.686 101.254 162.083 100.163 161.412 99.1132C161.033 99.2937 160.492 99.5645 159.607 100.016C158.416 100.625 157.311 101.39 156.321 102.291C156.426 102.591 156.559 102.881 156.718 103.157C157.856 105.269 158.975 106.966 160.04 108.573C161.105 110.18 162.008 111.552 162.875 113.159C168.128 122.98 166.919 132.061 159.751 136.881C156.991 138.739 153.745 139.743 150.418 139.769L150.328 139.824Z" fill="#EDF2F4"/>
<path d="M167.02 36.4499C171.173 36.4499 174.404 38.7787 177.04 44.267C178.6 47.6045 179.968 51.0282 181.138 54.5213C186.414 70.144 190.636 86.1029 193.776 102.291C194.696 107.941 193.956 112.888 188.486 115.415C186.368 116.486 184.05 117.101 181.68 117.221C180.5 117.233 179.335 116.95 178.292 116.398C177.248 115.847 176.359 115.044 175.704 114.061C172.741 109.632 170.162 104.957 167.995 100.088C165.811 95.322 164.24 93.3903 162.002 93.3903C160.207 93.5767 158.485 94.1963 156.983 95.1956C151.711 98.2105 149.346 100.702 152 105.63C154.311 109.909 156.513 112.599 158.138 115.632C161.334 121.608 162.254 128.612 156.784 132.277C154.896 133.554 152.673 134.245 150.393 134.263H150.249C146.097 134.263 140.987 130.941 136.149 126.572C130.144 120.872 124.786 114.527 120.172 107.652C116.278 101.808 112.745 95.7304 109.593 89.4546C107.336 84.8691 105.783 80.8071 105.856 78.8031C104.863 73.0622 110.369 67.1406 114.124 64.5771C116.629 62.6308 119.66 61.48 122.826 61.2733C124.356 61.2986 125.847 61.7584 127.126 62.5991C128.404 63.4398 129.417 64.6267 130.047 66.0213L135.192 75.5355C137.196 79.2364 139.164 81.9083 142.305 81.9083C143.945 81.8224 145.533 81.3056 146.909 80.4099C155.737 75.2647 155.538 72.7552 150.52 61.8149L149.473 59.5402C145.735 51.4161 149.111 42.8949 158.788 38.4718C161.31 37.1781 164.081 36.4394 166.912 36.3054M166.912 25.4734C162.522 25.5955 158.211 26.6671 154.275 28.6147C150.755 30.0972 147.564 32.263 144.886 34.9869C142.209 37.7108 140.098 40.9386 138.677 44.4836C137.099 48.7478 136.731 53.3647 137.611 57.8251C135.885 55.5222 133.644 53.655 131.067 52.3729C128.491 51.0908 125.65 50.4293 122.772 50.4412C117.419 50.6346 112.25 52.4476 107.95 55.6406C101.107 60.3165 93.7778 69.307 94.9874 79.5975C95.0776 82.3416 95.9803 86.4397 99.8257 94.2388C103.191 100.964 106.977 107.471 111.163 113.718C116.261 121.316 122.189 128.322 128.837 134.606C136.637 141.665 143.623 145.095 150.195 145.095H150.538C154.896 145.041 159.143 143.717 162.76 141.286C165.477 139.502 167.702 137.065 169.232 134.198C170.762 131.331 171.547 128.125 171.516 124.875C174.489 126.919 178.018 128.003 181.626 127.981C185.568 127.852 189.435 126.873 192.963 125.11C198.379 122.619 206.991 116.083 204.409 100.377C202.261 87.3424 195.87 64.5229 191.176 50.8565C189.903 46.9566 188.401 43.1347 186.681 39.4106C181.12 27.8925 172.852 25.4734 166.822 25.4734H166.912Z" fill="#45413C"/>
<path d="M223.117 107.147C216.419 107.147 211.021 105.775 207.049 103.049C197.336 96.4051 191.216 79.5794 188.996 72.7191C184.013 56.9946 182.912 36.2512 194.755 25.2567C200.405 20.0573 212.646 13.6123 227.251 10.9403C230.822 10.2616 234.448 9.91109 238.083 9.89325C256.949 9.89325 259.747 20.0934 260.162 24.4623C260.413 26.1994 260.302 27.9695 259.837 29.6617C257.256 37.8038 246.712 39.8799 236.53 41.8839C232.071 42.7504 224.723 44.1947 223.062 45.8015L224.507 45.4946C228.513 44.564 232.6 44.0199 236.711 43.8697C246.947 43.8697 248.843 50.2426 249.186 52.8964C250.865 66.1476 239.347 70.6068 230.573 73.3329H230.825C231.728 73.3329 234.978 72.7913 237.126 72.3941C239.274 71.9969 241.098 71.5095 243.156 70.9679C246.008 70.1544 248.917 69.551 251.858 69.1625C252.408 69.0911 252.963 69.0549 253.518 69.0542C256.782 69.0428 259.927 70.2766 262.312 72.5041C264.697 74.7316 266.143 77.785 266.354 81.0417C267.708 99.3659 245.431 103.915 238.119 105.396C233.187 106.468 228.163 107.055 223.117 107.147Z" fill="#EDF2F4"/>
<path d="M238.231 15.2912C246.86 15.2912 254.334 17.8006 254.912 24.8775C255.065 25.8888 255.065 26.9173 254.912 27.9286C251.771 38.2732 218.805 34.9333 217.848 45.0612C217.803 46.4029 217.936 47.7447 218.246 49.051C218.457 50.1592 218.784 51.2422 219.22 52.2826C221.856 51.6327 223.174 51.3438 225.828 50.7661C229.463 49.9296 233.168 49.428 236.895 49.2677C240.848 49.2677 243.611 50.3689 244.116 53.6366C245.56 65.1186 232.237 66.9781 222.687 70.2818L223.012 71.8164C223.734 75.2104 225.738 78.803 230.793 78.803H231.424C232.742 78.803 237.111 78.0267 238.393 77.792C243.502 76.8713 247.998 75.1021 252.836 74.5424C253.179 74.5245 253.522 74.5245 253.865 74.5424C255.759 74.5387 257.583 75.2576 258.965 76.5525C260.347 77.8474 261.183 79.6208 261.303 81.5111C262.224 94.0401 247.239 98.1563 237.382 100.16C232.761 101.178 228.05 101.729 223.319 101.803C218.77 102.066 214.246 100.973 210.32 98.6618C203.839 94.2207 198.008 82.5943 194.397 71.1665C189.811 56.7237 188.981 38.3634 198.676 29.3006C203.694 24.6609 215.267 18.7574 228.5 16.3383C231.775 15.7257 235.098 15.4054 238.429 15.3815M238.429 4.54941C234.443 4.56647 230.467 4.94717 226.55 5.68678C210.826 8.55727 197.538 15.6161 191.328 21.3571C184.756 27.4411 180.965 36.5039 180.333 47.5707C179.987 56.6754 181.252 65.7698 184.07 74.4341C186.995 83.6775 193.494 100.269 204.2 107.598C209.074 110.938 215.519 112.635 223.319 112.635C228.781 112.571 234.223 111.967 239.567 110.83C246.316 109.673 252.834 107.43 258.866 104.186C268.127 98.7701 272.839 90.4475 272.117 80.7167C271.818 76.092 269.764 71.7561 266.375 68.5951C262.986 65.4342 258.517 63.6869 253.883 63.7104H253.432C254.959 60.1332 255.478 56.2058 254.93 52.3548C254.511 49.2152 253.13 46.2825 250.976 43.96C257.457 41.7033 262.964 38.1287 265.13 31.3226C265.832 28.9465 266.029 26.4497 265.708 23.9929C265.347 19.3893 262.26 4.42303 238.231 4.42303L238.429 4.54941Z" fill="#45413C"/>
<path d="M307.287 102.29C304.832 102.29 302.25 102.074 299.488 101.839L297.9 101.713L294.632 101.388C294.126 101.388 293.747 101.279 293.386 101.261C279.16 100.034 265.638 96.5134 262.19 79.2543C260.616 71.3557 259.596 63.3566 259.139 55.3155C258.325 43.0351 258.803 30.7032 260.565 18.5227C262.064 9.13494 273.437 6.60746 279.25 6.57135H279.72C285.966 6.57135 300.59 6.57135 301.384 22.5306V23.0541C301.366 23.3668 301.366 23.6802 301.384 23.9929V26.051C301.276 27.4952 301.005 30.3838 300.608 34.3736C299.813 42.3171 298.622 54.2323 298.297 62.0495V64.9019C299.922 65.1546 301.564 65.3352 303.243 65.5157C308.649 65.8372 313.957 67.0956 318.932 69.2347C325.106 72.2677 327.67 77.3226 326.586 84.2732C324.637 96.7481 318.697 102.29 307.287 102.29Z" fill="#EDF2F4"/>
<path d="M279.667 11.9874C288.513 11.9874 295.428 13.2512 295.915 22.8195V25.708C295.645 29.9867 293.334 50.2606 292.828 61.8148C292.597 64.3635 292.706 66.9317 293.153 69.4514C301.512 71.4553 309.149 70.5707 316.623 74.1633C320.594 76.1131 322.039 78.8392 321.262 83.4789C319.457 94.6359 314.637 96.8745 307.325 96.8745C304.653 96.8745 301.656 96.5676 298.389 96.2968C295.897 96.0982 294.778 95.9177 293.767 95.8455C279.74 94.6359 270.189 91.4404 267.535 78.1893C266.006 70.5419 265.023 62.7955 264.593 55.0087C263.775 43.1168 264.211 31.172 265.893 19.3713C266.831 13.5039 275.75 12.0055 279.252 11.9874H279.703M279.703 1.1554H279.198C268.908 1.1554 257.01 6.39088 255.205 17.6562C253.372 30.2059 252.894 42.9164 253.779 55.5683C254.248 63.8838 255.31 72.1551 256.956 80.3196C261.686 103.951 283.531 105.847 292.864 106.641H293.063L294.056 106.75C294.886 106.75 295.861 106.966 297.468 107.075L299.039 107.219C301.909 107.454 304.617 107.689 307.289 107.689C321.317 107.689 329.603 100.106 331.932 85.1398C333.394 75.8243 329.621 68.4765 321.353 64.4145C315.814 61.9704 309.884 60.5337 303.841 60.172C304.256 52.6076 305.303 42.1186 306.007 34.8972C306.422 30.8532 306.711 27.9286 306.802 26.3941C306.846 25.5281 306.846 24.6604 306.802 23.7944V22.2959C306.278 11.1931 299.833 6.21035 295.97 4.24253C290.824 1.55257 284.867 1.1915 279.722 1.1915L279.703 1.1554Z" fill="#45413C"/>
<path d="M338.201 108.718C336.206 108.726 334.218 108.489 332.28 108.014C324.463 106.046 319.462 100.503 319.823 94.2388C320.63 82.9387 322.065 71.6922 324.12 60.5512C324.589 57.8071 325.04 54.8102 325.51 51.7231C327.424 39.0857 329.247 26.9538 333.58 21.0323C335.764 18.0535 340.187 16.6634 347.517 16.6634C354.812 16.7237 362.06 17.8364 369.037 19.9672C386.964 25.5637 401.063 36.3597 406.714 48.8526C408.56 52.8449 409.516 57.1908 409.516 61.5893C409.516 65.9877 408.56 70.3336 406.714 74.326C400.811 87.5772 388.661 94.8707 372.629 94.8707C366.741 94.8265 360.886 93.9823 355.226 92.3613C355.226 92.4516 355.226 92.5238 355.135 92.596C353.939 96.3668 352.341 99.9982 350.369 103.428C348.221 106.876 343.924 108.718 338.201 108.718ZM363.079 62.2663C364.093 62.533 365.136 62.6724 366.184 62.6815C369.416 62.6815 371.907 61.2372 372.701 58.9445C372.915 58.3216 373.003 57.6625 372.96 57.0054C372.916 56.3483 372.743 55.7064 372.449 55.1171C371.347 53.184 369.533 51.7585 367.394 51.1454C367.003 51.0135 366.605 50.905 366.202 50.8204L363.079 62.2663Z" fill="#EDF2F4"/>
<path d="M347.499 22.0792C354.229 22.1576 360.915 23.1847 367.358 25.1303C390.629 32.3516 411.137 50.8925 401.659 72.0691C396.153 84.4357 385.123 89.4004 372.521 89.4004C365.987 89.3051 359.507 88.1966 353.312 86.1147L351.814 85.6453C349.63 91.0613 348.312 96.2787 345.658 100.575C344.502 102.381 341.379 103.229 338.13 103.229C336.579 103.238 335.032 103.056 333.526 102.688C328.994 101.55 324.914 98.4812 325.149 94.4734C325.948 83.3795 327.359 72.3382 329.374 61.3996C331.594 48.5816 333.345 30.3477 337.877 24.1554C338.942 22.7111 342.643 22.007 347.445 22.007M366.112 68.0252C371.817 68.0252 376.24 65.0644 377.757 60.6233C379.706 54.9545 376.565 48.5094 369.073 45.9458C367.378 45.3764 365.607 45.0601 363.82 45.0071C363.207 44.9913 362.596 45.0829 362.014 45.2779L356.779 64.7214C357.646 65.8498 358.846 66.6771 360.209 67.0864C362.129 67.7359 364.14 68.0771 366.166 68.0974M347.499 11.2472C341.704 11.2472 333.508 11.9332 329.193 17.8367C324.427 24.354 322.513 35.168 320.166 50.9105C319.697 54.0157 319.246 56.9584 318.794 59.6303C316.716 70.9764 315.258 82.4271 314.425 93.9318C313.92 102.868 320.564 110.649 330.962 113.267C333.327 113.84 335.751 114.13 338.184 114.134C345.874 114.134 351.814 111.371 354.919 106.353C356.346 103.944 357.554 101.412 358.53 98.7882C363.129 99.7758 367.818 100.284 372.521 100.305C390.864 100.305 404.729 91.8737 411.553 76.5464C413.724 71.859 414.849 66.755 414.849 61.5891C414.849 56.4232 413.724 51.3192 411.553 46.6319C405.27 32.7488 389.889 20.8336 370.553 14.7857C363.055 12.4901 355.268 11.2744 347.427 11.175L347.499 11.2472Z" fill="#45413C"/>
<path d="M409.595 140.798C405.356 140.639 401.249 139.281 397.752 136.881C392.191 133.27 388.418 125.074 392.011 118.178C393.134 116.028 394.799 114.209 396.841 112.901C398.884 111.594 401.233 110.842 403.655 110.721C399.503 100.575 404.413 89.2921 409.45 79.4169C410.696 76.9616 412.086 74.4161 413.53 71.7622C414.974 69.1084 416.491 66.3462 417.971 63.4035L419.957 58.7999V58.6374C420.21 58.168 420.553 57.4098 420.878 56.6696C421.203 55.9294 421.672 54.8642 421.925 54.431L422.467 53.3658C423.232 51.8707 424.252 50.5205 425.482 49.376L425.969 48.9247L426.547 48.5997C428.203 47.6829 430.07 47.2161 431.963 47.2457C436.389 47.5615 440.646 49.0782 444.275 51.6327C449.296 54.8596 453.673 58.9918 457.183 63.8187C459.318 66.5415 460.82 69.7058 461.579 73.0816C462.338 76.4574 462.335 79.9599 461.57 83.3345C460.607 87.2859 458.911 91.0215 456.57 94.347C448.337 106.497 433.804 116.824 426.89 119.315C425.184 119.95 423.417 120.41 421.618 120.687C422.837 122.754 423.468 125.114 423.443 127.513C423.417 129.912 422.736 132.259 421.474 134.299C420.226 136.319 418.475 137.979 416.393 139.119C414.311 140.258 411.968 140.837 409.595 140.798Z" fill="#EDF2F4"/>
<path d="M431.967 52.6617C435.363 53.0049 438.605 54.2517 441.355 56.2724C445.783 59.1035 449.646 62.7338 452.747 66.9781C454.467 69.0799 455.686 71.546 456.312 74.1891C456.938 76.8322 456.953 79.5831 456.357 82.2332C455.539 85.5113 454.119 88.6089 452.169 91.3682C444.821 102.2 431.173 112.094 425.089 114.278C423.035 115.066 420.861 115.494 418.662 115.542C416.645 115.592 414.658 115.039 412.957 113.953C411.435 113.068 410.186 111.782 409.346 110.234C405.266 102.597 408.534 93.2097 414.257 81.9804C416.802 76.9977 419.872 71.6358 422.85 65.7324C423.663 63.927 424.06 62.9702 424.854 61.1107C425.396 60.0636 426.335 57.8611 426.822 56.9043C427.039 56.471 427.147 56.2724 427.346 55.8391C427.794 54.9024 428.405 54.0527 429.151 53.3297C430.003 52.8846 430.952 52.6611 431.913 52.6798M404.797 116.174C405.591 116.172 406.384 116.251 407.162 116.408C409.049 116.762 410.843 117.499 412.434 118.575C417.019 121.662 419.655 127.132 416.929 131.411C416.176 132.671 415.103 133.709 413.819 134.419C412.534 135.13 411.085 135.487 409.617 135.455C406.422 135.3 403.335 134.242 400.717 132.404C397.449 130.291 394.561 125.074 396.817 120.741C397.578 119.302 398.732 118.109 400.145 117.3C401.558 116.492 403.171 116.101 404.797 116.174ZM431.967 41.9019C429.144 41.8752 426.363 42.5845 423.897 43.96L422.742 44.6099L421.785 45.5306C420.123 47.0825 418.747 48.9161 417.723 50.9466L417.182 52.0118C416.839 52.6978 416.441 53.5463 416.026 54.4671C415.611 55.3878 415.43 55.7849 415.214 56.2724L415.051 56.5793L414.925 56.9043C414.167 58.7096 413.788 59.5581 413.12 61.1829C411.711 63.9631 410.231 66.5989 408.823 69.2709C407.415 71.9428 405.97 74.5063 404.689 77.0519C399.724 86.8007 395.662 96.9106 397.052 106.84C392.825 108.548 389.348 111.711 387.249 115.758C385.154 120.223 384.765 125.301 386.155 130.033C387.545 134.765 390.618 138.826 394.795 141.448C399.178 144.428 404.32 146.094 409.617 146.251C412.899 146.276 416.132 145.46 419.009 143.88C421.885 142.299 424.308 140.008 426.046 137.224C428.477 133.444 429.399 128.888 428.627 124.46H428.754C437.69 121.229 452.819 109.584 461.069 97.38C463.8 93.4955 465.766 89.1272 466.865 84.5079C467.806 80.3974 467.823 76.1291 466.914 72.0112C466.006 67.8933 464.194 64.0284 461.611 60.6955C457.69 55.3 452.791 50.6887 447.168 47.1013C442.689 43.9463 437.404 42.1305 431.931 41.8658L431.967 41.9019Z" fill="#45413C"/>
<path d="M150.312 133.234C145.672 133.234 140.13 130.328 133.793 124.605C127.571 118.709 122.025 112.139 117.256 105.017C113.263 99.0432 109.645 92.8268 106.424 86.4037C102.633 78.731 102.308 75.5716 102.308 74.3982C101.225 66.6894 107.941 59.8291 112.147 56.9586C115.248 54.5872 118.991 53.2034 122.889 52.9868C125.082 53.0003 127.226 53.6327 129.075 54.8113C130.925 55.9898 132.403 57.6666 133.342 59.6485L138.487 69.2349C140.184 72.3762 141.357 73.7121 142.423 73.7121C143.419 73.612 144.375 73.2644 145.203 72.7011C151.702 68.9099 151.973 68.7655 147.351 58.7278L146.304 56.4531C145.24 54.2827 144.626 51.9197 144.499 49.5059C144.372 47.0922 144.734 44.6777 145.564 42.4075C146.644 39.7461 148.247 37.3283 150.279 35.2972C152.31 33.2662 154.727 31.663 157.389 30.5826C160.385 29.0824 163.664 28.2333 167.011 28.0912C172.752 28.0912 177.085 31.3227 180.299 37.9664C181.876 41.4406 183.268 44.9961 184.469 48.6179C189.843 64.4098 194.156 80.5434 197.377 96.9107C198.767 105.306 196.294 111.01 190.047 113.899C187.468 115.233 184.627 115.985 181.725 116.102C179.98 116.113 178.258 115.699 176.71 114.893C175.162 114.088 173.834 112.916 172.843 111.48C169.731 106.854 167.024 101.967 164.755 96.8746C162.949 93.0112 162.173 92.3613 161.974 92.253C160.85 92.5613 159.784 93.049 158.815 93.6972C153.76 96.5677 154.157 97.3079 155.204 99.2757C156.252 101.244 157.515 103.175 158.617 104.836C159.718 106.497 160.53 107.743 161.361 109.277C166.127 118.196 165.152 126.392 158.815 130.634C156.348 132.311 153.439 133.216 150.456 133.234H150.312Z" fill="#EDF2F4"/>
<path d="M167.03 31.6477C171.182 31.6477 174.413 33.9947 177.049 39.4649C178.605 42.8102 179.973 46.2396 181.147 49.7372C186.421 65.3545 190.643 81.3072 193.785 97.4885C194.705 103.157 193.965 108.104 188.495 110.631C186.378 111.704 184.059 112.319 181.689 112.437C180.51 112.452 179.346 112.173 178.302 111.625C177.259 111.076 176.369 110.275 175.713 109.295C172.753 104.858 170.175 100.177 168.004 95.304C165.82 90.556 164.249 88.6062 162.011 88.6062C160.217 88.7955 158.495 89.4148 156.992 90.4116C151.72 93.4265 149.355 95.8276 152.009 100.828C154.32 105.125 156.522 107.815 158.147 110.848C161.343 116.824 162.263 123.828 156.793 127.493C154.905 128.77 152.682 129.461 150.402 129.479H150.258C146.106 129.479 140.997 126.157 136.158 121.788C130.149 116.086 124.79 109.734 120.181 102.85C116.283 97.0142 112.75 90.9427 109.602 84.6706C107.345 80.067 105.792 76.0049 105.865 74.0191C104.872 68.26 110.378 62.3566 114.133 59.793C116.672 57.874 119.729 56.7608 122.907 56.5975C124.438 56.6266 125.93 57.09 127.209 57.9337C128.487 58.7775 129.5 59.9669 130.128 61.3636L135.274 70.8778C137.278 74.4885 139.245 77.2506 142.387 77.2506C144.025 77.1565 145.611 76.6403 146.99 75.7522C155.818 70.607 155.62 68.0976 150.601 57.1391L149.554 54.8644C145.817 46.7404 149.193 38.2372 158.869 33.7961C161.395 32.5117 164.163 31.7735 166.993 31.6297M166.993 24.4083C163.125 24.5495 159.332 25.5223 155.873 27.2608C152.776 28.5351 149.967 30.4171 147.611 32.7954C145.254 35.1736 143.398 38.0001 142.152 41.1077C141.174 43.826 140.745 46.7115 140.891 49.5966C141.037 52.4818 141.754 55.3094 143 57.9154L143.723 59.4861L144.048 60.1902C145.164 62.4473 146.1 64.7896 146.846 67.1949C145.769 68.0827 144.608 68.8628 143.38 69.5238L143.019 69.7224C142.524 68.9906 142.072 68.2311 141.665 67.4476L141.484 67.1227L136.519 57.9515C135.268 55.4011 133.332 53.2486 130.929 51.7343C128.525 50.22 125.748 49.4036 122.907 49.3762C118.282 49.5823 113.827 51.1806 110.125 53.9617C105.269 57.2836 97.4878 65.2993 98.7155 74.669C98.7155 76.9257 99.5459 80.5725 103.211 87.9924C106.526 94.6002 110.246 100.997 114.35 107.147C119.296 114.494 125.036 121.275 131.464 127.367C138.577 133.812 144.77 136.935 150.402 136.935H150.673C154.343 136.887 157.919 135.77 160.964 133.722C168.853 128.432 170.297 118.196 164.574 107.671C163.672 105.974 162.769 104.511 161.668 102.941C160.566 101.37 159.682 99.9438 158.671 98.1204C159.104 97.8315 159.736 97.4343 160.621 96.9288H160.729C160.946 97.3621 161.198 97.9037 161.505 98.5536C163.886 103.862 166.712 108.96 169.954 113.791C171.276 115.687 173.041 117.233 175.095 118.293C177.149 119.353 179.431 119.896 181.743 119.875C185.159 119.74 188.508 118.879 191.564 117.347C196.98 114.838 203.046 109.187 200.97 96.4775C197.718 79.8922 193.345 63.5465 187.881 47.5528C186.646 43.7914 185.199 40.1026 183.548 36.5041C179.739 28.5967 174.179 24.5889 167.011 24.5889L166.993 24.4083Z" fill="#45413C"/>
<path d="M223.111 100.539C216.792 100.539 211.719 99.2575 208.073 96.7481C198.829 90.4294 192.872 74.0911 190.741 67.3752C185.939 52.1562 184.802 32.1891 196.013 21.7723C201.284 16.9159 213.416 10.507 227.642 7.90729C231.131 7.25437 234.672 6.91602 238.222 6.8963C250.444 6.8963 257.846 11.6082 258.496 19.8045C258.733 21.3028 258.653 22.8343 258.261 24.2998C256.004 31.5211 246.003 33.3265 236.308 35.2943C231.163 36.3053 221.595 38.2009 221.378 40.5839C221.366 41.4581 221.457 42.3307 221.649 43.1836L225.007 42.4434C228.891 41.5516 232.85 41.0258 236.832 40.8728C245.317 40.8728 247.194 45.5847 247.537 48.4011C249.144 61.0384 237.066 64.7755 228.256 67.4655L226.866 67.8807C227.111 68.6702 227.619 69.3519 228.306 69.8119C228.992 70.2719 229.816 70.4824 230.639 70.4082H231.073C232.011 70.4082 235.586 69.8124 237.59 69.4513C239.594 69.0903 241.76 68.5306 243.764 67.989C246.527 67.1844 249.345 66.581 252.195 66.1837C252.681 66.1277 253.169 66.0976 253.657 66.0934C256.472 66.0839 259.183 67.1524 261.235 69.0796C263.286 71.0068 264.522 73.6463 264.688 76.4561C265.934 93.2096 244.829 97.5063 237.897 98.9145C233.034 99.9446 228.081 100.489 223.111 100.539Z" fill="#EDF2F4"/>
<path d="M238.218 10.5072C246.847 10.5072 254.322 13.0166 254.899 20.0936C255.052 21.0988 255.052 22.1213 254.899 23.1265C251.758 33.4892 218.793 30.1493 217.836 40.2592C217.789 41.6009 217.923 42.9428 218.233 44.249C218.439 45.3586 218.765 46.4423 219.208 47.4806C221.844 46.8487 223.161 46.5418 225.815 45.9821C229.451 45.1456 233.155 44.6441 236.882 44.4837C240.836 44.4837 243.598 45.5669 244.103 48.8526C245.548 60.3346 232.224 62.176 222.674 65.4979L222.999 67.0324C223.721 70.4264 225.725 74.0191 230.78 74.0191H231.412C232.73 74.0191 237.099 73.2428 238.38 73.0081C243.49 72.0874 247.985 70.3181 252.823 69.7585C253.166 69.7316 253.51 69.7316 253.852 69.7585C255.746 69.7547 257.57 70.4736 258.952 71.7685C260.335 73.0634 261.171 74.8369 261.29 76.7271C262.211 89.2561 247.227 93.3723 237.369 95.3762C232.747 96.3854 228.036 96.9357 223.306 97.0191C218.755 97.2859 214.228 96.1856 210.307 93.8597C203.826 89.4367 197.995 77.8103 194.384 66.3825C189.799 51.8495 188.968 33.5794 198.663 24.5166C203.682 19.8769 215.254 13.9554 228.487 11.5543C231.761 10.9328 235.084 10.6125 238.417 10.5975M238.417 3.3761C234.649 3.39568 230.891 3.75215 227.187 4.44125C212.185 7.18537 199.584 13.829 193.771 19.2089C181.296 30.7812 182.361 52.2828 187.506 68.5489C189.745 75.6258 196.045 92.8668 206.227 99.8174C210.488 102.742 216.247 104.24 223.306 104.24C228.522 104.148 233.716 103.543 238.814 102.435C245.175 101.35 251.32 99.2472 257.012 96.2067C267.284 90.1949 268.927 81.9987 268.494 76.1674C268.254 72.4543 266.605 68.973 263.883 66.4358C261.161 63.8987 257.573 62.4975 253.852 62.519C253.249 62.5223 252.646 62.5585 252.047 62.6274C249.677 62.9399 247.331 63.4103 245.024 64.0355C247.464 62.2171 249.351 59.7575 250.476 56.9305C251.601 54.1034 251.92 51.0196 251.397 48.0222C251.106 45.5881 250.063 43.3055 248.412 41.4931C246.761 39.6807 244.586 38.4288 242.19 37.9123C251.216 35.9805 259.485 33.2364 262.048 25.5096C262.595 23.5858 262.737 21.5694 262.464 19.5881C262.243 16.7423 261.267 14.007 259.635 11.6647C258.004 9.3225 255.777 7.45827 253.184 6.26465C248.604 4.18458 243.606 3.18989 238.579 3.35805L238.417 3.3761Z" fill="#45413C"/>
<path d="M307.288 95.701C304.905 95.701 302.36 95.4843 299.652 95.2496L298.045 95.1233L294.832 94.7983L293.496 94.6719C280.858 93.5887 267.336 91.0612 263.96 74.1091C262.407 66.2933 261.399 58.3788 260.945 50.4231C260.14 38.2687 260.619 26.0635 262.372 14.0093C263.671 5.83115 273.998 3.61058 279.27 3.59253H279.739C285.967 3.59253 298.894 3.59253 299.598 17.8367V21.0682C299.598 22.4944 299.201 25.5094 298.821 29.3367C298.045 37.2982 296.854 49.3218 296.511 57.1209C296.42 59.1067 296.511 60.551 296.511 61.5801C298.713 61.9772 300.898 62.23 303.046 62.4647C308.292 62.7603 313.445 63.9827 318.265 66.0753C323.681 68.7472 325.883 73.0439 324.927 79.2182C322.995 90.7724 317.759 95.701 307.288 95.701Z" fill="#EDF2F4"/>
<path d="M279.674 7.20331C288.52 7.20331 295.435 8.46704 295.922 18.0353V20.9419C295.651 25.2025 293.341 45.4765 292.835 57.0487C292.603 59.5974 292.713 62.1656 293.16 64.6853C301.519 66.6893 309.155 65.8046 316.629 69.3792C320.601 71.329 322.045 74.0731 321.269 78.7128C319.464 89.8698 314.644 92.1084 307.332 92.1084C304.66 92.1084 301.663 91.8015 298.396 91.5307C295.904 91.3322 294.785 91.1336 293.774 91.0794C279.746 89.8698 270.196 86.6563 267.542 73.4232C266.015 65.7755 265.032 58.0293 264.6 50.2426C263.782 38.3508 264.218 26.4059 265.899 14.6052C266.838 8.73785 275.757 7.23941 279.259 7.22136H279.71M279.71 0H279.223C272.886 0 260.465 2.87049 258.768 13.4678C256.997 25.7751 256.538 38.2355 257.396 50.6398C257.842 58.7665 258.867 66.8509 260.465 74.8313C264.654 95.8094 283.935 97.4703 293.142 98.3008H293.323L294.496 98.4271L297.8 98.7521L299.388 98.8785C302.169 99.1132 304.804 99.3479 307.332 99.3479C319.644 99.3479 326.342 93.1375 328.418 79.8321C329.935 70.0833 324.573 65.263 319.807 62.9161C314.597 60.633 309.021 59.3001 303.342 58.9805L300.02 58.5833V57.3737C300.345 49.683 301.537 37.7316 302.313 29.8062C302.71 25.7983 302.999 22.8917 303.107 21.4113V19.1727C303.089 18.9082 303.089 18.6428 303.107 18.3784V17.6923C302.259 0.0180509 285.866 0.018053 279.638 0.018053L279.71 0Z" fill="#45413C"/>
<path d="M338.201 102.128C336.375 102.124 334.557 101.899 332.785 101.46C325.834 99.6547 321.375 94.9248 321.7 89.5448C322.507 78.3183 323.929 67.1445 325.961 56.0738C326.43 53.3117 326.9 50.2968 327.369 47.2096C329.174 35.2402 330.98 22.8736 335.114 17.3132C336.251 15.7606 338.725 13.7025 347.589 13.7025C354.668 13.7574 361.702 14.8274 368.477 16.8799C385.934 22.2959 399.601 32.7669 405.053 44.8085C406.788 48.5697 407.687 52.6627 407.687 56.805C407.687 60.9473 406.788 65.0403 405.053 68.8015C399.456 81.4389 387.938 88.2811 372.557 88.2811C366.28 88.2477 360.041 87.3052 354.034 85.4828L353.384 87.2882C352.228 90.956 350.685 94.4904 348.78 97.8314C346.433 101.55 341.126 102.128 338.201 102.128ZM360.876 58.6735L361.364 58.8721C362.918 59.3946 364.544 59.6687 366.184 59.6845C370.21 59.6845 373.405 57.8792 374.416 54.7379C374.712 53.892 374.832 52.9949 374.77 52.1011C374.708 51.2073 374.465 50.3354 374.055 49.5385C373.414 48.3617 372.547 47.3234 371.503 46.4837C370.458 45.6439 369.258 45.0194 367.971 44.646C366.968 44.318 365.933 44.0942 364.884 43.9781L360.876 58.6735Z" fill="#EDF2F4"/>
<path d="M347.494 17.2951C354.225 17.3645 360.911 18.3918 367.352 20.3461C390.623 27.5675 411.132 46.0903 401.654 67.285C396.148 79.6516 385.135 84.6162 372.516 84.6162C365.981 84.5209 359.501 83.4125 353.307 81.3305L351.808 80.8431C349.624 86.2591 348.306 91.4946 345.652 95.7913C344.497 97.5966 341.374 98.4451 338.124 98.4451C336.574 98.4449 335.029 98.2632 333.52 97.9035C328.989 96.7481 324.909 93.6971 325.144 89.6892C325.941 78.5951 327.351 67.5537 329.368 56.6154C331.589 43.7795 333.34 25.5636 337.871 19.3713C338.936 17.9089 342.637 17.2229 347.44 17.2229M366.107 63.223C371.812 63.223 376.235 60.2803 377.751 55.8391C379.701 50.1704 376.56 43.7072 369.068 41.1617C367.372 40.5923 365.602 40.276 363.814 40.2229C363.201 40.2071 362.59 40.2988 362.009 40.4937L356.737 59.865C357.604 60.9934 358.804 61.8208 360.167 62.23C362.088 62.8743 364.099 63.2094 366.125 63.223M347.494 10.0738C339.424 10.0738 334.676 11.6444 332.112 15.1829C327.834 21.0141 325.992 31.4309 323.699 46.668C323.23 49.7912 322.779 52.752 322.309 55.46C320.255 66.6684 318.815 77.9807 317.994 89.3462C317.579 96.5676 323.122 102.796 331.805 104.962C333.89 105.479 336.03 105.74 338.178 105.739C344.569 105.739 349.407 103.572 351.845 99.6547C353.657 96.5212 355.134 93.2051 356.25 89.7615C361.556 91.1454 367.014 91.867 372.498 91.9098C389.342 91.9098 402.033 84.2371 408.225 70.2457C410.183 66.0195 411.198 61.4176 411.198 56.7598C411.198 52.1021 410.183 47.5002 408.225 43.274C402.358 30.3116 387.861 19.1366 369.447 13.3956C362.292 11.2238 354.863 10.0869 347.385 10.0196L347.494 10.0738ZM365.276 56.0377L366.287 52.3007L367.389 48.3109C368.84 48.8153 370.055 49.8373 370.801 51.1813C370.994 51.5542 371.11 51.9625 371.141 52.3814C371.172 52.8004 371.118 53.2212 370.981 53.6186C370.533 54.4816 369.83 55.1856 368.967 55.6346C368.105 56.0836 367.125 56.2559 366.161 56.128C365.878 56.1456 365.595 56.1456 365.312 56.128L365.276 56.0377Z" fill="#45413C"/>
<path d="M409.62 134.227C405.741 134.071 401.985 132.819 398.788 130.616C393.878 127.439 390.52 120.272 393.643 114.368C394.702 112.335 396.316 110.644 398.297 109.491C400.278 108.337 402.545 107.769 404.836 107.851C405.44 107.852 406.042 107.888 406.641 107.959C406.48 107.711 406.335 107.451 406.208 107.183C401.442 98.2827 404.71 88.1186 411.101 75.5896C412.346 73.1524 413.718 70.6249 415.145 67.9891C416.571 65.3533 418.141 62.4467 419.64 59.5401L421.608 54.792V54.6837C421.879 54.1963 422.222 53.4019 422.565 52.6437C422.908 51.8855 423.323 50.9828 423.576 50.4773L424.117 49.4121C424.754 48.1047 425.616 46.9192 426.663 45.9098L426.988 45.6029L427.367 45.3862C428.755 44.6286 430.316 44.243 431.898 44.2669C435.978 44.5867 439.895 46.0026 443.236 48.365C448.063 51.4429 452.27 55.3988 455.638 60.0275C457.613 62.5471 459.004 65.4729 459.713 68.5944C460.422 71.716 460.43 74.9559 459.737 78.0809C458.821 81.8026 457.223 85.3223 455.025 88.4616C447.298 99.8353 433.036 110.27 426.139 112.743C423.691 113.671 421.102 114.171 418.485 114.224H418.25C421.861 118.611 422.583 124.117 419.82 128.45C418.76 130.208 417.264 131.663 415.477 132.675C413.691 133.687 411.674 134.221 409.62 134.227Z" fill="#EDF2F4"/>
<path d="M431.978 47.8775C435.374 48.2207 438.615 49.4675 441.366 51.4882C445.802 54.3088 449.667 57.9408 452.757 62.1938C454.479 64.2951 455.699 66.761 456.325 69.4044C456.95 72.0478 456.965 74.799 456.368 77.449C455.539 80.6898 454.119 83.7498 452.18 86.4757C444.832 97.3077 431.184 107.201 425.1 109.403C423.046 110.192 420.872 110.619 418.673 110.667C416.653 110.711 414.667 110.152 412.968 109.06C411.462 108.203 410.214 106.956 409.357 105.45C405.277 97.8132 408.545 88.4254 414.268 77.1782C416.813 72.1954 419.882 66.8516 422.861 61.0204C423.673 59.215 424.071 58.2582 424.865 56.3987C425.407 55.3516 426.345 53.1491 426.833 52.1923L427.356 51.1271C427.805 50.1904 428.416 49.3407 429.162 48.6177C430.01 48.1642 430.962 47.9402 431.924 47.9678M404.753 111.407C405.548 111.406 406.34 111.485 407.118 111.642C409.008 111.987 410.804 112.725 412.39 113.809C416.976 116.896 419.611 122.366 416.885 126.644C416.133 127.905 415.06 128.943 413.775 129.653C412.491 130.363 411.041 130.721 409.574 130.688C406.38 130.525 403.296 129.468 400.673 127.637C397.406 125.507 394.517 120.308 396.774 115.975C397.535 114.536 398.689 113.343 400.101 112.534C401.514 111.726 403.127 111.335 404.753 111.407ZM431.924 40.7464C429.723 40.7122 427.551 41.2536 425.623 42.317L424.847 42.7503L424.215 43.3641C422.854 44.6503 421.73 46.1658 420.893 47.8414L420.352 48.9065C420.081 49.4481 419.684 50.3147 419.268 51.2174C418.853 52.12 418.637 52.6616 418.384 53.131L418.275 53.3296L418.185 53.5463L416.29 57.9332C414.827 60.7857 413.347 63.5298 411.903 66.2017C410.458 68.8736 409.068 71.4011 407.804 73.9105C399.771 89.6711 399.265 98.3909 401.125 104.601C398.826 105.044 396.657 106.002 394.781 107.403C392.905 108.804 391.371 110.611 390.293 112.689C386.231 120.488 390.437 129.695 396.666 133.739C400.452 136.346 404.907 137.812 409.501 137.964C412.181 138.001 414.824 137.342 417.173 136.051C419.521 134.76 421.493 132.881 422.897 130.598C424.13 128.638 424.882 126.414 425.092 124.109C425.302 121.803 424.965 119.48 424.107 117.329C425.22 117.062 426.317 116.73 427.392 116.336C434.523 113.754 449.526 103.139 457.957 90.6821C460.428 87.1738 462.21 83.2286 463.21 79.0557C464.036 75.4352 464.046 71.6765 463.24 68.0516C462.435 64.4266 460.833 61.026 458.553 58.0957C454.908 53.0844 450.358 48.7984 445.139 45.4583C441.24 42.6785 436.632 41.0632 431.852 40.8006L431.924 40.7464Z" fill="#45413C"/>
<path d="M689.522 364.313C689.522 364.313 622.969 440.322 634.806 646.559H516.053C527.889 440.436 461.336 364.426 461.336 364.426L689.522 364.313Z" fill="#FF512E"/>
<path d="M633.266 415.084C633.266 415.084 605.352 440.322 612.857 646.377H538.027C545.465 440.254 524.422 432.227 524.422 432.227C573.56 433.406 587.03 395.674 587.03 395.674C587.03 395.674 610.227 426.286 633.266 415.084Z" fill="#FF8A14"/>
<path d="M689.522 364.313C689.522 364.313 622.969 440.322 634.806 646.559H516.053C527.889 440.436 461.336 364.426 461.336 364.426L689.522 364.313Z" stroke="#E04122" stroke-width="13.3071" stroke-linecap="round" stroke-linejoin="round"/>
<path d="M796.746 271.569C799.217 258.625 798.798 245.294 795.52 232.53C792.242 219.766 786.185 207.884 777.781 197.732C769.378 187.581 758.836 179.411 746.909 173.806C734.982 168.201 721.964 165.3 708.786 165.31C704.896 165.314 701.01 165.572 697.153 166.081C690.304 145.801 677.707 127.948 660.896 114.697C644.084 101.447 623.783 93.3683 602.464 91.4461C581.144 89.5239 559.726 93.8406 540.815 103.871C521.905 113.901 506.318 129.212 495.951 147.941C482.472 143.35 468.092 142.041 454.006 144.121C439.919 146.201 426.532 151.61 414.954 159.899C403.376 168.189 393.943 179.12 387.435 191.786C380.928 204.451 377.535 218.486 377.538 232.725C377.538 234.585 377.538 236.422 377.72 238.258C365.356 242.863 354.163 250.142 344.94 259.576C335.718 269.01 328.694 280.365 324.37 292.83C320.047 305.294 318.531 318.56 319.932 331.679C321.332 344.797 325.614 357.444 332.47 368.715C339.327 379.986 348.59 389.603 359.596 396.878C370.602 404.152 383.08 408.905 396.137 410.796C409.193 412.687 422.507 411.67 435.124 407.817C447.742 403.964 459.353 397.371 469.126 388.508C476.985 397.172 486.864 403.759 497.883 407.683C508.903 411.608 520.722 412.748 532.288 411.002C543.855 409.256 554.81 404.678 564.181 397.676C573.551 390.674 581.045 381.464 585.997 370.866C591.526 379.746 598.95 387.292 607.739 392.964C616.527 398.636 626.462 402.293 636.83 403.674C647.199 405.055 657.744 404.124 667.711 400.949C677.677 397.775 686.818 392.434 694.478 385.311C701.716 393.223 710.529 399.533 720.351 403.836C730.173 408.138 740.787 410.339 751.51 410.295C762.233 410.251 772.828 407.964 782.615 403.581C792.401 399.199 801.163 392.817 808.336 384.846C815.509 376.875 820.935 367.492 824.265 357.299C827.596 347.106 828.757 336.329 827.674 325.661C826.591 314.992 823.288 304.669 817.977 295.353C812.666 286.037 805.465 277.936 796.836 271.569H796.746Z" fill="#FF8A14"/>
<path d="M806.303 279.959C805.865 292.552 802.05 304.795 795.258 315.408C788.466 326.021 778.946 334.613 767.694 340.285C756.443 345.957 743.874 348.501 731.302 347.65C718.731 346.798 706.619 342.584 696.235 335.447C692.598 332.95 688.337 331.517 683.931 331.309C679.525 331.101 675.148 332.125 671.292 334.268C658.57 341.259 643.881 343.812 629.546 341.524C624.662 348.758 618.196 354.785 610.637 359.148C603.077 363.511 594.624 366.095 585.917 366.705C577.211 367.315 568.48 365.934 560.386 362.667C552.292 359.4 545.049 354.333 539.205 347.851C530.764 349.622 522.054 349.693 513.586 348.058C505.117 346.422 497.06 343.114 489.885 338.327C486.163 335.839 481.811 334.458 477.336 334.346C472.86 334.233 468.444 335.394 464.602 337.692C452.158 345.104 437.972 349.087 423.488 349.235C409.005 349.383 394.74 345.69 382.148 338.533C369.555 331.376 359.083 321.01 351.799 308.491C344.515 295.971 340.678 281.745 340.679 267.261V263.995C325.341 281.239 317.255 303.74 318.108 326.802C318.961 349.865 328.687 371.707 345.257 387.77C361.827 403.834 383.96 412.878 407.038 413.016C430.115 413.153 452.354 404.373 469.114 388.508C476.974 397.172 486.852 403.759 497.872 407.684C508.892 411.608 520.71 412.748 532.277 411.002C543.843 409.256 554.799 404.678 564.169 397.676C573.539 390.674 581.034 381.464 585.985 370.866C591.514 379.746 598.939 387.292 607.728 392.964C616.516 398.636 626.451 402.294 636.819 403.674C647.188 405.055 657.733 404.124 667.7 400.95C677.666 397.775 686.807 392.434 694.466 385.311C701.323 392.898 709.624 399.042 718.884 403.381C728.144 407.72 738.177 410.168 748.395 410.581C758.613 410.994 768.81 409.364 778.391 405.787C787.971 402.21 796.741 396.757 804.188 389.748C811.634 382.739 817.607 374.315 821.758 364.968C825.908 355.622 828.151 345.541 828.356 335.317C828.562 325.093 826.725 314.93 822.954 305.425C819.183 295.919 813.553 287.262 806.394 279.959H806.303Z" fill="#FFAA54"/>
<path d="M540.629 149.959C535.692 146.956 530.212 144.956 524.502 144.071C518.792 143.187 512.963 143.436 507.349 144.805C501.735 146.174 496.446 148.635 491.783 152.048C487.121 155.462 483.177 159.76 480.176 164.698M680.017 202.385C699.064 202.385 717.33 209.951 730.798 223.419C744.266 236.887 751.832 255.153 751.832 274.2M622.58 350.027C611.808 360.798 597.2 366.848 581.967 366.848C566.735 366.848 552.127 360.798 541.355 350.027" stroke="#E04122" stroke-width="13.3071" stroke-linecap="round" stroke-linejoin="round"/>
<path d="M796.746 271.569C799.217 258.625 798.798 245.294 795.52 232.53C792.242 219.766 786.185 207.884 777.781 197.732C769.378 187.581 758.836 179.411 746.909 173.806C734.982 168.201 721.964 165.3 708.786 165.31C704.896 165.314 701.01 165.572 697.153 166.081C690.304 145.801 677.707 127.948 660.896 114.697C644.084 101.447 623.783 93.3683 602.464 91.4461C581.144 89.5239 559.726 93.8406 540.815 103.871C521.905 113.901 506.318 129.212 495.951 147.941C482.472 143.35 468.092 142.041 454.006 144.121C439.919 146.201 426.532 151.61 414.954 159.899C403.376 168.189 393.943 179.12 387.435 191.786C380.928 204.451 377.535 218.486 377.538 232.725C377.538 234.585 377.538 236.422 377.72 238.258C365.356 242.863 354.163 250.142 344.94 259.576C335.718 269.01 328.694 280.365 324.37 292.83C320.047 305.294 318.531 318.56 319.932 331.679C321.332 344.797 325.614 357.444 332.47 368.715C339.327 379.986 348.59 389.603 359.596 396.878C370.602 404.152 383.08 408.905 396.137 410.796C409.193 412.687 422.507 411.67 435.124 407.817C447.742 403.964 459.353 397.371 469.126 388.508C476.985 397.172 486.864 403.759 497.883 407.683C508.903 411.608 520.722 412.748 532.288 411.002C543.855 409.256 554.81 404.678 564.181 397.676C573.551 390.674 581.045 381.464 585.997 370.866C591.526 379.746 598.95 387.292 607.739 392.964C616.527 398.636 626.462 402.293 636.83 403.674C647.199 405.055 657.744 404.124 667.711 400.949C677.677 397.775 686.818 392.434 694.478 385.311C701.716 393.223 710.529 399.533 720.351 403.836C730.173 408.138 740.787 410.339 751.51 410.295C762.233 410.251 772.828 407.964 782.615 403.581C792.401 399.199 801.163 392.817 808.336 384.846C815.509 376.875 820.935 367.492 824.265 357.299C827.596 347.106 828.757 336.329 827.674 325.661C826.591 314.992 823.288 304.669 817.977 295.353C812.666 286.037 805.465 277.936 796.836 271.569H796.746Z" stroke="#E04122" stroke-width="13.3071" stroke-linecap="round" stroke-linejoin="round"/>
<path d="M378.739 274.2C378.031 268.921 378.369 263.555 379.735 258.408C381.101 253.26 383.468 248.432 386.701 244.2C389.933 239.967 393.967 236.413 398.574 233.74C403.18 231.067 408.268 229.327 413.546 228.621" stroke="#E04122" stroke-width="13.3071" stroke-linecap="round" stroke-linejoin="round"/>
<path d="M480.82 670.051C425.9 681.207 376.512 693.611 375.083 702.318C371.841 722.069 389.596 728.894 389.596 728.894H486.988L480.185 749.144H646.558C688.531 723.271 678.599 666.105 636.104 646.15L480.82 670.051Z" fill="white"/>
<path d="M646.645 749.212C688.618 723.339 678.686 666.173 636.192 646.219L480.817 670.051C425.897 681.207 376.509 693.611 375.08 702.318C371.838 722.069 389.593 728.894 389.593 728.894H486.985L480.183 749.144M236.531 749.212H625.24" stroke="#45413C" stroke-width="13.3071" stroke-linecap="round" stroke-linejoin="round"/>
<path d="M526.112 683.429C525.937 683.066 525.862 682.663 525.894 682.261C525.926 681.86 526.065 681.474 526.296 681.143C526.527 680.813 526.842 680.55 527.208 680.382C527.574 680.214 527.979 680.146 528.38 680.187C543.359 681.178 558.399 679.645 572.87 675.651C573.264 675.542 573.681 675.541 574.076 675.649C574.471 675.757 574.83 675.97 575.113 676.265C575.397 676.56 575.595 676.927 575.688 677.326C575.78 677.725 575.762 678.141 575.636 678.531C573.21 686.082 566.566 701.683 552.348 702.976C538.131 704.268 529.423 690.277 526.112 683.429Z" fill="#E0E0E0"/>
<path d="M452.121 655.81C449.854 651.275 445.477 638.168 464.774 621.797C484.071 605.425 502.847 622.159 502.847 622.159C502.847 622.159 489.377 582.749 533.822 567.057C578.266 551.366 605.772 596.876 605.772 596.876C605.772 596.876 607.45 587.42 615.092 589.506C623.346 591.774 620.058 600.844 620.058 600.844C620.058 600.844 646.589 560.481 676.407 586.853C706.226 613.225 681.487 639.62 681.487 639.62C681.487 639.62 692.825 631.388 698.72 641.502C702.825 648.577 693.278 653.52 693.278 653.52C693.278 653.52 703.097 665.901 676.906 671.774C652.326 677.307 641.01 658.939 641.01 658.939C641.01 658.939 646.09 678.282 620.761 683.883C590.874 690.504 585.455 664.246 585.455 664.246C585.455 664.246 585.931 671.207 576.588 673.543C562.461 677.057 557.7 666.196 557.7 666.196C557.7 666.196 558.856 688.758 533.641 686.468C509.763 684.2 510.783 661.32 510.783 661.32C509.015 664.485 506.437 667.121 503.312 668.958C500.188 670.795 496.63 671.767 493.006 671.774C464.593 673.407 456.928 665.357 452.121 655.81Z" fill="#F0F0F0" stroke="#45413C" stroke-width="13.3071" stroke-linecap="round" stroke-linejoin="round"/>
<path d="M593.098 646.559C593.386 645.395 593.202 644.165 592.586 643.136C591.97 642.108 590.972 641.365 589.81 641.071L579.152 638.395C577.992 638.106 576.764 638.287 575.736 638.898C574.709 639.51 573.964 640.503 573.665 641.661L553.914 720.028L573.325 724.926L593.098 646.559Z" fill="#525252" stroke="#45413C" stroke-width="13.3071" stroke-linecap="round" stroke-linejoin="round"/>
<path d="M616.518 705.81C599.579 717.148 535.27 698.259 527.923 724.903C520.032 753.135 550.531 762.205 592.391 762.205C637.175 762.205 661.779 743.928 670.214 721.389" fill="white"/>
<path d="M616.518 705.81C599.579 717.148 535.27 698.259 527.923 724.903C520.032 753.135 550.531 762.205 592.391 762.205C637.175 762.205 661.779 743.928 670.214 721.389" stroke="#45413C" stroke-width="13.3071" stroke-linecap="round" stroke-linejoin="round"/>
<path d="M297.162 701.547C297.341 700.798 297.767 700.13 298.372 699.653C298.977 699.176 299.725 698.916 300.496 698.917H453.512V720.867H297.049C296.535 720.868 296.027 720.751 295.564 720.527C295.101 720.303 294.695 719.977 294.376 719.573C294.057 719.169 293.834 718.698 293.724 718.196C293.613 717.693 293.618 717.172 293.738 716.672L297.162 701.547Z" fill="#BDBEC0" stroke="#45413C" stroke-width="13.3071" stroke-linecap="round" stroke-linejoin="round"/>
<path d="M423.473 701.547C423.652 700.798 424.078 700.13 424.683 699.653C425.288 699.176 426.036 698.916 426.807 698.917H474.63C475.401 698.916 476.149 699.176 476.754 699.653C477.359 700.13 477.785 700.798 477.963 701.547L481.501 716.672C481.622 717.174 481.625 717.697 481.511 718.2C481.397 718.704 481.169 719.174 480.843 719.575C480.524 719.979 480.117 720.305 479.654 720.529C479.19 720.752 478.682 720.868 478.167 720.867H418.961L423.473 701.547Z" fill="#87898C" stroke="#45413C" stroke-width="13.3071" stroke-linecap="round" stroke-linejoin="round"/>
<path d="M291.446 675.062L212.875 693.679C211.969 693.88 211.028 693.864 210.13 693.632C209.232 693.4 208.401 692.958 207.706 692.343C207.012 691.728 206.473 690.957 206.133 690.094C205.794 689.23 205.664 688.298 205.754 687.375L208.022 663.293C208.146 662.069 208.651 660.915 209.464 659.992C210.277 659.069 211.359 658.423 212.557 658.146L283.532 641.32L291.446 675.062Z" fill="#BDBEC0" stroke="#45413C" stroke-width="13.3071" stroke-linecap="round" stroke-linejoin="round"/>
<path d="M446.437 569.733C447.152 572.752 446.639 575.931 445.01 578.572C443.382 581.213 440.771 583.098 437.752 583.815L387.48 595.719L331.062 358.236L381.335 346.308C384.353 345.6 387.53 346.115 390.169 347.743C392.808 349.371 394.695 351.978 395.416 354.993L446.437 569.733Z" fill="#87898C" stroke="#45413C" stroke-width="13.3071" stroke-linecap="round" stroke-linejoin="round"/>
<path d="M59.3123 422.651L353.425 352.909C353.425 352.909 364.81 350.209 367.509 361.594L418.427 576.321C418.427 576.321 421.127 587.706 409.742 590.405L115.629 660.148C115.629 660.148 104.244 662.847 101.544 651.462L50.627 436.736C50.627 436.736 47.9273 425.351 59.3123 422.651Z" fill="#F0F0F0"/>
<path d="M369.871 371.728L367.468 361.615C367.116 360.121 366.473 358.711 365.575 357.466C364.678 356.221 363.544 355.165 362.238 354.358C360.933 353.552 359.481 353.01 357.966 352.765C356.451 352.52 354.902 352.576 353.409 352.93L59.2812 422.658C56.2624 423.374 53.6517 425.26 52.0231 427.901C50.3944 430.541 49.8812 433.721 50.5963 436.74L53 446.83L369.871 371.728Z" fill="white"/>
<path d="M59.3123 422.651L353.425 352.909C353.425 352.909 364.81 350.209 367.509 361.594L418.427 576.321C418.427 576.321 421.127 587.706 409.742 590.405L115.629 660.148C115.629 660.148 104.244 662.847 101.544 651.462L50.627 436.736C50.627 436.736 47.9273 425.351 59.3123 422.651Z" stroke="#45413C" stroke-width="13.3071" stroke-linecap="round" stroke-linejoin="round"/>
<path d="M296.916 638.191L260.974 522.885C259.234 517.211 255.398 512.412 250.247 509.464C245.096 506.515 239.016 505.639 233.242 507.012L219.047 510.504C213.288 511.872 208.262 515.373 204.984 520.301C201.706 525.229 200.419 531.217 201.382 537.057L224.625 678.169C224.89 679.75 225.476 681.26 226.347 682.606C227.219 683.952 228.357 685.105 229.692 685.993C231.027 686.881 232.529 687.486 234.107 687.771C235.685 688.056 237.305 688.013 238.866 687.647L373.469 655.629C374.401 655.41 375.265 654.964 375.984 654.332C376.704 653.699 377.256 652.899 377.592 652.002C377.928 651.105 378.038 650.139 377.913 649.19C377.787 648.241 377.429 647.337 376.87 646.559L364.852 625.856C364.169 624.917 363.223 624.2 362.134 623.797C361.044 623.394 359.86 623.321 358.73 623.588L296.916 638.191Z" fill="#E0E0E0" stroke="#45413C" stroke-width="13.3071" stroke-linecap="round" stroke-linejoin="round"/>
<path d="M296.938 638.191L300.089 648.418M324.489 631.661L339.613 663.634" stroke="#45413C" stroke-width="13.3071" stroke-linecap="round" stroke-linejoin="round"/>
<path d="M229.445 598.985C229.445 603.634 231.292 608.092 234.579 611.379C237.866 614.667 242.325 616.513 246.974 616.513C251.623 616.513 256.081 614.667 259.368 611.379C262.655 608.092 264.502 603.634 264.502 598.985C264.502 596.683 264.049 594.404 263.168 592.277C262.287 590.15 260.996 588.218 259.368 586.591C257.74 584.963 255.808 583.672 253.682 582.791C251.555 581.91 249.276 581.457 246.974 581.457C244.672 581.457 242.393 581.91 240.266 582.791C238.139 583.672 236.207 584.963 234.579 586.591C232.952 588.218 231.66 590.15 230.78 592.277C229.899 594.404 229.445 596.683 229.445 598.985Z" fill="white" stroke="#45413C" stroke-width="13.3071" stroke-linecap="round" stroke-linejoin="round"/>
<path d="M122.168 632.84L116.59 609.325M140.74 628.441L135.161 604.926M159.311 624.041L153.755 600.527" stroke="#45413C" stroke-width="13.3071" stroke-linecap="round" stroke-linejoin="round"/>
<path d="M732.508 616.694C733.648 621.297 736.31 625.379 740.063 628.277C743.816 631.175 748.438 632.72 753.179 632.659C757.92 632.599 762.502 630.937 766.179 627.944C769.857 624.951 772.415 620.803 773.437 616.173C776.93 616.924 780.557 616.773 783.975 615.733C787.393 614.693 790.489 612.799 792.972 610.23C795.455 607.661 797.242 604.502 798.164 601.05C799.087 597.599 799.115 593.969 798.245 590.504C797.467 587.247 795.911 584.228 793.709 581.706C795.558 577.673 795.847 573.098 794.52 568.865C793.193 564.632 790.344 561.041 786.524 558.785C782.704 556.53 778.183 555.77 773.836 556.653C769.488 557.536 765.622 559.998 762.984 563.565C758.894 562.484 754.574 562.66 750.586 564.071C746.598 565.482 743.128 568.062 740.628 571.475C738.129 574.888 736.716 578.974 736.574 583.202C736.432 587.43 737.567 591.602 739.832 595.175C736.681 597.686 734.316 601.048 733.018 604.862C731.72 608.676 731.543 612.783 732.508 616.694Z" fill="#F0F0F0" stroke="#45413C" stroke-width="13.3071" stroke-linecap="round" stroke-linejoin="round"/>
<path d="M724.332 538.508C724.332 540.505 725.125 542.42 726.537 543.832C727.949 545.244 729.864 546.037 731.86 546.037C733.857 546.037 735.772 545.244 737.184 543.832C738.596 542.42 739.389 540.505 739.389 538.508C739.389 536.512 738.596 534.597 737.184 533.185C735.772 531.773 733.857 530.98 731.86 530.98C729.864 530.98 727.949 531.773 726.537 533.185C725.125 534.597 724.332 536.512 724.332 538.508Z" fill="#F0F0F0" stroke="#45413C" stroke-width="13.3071" stroke-linecap="round" stroke-linejoin="round"/>
<path d="M473.092 506.853C436.811 527.556 707.084 527.556 679.669 506.853" stroke="#E04122" stroke-width="13.3071" stroke-linecap="round" stroke-linejoin="round"/>
<path d="M478.425 434.289C478.425 434.289 513.964 403.619 559.261 422.436C604.557 441.253 589.93 487.248 611.522 494.156C623.676 498.082 642.305 501.139 647.665 509.387C653.893 519.031 603.274 586.316 552.089 549.022C444.509 552.136 603.953 789.453 291.632 789.453C177.824 789.453 107.52 758.425 107.52 699.482C107.52 662.792 140.001 633.595 217.968 623.101C410.064 597.282 404.327 676.721 478.425 434.289Z" fill="#FFE500"/>
<path d="M265.301 618.382C261.627 626.516 255.168 633.069 247.088 636.86C162.156 640.634 175.16 708.995 185.371 708.995C195.582 708.995 201.3 672.946 222.703 671.059C232.027 670.247 241.35 674.984 244.163 679.703C233.65 691.82 231.083 723.905 241.596 727.68C252.108 731.454 266.131 695.5 295.971 699.973C305.596 705.635 314.108 706.428 330.604 704.05C347.099 701.672 359.99 675.928 365.086 654.355C366.558 654.657 415.913 660.565 430.313 608.172C490.822 581.012 529.778 514.37 514.358 441.008C512.8 433.63 510.667 426.386 507.978 419.341C497.253 422.321 487.225 427.402 478.479 434.289C411.024 654.884 409.666 609.021 265.301 618.382Z" fill="#EBCB00"/>
<path d="M478.425 434.289C478.425 434.289 513.964 403.619 559.261 422.436C604.557 441.253 589.93 487.248 611.522 494.156C623.676 498.082 642.305 501.139 647.665 509.387C653.893 519.031 603.274 586.316 552.089 549.022C444.509 552.136 603.953 789.453 291.632 789.453C177.824 789.453 107.52 758.425 107.52 699.482C107.52 662.792 140.001 633.595 217.968 623.101C410.064 597.282 404.327 676.721 478.425 434.289Z" stroke="#45413C" stroke-width="11.0758" stroke-linecap="round" stroke-linejoin="round"/>
<path d="M647.665 509.443C642.305 501.196 623.677 498.119 611.541 494.212C606.69 492.646 603.671 489.117 601.387 484.36C588.515 494.477 597.763 495.364 597.763 514.464C597.763 524.731 555.449 545.19 559.563 553.759C608.068 579.937 653.592 518.616 647.665 509.443Z" fill="#FF8A14" stroke="#45413C" stroke-width="11.0758" stroke-linecap="round" stroke-linejoin="round"/>
<path d="M559.266 456.503L567.514 470.017C563.825 467.398 559.269 466.303 554.793 466.959" fill="#FFE500"/>
<path d="M559.266 456.503L567.514 470.017C563.825 467.398 559.269 466.303 554.793 466.959" stroke="#45413C" stroke-width="11.0758" stroke-linecap="round" stroke-linejoin="round"/>
<path d="M413.06 589.902C398.659 642.295 349.305 636.388 347.832 636.086C342.793 657.658 332.601 680.25 312.161 689.951C299.761 689.781 288.399 687.516 278.774 681.779C248.84 677.306 234.911 713.336 224.399 709.485C213.886 705.635 216.453 673.474 226.966 661.452C224.153 656.734 214.811 652.015 205.506 652.808C184.103 654.695 178.404 690.725 168.174 690.725C157.945 690.725 144.903 622.346 229.891 618.59C235.063 616.125 239.615 612.528 243.209 608.065C246.803 603.602 249.347 598.388 250.652 592.808C250.652 592.808 209.13 573.746 227.871 534.678C212.644 510.882 204.585 483.206 204.657 454.955C204.657 362.757 289.003 290.264 384.749 310.383C412.36 316.236 437.681 329.973 457.64 349.929C477.6 369.885 491.341 395.203 497.199 422.813C512.524 496.175 473.569 562.818 413.06 589.902Z" fill="white"/>
<path d="M497.076 422.814C495.248 414.06 492.6 405.497 489.168 397.24C490.991 417.695 488.536 438.306 481.959 457.761C475.381 477.215 464.826 495.088 450.964 510.24C437.102 525.393 420.238 537.493 401.444 545.772C382.65 554.051 362.339 558.326 341.802 558.326C312.524 558.326 283.905 549.64 259.564 533.37C235.224 517.099 216.257 493.974 205.062 466.921C208.091 503.949 224.939 538.482 252.259 563.659C279.579 588.835 315.371 602.812 352.522 602.812C444.72 602.887 517.214 518.56 497.076 422.814Z" fill="#F0F0F0"/>
<path d="M350.559 621.27C346.992 646.353 337.347 678.042 312.151 690.027C299.751 689.857 288.389 687.592 278.763 681.836C248.849 677.4 234.882 713.411 224.388 709.561C213.895 705.711 216.424 673.55 226.955 661.509C224.143 656.809 214.801 652.072 205.496 652.883C184.074 654.771 178.393 690.801 168.164 690.801C157.934 690.801 144.874 622.421 229.862 618.665C229.862 618.665 251.17 610.361 252.227 582.353M352.522 602.887C444.719 602.887 517.213 518.56 497.075 422.813C491.225 395.203 477.489 369.883 457.532 349.926C437.575 329.969 412.255 316.233 384.645 310.383C288.917 290.245 204.647 362.758 204.647 454.955C204.652 494.191 220.241 531.818 247.987 559.56C275.732 587.302 313.361 602.887 352.597 602.887H352.522Z" stroke="#45413C" stroke-width="11.0758" stroke-linecap="round" stroke-linejoin="round"/>
<path d="M226.959 661.509C228.054 659.772 236.396 642.824 267.481 644.522M347.788 636.18C347.788 636.18 398.445 643.163 413.053 589.977M250.721 592.865C250.721 592.865 209.199 573.822 227.941 534.772M312.23 690.027C312.23 690.027 364.831 692.197 395.52 674.022" stroke="#45413C" stroke-width="11.0758" stroke-linecap="round" stroke-linejoin="round"/>
<path d="M301.596 393.046L349.503 399.608L347.223 416.251L299.316 409.689L301.596 393.046ZM510.411 452.124C510.236 453.38 509.762 454.575 509.03 455.609C508.297 456.644 507.327 457.488 506.202 458.07C505.076 458.653 503.827 458.956 502.559 458.956C501.291 458.956 500.042 458.652 498.917 458.069L443.692 429.476L445.957 412.848L506.24 444.046C507.68 444.802 508.852 445.983 509.598 447.428C510.344 448.873 510.628 450.513 510.411 452.124Z" fill="#87898C" stroke="#45413C" stroke-width="11.0758" stroke-linecap="round" stroke-linejoin="round"/>
<path d="M389.815 477.793C334.062 470.243 330.023 415.226 339.366 403.562C354.106 385.085 450.494 397.712 457.251 419.718C463.687 440.8 443.888 485.191 389.815 477.793Z" fill="#525252"/>
<path d="M376.407 474.773L443.503 407.677C439.016 405.592 434.379 403.844 429.631 402.449L363.196 468.79C367.354 471.287 371.787 473.295 376.407 474.773ZM349.569 457.352L409.229 397.674C399.919 396.063 390.511 395.086 381.069 394.748L338.434 437.384C340.787 444.711 344.572 451.499 349.569 457.352Z" fill="#656769"/>
<path d="M244.293 457.786C188.559 450.237 184.52 395.239 193.843 383.575C208.603 365.098 304.971 377.724 311.728 399.731C318.108 420.794 298.29 465.336 244.293 457.786Z" fill="#525252"/>
<path d="M216.153 447.915C220.173 450.496 224.48 452.598 228.987 454.181L296.233 386.935C291.66 384.942 286.956 383.265 282.154 381.914L216.153 447.915ZM202.922 436.119L261.638 377.385C252.23 375.846 242.726 374.963 233.195 374.742L192.277 415.66C194.429 423.12 198.048 430.076 202.922 436.119Z" fill="#656769"/>
<path d="M244.293 457.786C188.559 450.237 184.52 395.239 193.843 383.575C208.603 365.098 304.971 377.724 311.728 399.731C318.108 420.794 298.29 465.336 244.293 457.786ZM389.827 477.792C334.075 470.243 330.036 415.226 339.378 403.562C354.119 385.085 450.506 397.711 457.263 419.718C463.699 440.8 443.9 485.191 389.827 477.792Z" stroke="#45413C" stroke-width="11.0758" stroke-linecap="round" stroke-linejoin="round"/>
<path d="M328.002 479.925C327.31 483.158 325.431 486.015 322.736 487.93C320.04 489.845 316.725 490.68 313.444 490.27C310.163 489.86 307.155 488.235 305.014 485.715C302.874 483.195 301.755 479.964 301.881 476.66L303.523 463.599C307.095 466.609 311.461 468.522 316.095 469.108C320.73 469.694 325.435 468.928 329.644 466.902L328.002 479.925Z" fill="#FFB0CA" stroke="#45413C" stroke-width="11.0758" stroke-linecap="round" stroke-linejoin="round"/>
<path d="M403.304 804.476C401.976 804.488 400.689 804.014 399.687 803.142C398.685 802.27 398.036 801.062 397.865 799.745C397.693 798.427 398.009 797.093 398.754 795.993C399.499 794.893 400.62 794.104 401.907 793.775C445.316 782.319 475.854 762.898 495.351 734.38C495.755 733.791 496.271 733.288 496.869 732.898C497.468 732.509 498.137 732.242 498.839 732.111C499.541 731.981 500.261 731.99 500.96 732.137C501.658 732.285 502.321 732.57 502.909 732.974C503.498 733.378 504.001 733.894 504.391 734.492C504.78 735.091 505.047 735.76 505.178 736.462C505.309 737.164 505.3 737.884 505.152 738.583C505.004 739.281 504.72 739.944 504.316 740.532C483.29 771.278 450.695 792.133 404.7 804.288C404.246 804.414 403.776 804.478 403.304 804.476ZM95.5499 750.8C94.5711 750.799 93.6108 750.533 92.7703 750.032C91.9298 749.53 91.2404 748.811 90.7748 747.95C84.6015 736.51 81.4264 723.692 81.5456 710.693C81.5456 709.252 82.1183 707.869 83.1377 706.85C84.157 705.83 85.5396 705.258 86.9812 705.258C88.4228 705.258 89.8054 705.83 90.8248 706.85C91.8442 707.869 92.4168 709.252 92.4168 710.693C92.2961 721.885 95.017 732.925 100.325 742.778C100.771 743.607 100.995 744.538 100.976 745.479C100.956 746.42 100.693 747.34 100.212 748.149C99.7313 748.959 99.0493 749.63 98.2323 750.098C97.4154 750.566 96.4912 750.814 95.5499 750.819V750.8ZM232.648 813.706H232.082C208.891 811.513 185.988 806.927 163.74 800.022C163.061 799.802 162.432 799.449 161.889 798.986C161.346 798.522 160.9 797.956 160.576 797.32C159.921 796.035 159.803 794.543 160.249 793.171C160.694 791.8 161.666 790.661 162.951 790.006C164.236 789.352 165.728 789.234 167.1 789.679C188.605 796.348 210.742 800.775 233.158 802.891C234.529 803.052 235.787 803.73 236.677 804.785C237.567 805.84 238.022 807.194 237.95 808.573C237.878 809.952 237.284 811.251 236.289 812.208C235.294 813.165 233.972 813.707 232.591 813.725L232.648 813.706ZM297.932 836.203C242.632 836.203 196.014 830.296 159.079 818.632C157.727 818.178 156.609 817.211 155.963 815.94C155.318 814.669 155.198 813.196 155.629 811.837C156.059 810.478 157.006 809.343 158.266 808.676C159.525 808.009 160.997 807.863 162.363 808.27C198.223 819.594 243.746 825.256 297.932 825.256C311.899 825.256 325.393 824.86 338.095 824.067C339.534 823.98 340.949 824.467 342.029 825.423C343.108 826.379 343.764 827.724 343.852 829.163C343.939 830.602 343.452 832.017 342.496 833.097C341.54 834.176 340.195 834.832 338.756 834.92C325.846 835.788 312.106 836.203 297.932 836.203ZM413.061 824.407C411.731 824.405 410.448 823.916 409.455 823.031C408.461 822.147 407.827 820.929 407.671 819.608C407.515 818.287 407.849 816.955 408.609 815.864C409.37 814.773 410.504 813.998 411.797 813.687C447.147 805.099 475.797 791.435 496.917 773.09C497.456 772.621 498.082 772.263 498.759 772.037C499.437 771.81 500.152 771.72 500.865 771.77C501.577 771.819 502.273 772.009 502.912 772.328C503.551 772.647 504.121 773.088 504.589 773.627C505.058 774.167 505.415 774.793 505.642 775.47C505.868 776.147 505.959 776.862 505.909 777.575C505.859 778.287 505.669 778.983 505.351 779.622C505.032 780.261 504.59 780.831 504.051 781.3C481.611 800.796 451.432 815.272 414.364 824.256C413.936 824.353 413.5 824.403 413.061 824.407ZM110.517 794.889C109.378 794.9 108.265 794.542 107.346 793.869C90.3596 781.677 78.7146 766.974 72.6184 750.139C72.3705 749.467 72.2574 748.754 72.2854 748.038C72.3135 747.323 72.4822 746.62 72.7819 745.97C73.0816 745.319 73.5064 744.735 74.0321 744.249C74.5578 743.763 75.1741 743.385 75.8458 743.137C76.5174 742.889 77.2314 742.776 77.9468 742.804C78.6622 742.832 79.365 743.001 80.0152 743.301C80.6654 743.6 81.2503 744.025 81.7363 744.551C82.2223 745.076 82.6 745.693 82.8479 746.364C88.1891 761.086 98.5696 774.09 113.687 784.98C114.627 785.647 115.329 786.596 115.692 787.689C116.055 788.782 116.06 789.963 115.707 791.059C115.353 792.155 114.659 793.11 113.726 793.785C112.793 794.46 111.669 794.821 110.517 794.813V794.889Z" fill="#80DDFF"/>
<path d="M544.387 397.108C555.212 398.124 565.865 400.502 576.094 404.185M561.656 380.103C575.805 382.972 589.592 387.403 602.763 393.314" stroke="#45413C" stroke-width="11.0758" stroke-linecap="round" stroke-linejoin="round"/>
<path d="M159.358 706.032C165.455 716.186 209.26 742.458 255.35 741.363C286.095 740.627 283.358 771.448 243.139 767.692C202.919 763.936 140.711 745.723 138.597 718.432C136.484 691.14 153.224 695.878 159.358 706.032ZM388.22 731.341C410.246 727.755 424.08 718.356 432.724 708.372C441.369 698.388 461.62 719.885 423.155 740.117C384.691 760.35 373.423 733.738 388.22 731.341Z" fill="#FFF48C"/>
</svg>
