<svg width="81" height="32" viewBox="0 0 81 32" fill="none" xmlns="http://www.w3.org/2000/svg">
<path d="M33.8965 21.1633V17.9109H34.9637L42.8404 11.9144H45.8387L39.334 17.047L38.8004 17.4281L33.8965 21.1633ZM32.7785 25V6.93423H35.0399V25H32.7785ZM43.5265 25L37.8603 17.1486L39.4102 15.6495L46.169 25H43.5265ZM48.2869 25V6.93423H50.5483V25H48.2869ZM53.6962 25V11.9144H55.9576V25H53.6962ZM54.8396 9.85626C54.4162 9.85626 54.052 9.71228 53.747 9.42431C53.4421 9.1194 53.2897 8.7552 53.2897 8.33172C53.2897 7.8913 53.4421 7.53557 53.747 7.26454C54.052 6.97658 54.4162 6.83259 54.8396 6.83259C55.2801 6.83259 55.6443 6.97658 55.9322 7.26454C56.2371 7.53557 56.3896 7.8913 56.3896 8.33172C56.3896 8.7552 56.2371 9.1194 55.9322 9.42431C55.6443 9.71228 55.2801 9.85626 54.8396 9.85626ZM65.7627 25.3049C64.3229 25.3049 63.0524 25.0339 61.9514 24.4918C60.8673 23.9328 60.0203 23.1452 59.4105 22.1288C58.8007 21.0955 58.4958 19.8674 58.4958 18.4445C58.4958 17.0216 58.8007 15.802 59.4105 14.7856C60.0372 13.7523 60.8927 12.9646 61.9768 12.4226C63.0609 11.8805 64.3144 11.6095 65.7373 11.6095C67.3465 11.6095 68.7102 11.9229 69.8282 12.5496C70.9462 13.1594 71.7677 14.0826 72.2928 15.3192L70.2601 16.0815C69.8366 15.2176 69.2438 14.5739 68.4815 14.1504C67.7362 13.7269 66.813 13.5152 65.7119 13.5152C64.7802 13.5152 63.9417 13.7015 63.1964 14.0742C62.4511 14.4299 61.8667 14.9719 61.4432 15.7003C61.0367 16.4287 60.8334 17.3434 60.8334 18.4445C60.8334 19.5456 61.0451 20.4603 61.4686 21.1887C61.8921 21.9171 62.468 22.4676 63.1964 22.8403C63.9417 23.2129 64.7887 23.3993 65.7373 23.3993C66.8384 23.3993 67.7616 23.1875 68.5069 22.764C69.2692 22.3405 69.862 21.6968 70.2855 20.8329L72.3182 21.5952C71.7931 22.7979 70.9716 23.7211 69.8536 24.3648C68.7356 24.9915 67.372 25.3049 65.7627 25.3049Z" fill="black"/>
<path d="M13.128 4.94873C13.2552 4.44235 13.9961 4.47311 14.0797 4.98824L15.2712 12.3359C15.3218 12.6479 15.6599 12.8269 15.952 12.6963L21.5311 10.2018C21.9906 9.99637 22.4242 10.5315 22.119 10.9274L18.3233 15.8501C18.1593 16.0628 18.2037 16.3665 18.4218 16.525L23.4894 20.2071C23.8919 20.4995 23.6376 21.128 23.1413 21.0675L17.7491 20.41C17.4194 20.3698 17.1468 20.6601 17.2132 20.9808L18.4303 26.8624C18.5311 27.3496 17.9046 27.6465 17.581 27.2649L13.6298 22.6042C13.4313 22.37 13.0641 22.3761 12.8736 22.6166L8.54203 28.087C8.22202 28.4911 7.56822 28.1842 7.68528 27.6848L9.2595 20.9687C9.33368 20.6523 9.07322 20.3564 8.74468 20.384L0.528399 21.0738C-0.00811459 21.1188 -0.209789 20.3986 0.274288 20.1663L7.88411 16.5144C8.17418 16.3752 8.24856 16.0013 8.03327 15.7646L0.301762 7.26195C-0.0755487 6.84701 0.449038 6.23907 0.925511 6.53909L10.5453 12.5964C10.8256 12.7728 11.1989 12.6261 11.2788 12.308L13.128 4.94873Z" fill="black"/>
</svg>
