<svg width="870" height="688" viewBox="0 0 870 688" fill="none" xmlns="http://www.w3.org/2000/svg">
<path d="M524.879 245.843C524.808 245.787 524.75 245.716 524.71 245.635C524.669 245.554 524.647 245.466 524.645 245.375C524.65 245.288 524.674 245.204 524.714 245.127C524.754 245.05 524.81 244.982 524.879 244.929L736.968 73.9351C737.565 73.4776 738.268 73.1792 739.011 73.0676C739.755 72.9561 740.515 73.0351 741.22 73.2973C741.913 73.5208 742.52 73.9534 742.958 74.5358C743.396 75.1182 743.643 75.8218 743.665 76.5501C743.665 83.8422 743.665 90.7517 743.516 97.6612C743.516 98.7029 741.879 99.9147 740.688 100.723C723.51 112.288 706.268 123.747 689.112 135.313C673.443 145.943 657.923 156.572 642.34 167.096C603.533 193.203 564.72 219.296 525.899 245.375C525.573 245.559 525.231 245.716 524.879 245.843ZM743.75 594.782C743.731 595.479 743.507 596.156 743.106 596.727C742.706 597.298 742.146 597.738 741.496 597.992C740.813 598.29 740.067 598.413 739.324 598.35C738.582 598.287 737.867 598.04 737.244 597.631L504.044 442.136C503.942 442.078 503.854 441.999 503.786 441.904C503.717 441.81 503.669 441.702 503.645 441.587C503.621 441.473 503.621 441.354 503.646 441.24C503.671 441.126 503.719 441.018 503.789 440.924C507.658 443.05 511.57 445.07 515.397 447.302C550.22 466.946 585.016 486.633 619.783 506.362C640.256 517.928 660.878 529.323 681.437 540.803L740.539 573.799C741.604 574.265 742.497 575.053 743.092 576.051C743.686 577.05 743.954 578.21 743.856 579.369C743.686 584.407 743.707 589.446 743.75 594.782ZM24.2285 686.37C23.4685 686.384 22.7185 686.195 22.0566 685.821C21.3948 685.447 20.8453 684.902 20.4654 684.244C20.1453 683.602 20.051 682.871 20.1975 682.169C20.3441 681.467 20.7231 680.835 21.2733 680.375L247.075 476.938C247.263 476.781 247.5 476.695 247.745 476.695C247.99 476.695 248.227 476.781 248.414 476.938C242.951 482.551 237.508 488.185 232.002 493.798C216.213 509.913 200.395 526.028 184.55 542.143C156.401 570.844 128.253 599.53 100.105 628.203C83.3311 645.211 66.0892 662.006 50.0167 679.546C47.9081 682.177 45.1505 684.214 42.0153 685.455C38.8801 686.697 35.4756 687.1 32.1371 686.625C29.5647 686.37 26.971 686.327 24.2285 686.37ZM190.885 459.271C190.99 459.362 191.07 459.478 191.118 459.608C191.166 459.738 191.181 459.878 191.161 460.015C191.136 460.156 191.082 460.289 191.001 460.406C190.92 460.524 190.816 460.622 190.694 460.696L6.64648 574.394C6.01304 574.782 5.29383 575.008 4.55232 575.053C3.81082 575.097 3.06974 574.959 2.39444 574.649C1.77388 574.386 1.24288 573.949 0.865568 573.391C0.488256 572.832 0.280858 572.176 0.268495 571.503C0.268495 566.379 0.268511 561.532 0.417331 556.621C0.417331 555.621 2.16063 554.367 3.41497 553.751C37.5584 536.53 71.7302 519.338 105.93 502.174C133.186 488.44 160.335 474.536 187.547 460.717C188.632 460.271 189.78 459.782 190.885 459.271ZM690.515 680.566C691.035 681.039 691.387 681.668 691.517 682.358C691.648 683.049 691.55 683.763 691.238 684.393C690.861 685.045 690.318 685.585 689.665 685.959C689.011 686.332 688.27 686.526 687.517 686.519C682.585 686.519 677.993 686.519 673.422 686.412C671.956 686.283 670.584 685.634 669.553 684.584C642.354 654.097 615.212 623.575 588.127 593.018L529.365 526.814C528.876 526.261 528.429 525.666 527.961 525.05C527.883 524.943 527.828 524.821 527.8 524.691C527.771 524.562 527.77 524.428 527.796 524.298C527.822 524.168 527.875 524.045 527.951 523.936C528.027 523.828 528.124 523.736 528.238 523.668L690.515 680.566ZM0.247176 127.68C0.266177 126.983 0.492838 126.307 0.898057 125.739C1.30328 125.171 1.86869 124.736 2.52203 124.491C3.208 124.202 3.9544 124.086 4.69573 124.153C5.43705 124.22 6.15064 124.467 6.774 124.874L171.411 237.105C171.572 237.209 171.684 237.373 171.724 237.561C171.764 237.748 171.728 237.944 171.624 238.104C167.605 235.978 163.545 233.98 159.569 231.726C126.971 213.868 94.3224 195.988 61.6246 178.088C41.782 167.202 22.0103 156.275 2.3094 145.305C1.78608 144.984 1.3384 144.554 0.997098 144.044C0.655799 143.534 0.429047 142.956 0.332293 142.35C0.225993 137.587 0.225916 132.783 0.247176 127.68ZM707.289 36.5176C708.048 36.4932 708.799 36.6787 709.459 37.0539C710.119 37.429 710.663 37.9791 711.031 38.6436C711.338 39.2863 711.428 40.0118 711.286 40.7102C711.144 41.4085 710.778 42.0415 710.244 42.5129L494.519 241.059C494.308 241.228 494.046 241.321 493.775 241.321C493.505 241.321 493.242 241.228 493.031 241.059L505.787 228.303C522.306 211.87 538.889 195.457 555.365 178.98C581.543 152.817 607.679 126.596 633.772 100.319C649.207 84.884 664.79 69.5555 680.246 54.1634C685.327 49.1248 690.111 43.8736 695.32 38.9625C696.963 37.5528 699.009 36.6972 701.166 36.5176H707.289ZM743.665 659.434C743.623 660.16 743.364 660.857 742.92 661.434C742.476 662.01 741.869 662.439 741.177 662.665C740.449 662.938 739.662 663.016 738.895 662.894C738.127 662.771 737.404 662.45 736.798 661.964L518.054 478.724C517.968 478.646 517.899 478.551 517.851 478.445C517.804 478.339 517.779 478.224 517.779 478.108C517.779 477.991 517.804 477.876 517.851 477.77C517.899 477.664 517.968 477.569 518.054 477.491C523.072 481.318 528.089 485.102 533.064 488.95C555.833 506.511 578.539 524.157 601.351 541.675C627.522 561.766 653.841 581.707 680.012 601.798C699.933 617.211 719.768 632.71 739.838 648.038C742.665 650.164 744.302 652.29 743.941 655.819C743.728 657.031 743.686 658.264 743.665 659.434ZM333.39 686.242C332.829 686.251 332.271 686.149 331.749 685.941C331.227 685.733 330.752 685.423 330.35 685.031C329.981 684.675 329.699 684.238 329.53 683.755C329.36 683.271 329.306 682.754 329.372 682.246C338.316 620.025 347.245 557.995 356.16 496.157C356.206 495.92 356.343 495.71 356.541 495.571C356.74 495.432 356.984 495.376 357.223 495.413C353.793 557.776 350.377 620.259 346.976 682.862C346.853 683.835 346.366 684.726 345.612 685.353C344.858 685.981 343.894 686.299 342.915 686.242H333.39ZM258.194 207.83C257.982 207.952 257.736 208.004 257.492 207.979C257.254 207.941 257.036 207.82 256.876 207.639L128.997 42.1515C128.586 41.6446 128.343 41.0224 128.301 40.371C128.259 39.7197 128.421 39.0714 128.764 38.516C129.141 37.9184 129.665 37.4282 130.287 37.093C130.909 36.7578 131.608 36.5889 132.314 36.6026C135.928 36.6026 139.308 36.6026 142.668 36.7727C143.922 36.7727 145.431 38.3885 146.218 39.579C157.231 56.0555 168.073 72.6169 179.065 89.1147C193.904 111.395 208.786 133.647 223.71 155.871L257.726 206.491C257.938 206.916 258.095 207.366 258.194 207.83ZM493.627 39.2601C493.938 38.4971 494.476 37.8479 495.168 37.3994C495.86 36.951 496.672 36.7249 497.496 36.7515H507.424C508.072 36.7422 508.713 36.881 509.299 37.1574C509.885 37.4337 510.4 37.8402 510.805 38.3459C511.172 38.8126 511.4 39.3729 511.464 39.9631C511.528 40.5532 511.425 41.1495 511.166 41.6838L441.476 188.824C441.331 189.093 441.096 189.302 440.812 189.415C440.528 189.528 440.214 189.537 439.924 189.44C457.811 139.437 475.712 89.3769 493.627 39.2601ZM58.0317 42.4704C57.5194 41.9914 57.1793 41.357 57.064 40.6652C56.9487 39.9734 57.0646 39.2628 57.3939 38.6436C57.7581 37.9857 58.2953 37.4398 58.9473 37.0651C59.5993 36.6904 60.3413 36.501 61.0931 36.5176C63.1128 36.5176 65.0263 36.5176 66.9609 36.709C68.6815 37.0601 70.2368 37.9723 71.383 39.3027C81.5452 50.3366 91.5374 61.4981 101.657 72.5532C122.917 95.8541 144.227 119.148 165.586 142.435C181.176 159.528 196.71 176.663 212.188 193.841C212.241 193.887 212.285 193.944 212.314 194.008C212.344 194.073 212.359 194.142 212.359 194.213C212.359 194.284 212.344 194.354 212.314 194.418C212.285 194.482 212.241 194.539 212.188 194.585C212.067 194.682 211.917 194.734 211.762 194.734C211.608 194.734 211.458 194.682 211.337 194.585L58.0317 42.4704ZM304.009 518.331C304.093 518.346 304.173 518.378 304.243 518.426C304.313 518.473 304.373 518.535 304.417 518.608C304.461 518.68 304.49 518.762 304.5 518.846C304.51 518.93 304.502 519.016 304.477 519.097C302.946 523.71 301.543 528.366 299.864 532.937C295.293 545.353 290.615 557.726 285.96 570.121C281.091 583.025 276.137 595.909 271.311 608.814C263.913 628.571 256.564 648.329 249.265 668.086C247.394 673.125 245.608 678.164 243.674 683.202C243.571 683.771 243.353 684.312 243.034 684.794C242.715 685.276 242.301 685.687 241.817 686.004C241.334 686.32 240.791 686.534 240.222 686.634C239.653 686.733 239.07 686.716 238.507 686.583C236.798 686.411 235.08 686.347 233.362 686.391C232.716 686.411 232.074 686.284 231.485 686.019C230.895 685.754 230.374 685.357 229.961 684.861C229.586 684.399 229.347 683.842 229.272 683.252C229.197 682.662 229.288 682.063 229.536 681.523C254.516 626.821 279.263 572.566 304.009 518.331ZM562.7 36.6664C563.384 36.6569 564.059 36.8124 564.67 37.1195C565.281 37.4267 565.808 37.8765 566.208 38.431C566.567 38.9573 566.759 39.5797 566.759 40.2168C566.759 40.854 566.567 41.4764 566.208 42.0026L479.914 175.239C479.785 175.418 479.598 175.547 479.384 175.601C479.17 175.656 478.943 175.633 478.745 175.536L495.03 145.22L531.172 78.2934C538.166 65.3886 545.203 52.5051 552.134 39.5578C552.541 38.5257 553.286 37.6626 554.248 37.1101C555.21 36.5576 556.331 36.3487 557.428 36.5176C559.128 36.6664 560.872 36.6877 562.7 36.6664ZM743.643 433.568C743.635 434.127 743.49 434.676 743.219 435.166C742.948 435.655 742.561 436.07 742.091 436.374C741.58 436.713 741.007 436.946 740.404 437.059C739.802 437.172 739.183 437.163 738.584 437.033L576.902 401.274C576.769 401.25 576.644 401.198 576.532 401.122C576.421 401.047 576.327 400.949 576.255 400.835C576.183 400.722 576.135 400.594 576.115 400.461C576.095 400.328 576.102 400.193 576.136 400.062L589.998 402.188C601.967 404.059 613.937 405.909 625.906 407.822C637.28 409.651 648.654 411.564 660.049 413.371C674.421 415.667 688.835 417.815 703.186 420.132C714.305 421.918 725.402 423.916 736.5 425.787C738.754 426.17 741.028 426.425 743.282 426.786C743.473 426.786 743.686 427.19 743.686 427.403C743.643 429.486 743.643 431.442 743.643 433.568ZM0.183457 190.886C0.322637 190.348 0.588135 189.852 0.957922 189.438C1.32771 189.024 1.79104 188.704 2.3094 188.505C2.85613 188.284 3.44277 188.18 4.03203 188.198C4.62128 188.216 5.20032 188.357 5.73231 188.611L180.064 272.269C180.195 272.324 180.314 272.405 180.413 272.508C180.512 272.611 180.588 272.733 180.638 272.866C180.688 273 180.71 273.142 180.703 273.284C180.695 273.426 180.659 273.566 180.595 273.693C176.343 271.971 172.261 270.292 168.137 268.506C136.559 254.857 104.981 241.201 73.4026 227.538C50.8671 217.829 28.2891 208.184 5.66851 198.603C1.75668 196.924 -0.70946 195.032 0.183457 190.886ZM575.69 453.85C575.846 453.605 576.079 453.42 576.353 453.324C576.627 453.227 576.925 453.226 577.199 453.319C578.666 453.808 580.133 454.275 581.451 454.871L680.055 497.39C700.564 506.206 721.037 515.036 741.475 523.88C741.988 524.111 742.444 524.451 742.812 524.877C743.179 525.304 743.448 525.805 743.601 526.346C743.701 527.201 743.757 528.059 743.771 528.919C743.766 529.57 743.578 530.206 743.228 530.755C742.879 531.304 742.382 531.743 741.794 532.023C741.167 532.337 740.475 532.501 739.774 532.501C739.073 532.501 738.381 532.337 737.754 532.023L575.69 453.85ZM164.459 342.788C164.428 342.957 164.334 343.108 164.196 343.211C164.058 343.313 163.886 343.36 163.715 343.341L4.41418 336.283C3.43806 336.296 2.49369 335.936 1.77439 335.276C1.0551 334.616 0.61526 333.706 0.544848 332.732V329.735C0.553886 329.215 0.68344 328.704 0.923231 328.243C1.16302 327.782 1.50653 327.383 1.92677 327.077C2.37057 326.729 2.87915 326.473 3.42299 326.323C3.96684 326.173 4.53505 326.133 5.09449 326.205L164.459 342.788ZM737.839 146.58C738.421 146.231 739.077 146.025 739.754 145.98C740.431 145.936 741.108 146.054 741.73 146.325C742.332 146.553 742.855 146.952 743.232 147.474C743.61 147.995 743.827 148.616 743.856 149.259C743.856 157.763 743.856 157.763 735.352 162.015C708.947 175.239 682.556 188.484 656.18 201.75C655.761 201.946 655.289 202.001 654.837 201.905C654.384 201.809 653.975 201.568 653.671 201.218C653.559 201.048 653.483 200.857 653.447 200.656C653.411 200.455 653.416 200.25 653.462 200.051C653.507 199.852 653.593 199.665 653.713 199.5C653.833 199.335 653.985 199.197 654.16 199.092L737.839 146.58ZM738.775 298.653C739.356 298.546 739.953 298.557 740.53 298.685C741.107 298.812 741.652 299.055 742.134 299.397C742.584 299.701 742.954 300.109 743.213 300.586C743.472 301.063 743.613 301.596 743.622 302.139V302.543C743.569 303.447 743.191 304.302 742.559 304.951C741.926 305.599 741.081 305.997 740.178 306.072L565.974 329.458C565.741 329.499 565.502 329.452 565.301 329.326C565.101 329.2 564.955 329.005 564.89 328.778L738.775 298.653ZM301.607 40.8972C301.492 40.3926 301.502 39.8676 301.635 39.3676C301.768 38.8675 302.021 38.4074 302.372 38.027C302.752 37.611 303.211 37.2746 303.722 37.0374C304.233 36.8002 304.786 36.6669 305.349 36.6452H305.986C308.814 36.3688 309.494 37.4317 309.898 39.8554C311.897 51.5271 314.299 63.2413 316.446 74.828C318.36 85.2454 320.103 95.6627 321.931 106.101C324.071 118.418 326.198 130.742 328.309 143.072C330.435 154.659 332.37 166.246 334.453 177.832C334.964 180.681 335.559 183.53 336.133 186.336C336.154 186.493 336.143 186.652 336.102 186.804C336.061 186.957 335.989 187.1 335.893 187.224C335.796 187.349 335.675 187.453 335.537 187.53C335.4 187.608 335.248 187.657 335.091 187.676C323.994 138.948 312.875 90.1989 301.607 40.8972ZM741.751 201.941C741.96 201.841 742.189 201.789 742.421 201.789C742.653 201.789 742.882 201.841 743.091 201.941C743.282 202.036 743.444 202.181 743.56 202.361C743.676 202.541 743.742 202.748 743.75 202.962C743.962 209.701 743.899 209.573 736.628 212.316C717.068 219.651 697.573 227.198 678.014 234.469C652.814 243.937 627.607 253.362 602.392 262.745C602.255 262.801 602.103 262.806 601.962 262.76C601.822 262.713 601.703 262.617 601.627 262.489C601.592 262.428 601.572 262.359 601.567 262.289C601.562 262.218 601.574 262.148 601.6 262.082C601.627 262.017 601.668 261.958 601.72 261.911C601.773 261.864 601.836 261.829 601.903 261.809L741.751 201.941ZM19.6363 42.4279C19.4136 42.2285 19.2354 41.9843 19.1134 41.7114C18.9915 41.4385 18.9284 41.1429 18.9284 40.844C18.9284 40.545 18.9915 40.2495 19.1134 39.9766C19.2354 39.7037 19.4136 39.4595 19.6363 39.2601C20.1473 38.8366 20.7902 38.6049 21.454 38.6049C22.1177 38.6049 22.7606 38.8366 23.2717 39.2601L23.6969 39.6641C35.404 51.0027 47.2742 62.1996 59.3073 73.2548C79.3554 91.8147 99.5524 110.247 119.601 128.807C138.026 145.815 156.338 162.823 174.536 179.831C174.599 179.885 174.65 179.952 174.684 180.027C174.719 180.102 174.737 180.184 174.737 180.267C174.737 180.349 174.719 180.431 174.684 180.507C174.65 180.582 174.599 180.649 174.536 180.702C174.396 180.809 174.224 180.867 174.047 180.867C173.871 180.867 173.699 180.809 173.558 180.702L19.6363 42.4279ZM6.24254 512.868C5.55955 513.161 4.81535 513.283 4.07443 513.224C3.3335 513.165 2.61823 512.926 1.99057 512.527C1.40476 512.175 0.940256 511.653 0.659149 511.03C0.378042 510.407 0.293706 509.713 0.417331 509.041C0.948829 506.532 2.81969 505.831 7.81577 503.96C24.7245 497.667 41.5907 491.289 58.4144 484.826C81.7862 475.897 105.137 466.946 128.466 457.975C128.6 457.919 128.749 457.915 128.886 457.962C129.023 458.009 129.138 458.104 129.21 458.23C129.241 458.289 129.26 458.354 129.264 458.421C129.268 458.488 129.257 458.555 129.233 458.617C129.209 458.68 129.171 458.736 129.123 458.783C129.075 458.83 129.018 458.866 128.955 458.889L6.24254 512.868ZM452.382 588.978C452.597 588.926 452.823 588.948 453.024 589.04C453.225 589.133 453.388 589.291 453.488 589.488L491.756 681.523C491.973 682.059 492.042 682.644 491.956 683.216C491.87 683.788 491.632 684.327 491.267 684.775C490.86 685.264 490.349 685.655 489.772 685.92C489.194 686.185 488.564 686.317 487.929 686.306H485.505C484.659 686.335 483.824 686.096 483.122 685.623C482.419 685.149 481.884 684.466 481.593 683.67C471.885 652.205 462.148 620.641 452.382 588.978ZM350.313 40.557C350.28 40.0576 350.361 39.5573 350.548 39.0933C350.736 38.6294 351.026 38.214 351.398 37.8783C352.209 37.1495 353.262 36.7479 354.353 36.7515C355.167 36.7038 355.968 36.9743 356.587 37.5058C357.205 38.0373 357.594 38.7882 357.669 39.6003L360.603 163.503C360.6 163.592 360.58 163.679 360.543 163.759C360.506 163.839 360.453 163.911 360.388 163.971C360.322 164.03 360.245 164.076 360.162 164.105C360.078 164.135 359.99 164.147 359.902 164.141C356.713 123.088 353.524 82.0139 350.313 40.557ZM5.05193 419.749C4.47552 419.858 3.88309 419.851 3.30972 419.726C2.73634 419.602 2.19372 419.364 1.71414 419.026C1.26966 418.725 0.905607 418.319 0.653643 417.845C0.401678 417.371 0.269469 416.842 0.268495 416.305C0.268495 413.881 1.48032 413.626 5.73231 413.031C18.9135 411.203 32.1159 409.566 45.2971 407.801C54.1837 406.611 63.0278 405.229 71.9144 404.059C82.2467 402.699 92.6004 401.487 102.933 400.126C112.563 398.851 122.173 397.447 131.804 396.129C131.941 396.103 132.084 396.13 132.202 396.205C132.321 396.28 132.406 396.398 132.442 396.533C132.454 396.601 132.451 396.67 132.435 396.737C132.419 396.803 132.388 396.866 132.346 396.92C132.304 396.974 132.251 397.019 132.191 397.051C132.13 397.083 132.063 397.102 131.995 397.107L5.05193 419.749ZM112.032 686.412C111.261 686.531 110.472 686.434 109.753 686.134C109.033 685.835 108.409 685.342 107.95 684.712C107.528 684.113 107.323 683.389 107.369 682.658C107.416 681.927 107.711 681.234 108.205 680.694C128.126 657.52 147.536 634.963 166.946 612.428C167.061 612.3 167.213 612.211 167.38 612.173C167.548 612.135 167.723 612.149 167.882 612.215C167.75 612.836 167.535 613.437 167.244 614.001C150.236 637.458 133.179 660.886 116.071 684.287C115.02 685.452 113.588 686.206 112.032 686.412ZM537.868 560.32C537.982 560.233 538.112 560.169 538.251 560.133C538.39 560.096 538.534 560.087 538.676 560.107C538.815 560.114 538.951 560.149 539.076 560.212C539.2 560.274 539.311 560.361 539.399 560.469L645.38 684.605C645.677 684.943 645.842 685.378 645.842 685.828C645.842 686.278 645.677 686.713 645.38 687.05C643.509 686.115 641 685.583 639.831 684.18C620.017 660.39 600.394 636.473 580.707 612.662L540.441 563.764C539.527 562.68 538.804 561.468 537.868 560.32ZM166.032 37.3893C166.363 37.0878 166.776 36.8907 167.218 36.8227C167.661 36.7546 168.113 36.8185 168.52 37.0066C169.562 37.3838 170.491 38.0203 171.22 38.8562C178.788 51.1869 186.102 63.6665 193.606 75.9973C203.577 92.2824 213.74 108.461 223.795 124.683C225.921 128.042 227.877 131.443 229.918 134.824C229.981 134.953 230.013 135.095 230.013 135.238C230.013 135.382 229.981 135.523 229.918 135.653C229.863 135.792 229.779 135.918 229.673 136.024C229.567 136.13 229.441 136.214 229.302 136.269L166.032 37.3893ZM252.985 39.7917C252.919 39.5696 252.898 39.3361 252.926 39.1059C252.954 38.8757 253.029 38.6537 253.147 38.454C253.265 38.2543 253.423 38.0811 253.611 37.9455C253.799 37.8098 254.013 37.7145 254.24 37.6656C254.709 37.5123 255.219 37.5383 255.67 37.7385C256.122 37.9387 256.483 38.299 256.685 38.7499L256.812 39.09C261.766 53.972 266.932 68.9603 272.162 83.8635C277.881 100.234 283.748 116.561 289.531 132.931C289.557 133.012 289.565 133.098 289.554 133.182C289.544 133.267 289.516 133.348 289.471 133.42C289.427 133.493 289.368 133.555 289.297 133.603C289.227 133.65 289.147 133.682 289.063 133.697C288.893 133.751 288.71 133.741 288.546 133.671C288.382 133.601 288.249 133.474 288.171 133.314C276.421 102.218 264.693 71.0438 252.985 39.7917ZM381.544 585.725C381.724 585.713 381.901 585.77 382.039 585.885C382.178 586 382.267 586.163 382.288 586.342C384.4 618.87 386.526 651.419 388.666 683.989C388.663 684.212 388.617 684.433 388.529 684.638C388.441 684.843 388.313 685.029 388.153 685.185C387.993 685.341 387.804 685.464 387.597 685.547C387.389 685.63 387.168 685.671 386.944 685.668C386.492 685.717 386.039 685.59 385.678 685.313C385.318 685.035 385.078 684.63 385.01 684.18V683.904C384.202 662.325 383.287 640.767 382.458 619.189C382.097 609.366 381.863 599.544 381.587 589.722C381.502 588.383 381.544 587.044 381.544 585.725ZM666.342 348.762C666.103 348.786 665.864 348.715 665.677 348.563C665.49 348.412 665.37 348.193 665.343 347.954C665.346 347.837 665.372 347.722 665.419 347.614C665.467 347.507 665.535 347.41 665.62 347.329C665.704 347.248 665.804 347.185 665.914 347.142C666.023 347.1 666.14 347.08 666.257 347.083L741.454 343.341C741.886 343.301 742.319 343.422 742.668 343.681C743.017 343.94 743.259 344.318 743.346 344.744C743.58 346.424 743.112 346.445 740.646 346.509C715.878 347.295 691.11 348.167 666.342 348.762ZM120.408 383.055C120.432 383.165 120.431 383.28 120.406 383.39C120.38 383.5 120.33 383.604 120.26 383.692C120.088 383.885 119.855 384.012 119.601 384.054C113.775 384.755 107.971 385.521 102.125 386.18C89.8579 387.392 77.5483 388.412 65.2813 389.666C53.0143 390.921 41.0663 392.388 28.9481 393.706C20.4441 394.662 11.9402 395.577 3.43621 396.384C3.21051 396.416 2.98161 396.416 2.75591 396.384C2.46128 396.334 2.19439 396.18 2.00339 395.95C1.81239 395.72 1.70982 395.429 1.71414 395.13C1.75326 394.831 1.89574 394.554 2.11698 394.348C2.33823 394.143 2.62437 394.021 2.92598 394.003C12.7481 392.983 22.5772 392.019 32.4135 391.112L96.6185 385.181L120.408 383.055ZM632.964 427.02C632.987 426.89 633.039 426.767 633.117 426.66C633.194 426.554 633.294 426.466 633.411 426.404C633.538 426.346 633.675 426.316 633.815 426.316C633.954 426.316 634.092 426.346 634.218 426.404L648.42 429.699L706.162 443.837C717.175 446.515 728.23 449.109 739.2 451.937C740.255 452.109 741.298 452.343 742.325 452.638C742.497 452.697 742.655 452.791 742.789 452.912C742.924 453.034 743.032 453.182 743.108 453.347C743.183 453.512 743.224 453.691 743.229 453.872C743.233 454.054 743.201 454.234 743.133 454.403C742.963 454.749 742.674 455.024 742.319 455.176C741.964 455.328 741.567 455.348 741.198 455.232L632.964 427.02ZM634.963 302.628C634.938 302.445 634.987 302.26 635.099 302.113C635.21 301.965 635.375 301.868 635.558 301.842L741.624 278.052C742.071 277.946 742.539 277.968 742.975 278.115C743.411 278.261 743.797 278.527 744.09 278.881C743.197 279.604 742.432 280.794 741.39 281.007C727.996 283.813 714.539 286.386 701.145 289.171C687.751 291.956 674.995 294.762 661.941 297.675C654.075 299.375 646.209 301.097 638.343 302.734C637.215 302.807 636.083 302.772 634.963 302.628ZM397.425 40.1956C397.548 39.2206 398.034 38.328 398.787 37.697C399.541 37.066 400.505 36.7434 401.486 36.794C401.849 36.7912 402.21 36.8613 402.546 37C402.882 37.1388 403.186 37.3434 403.442 37.6018C403.678 37.8341 403.857 38.1185 403.964 38.4323C404.072 38.7461 404.104 39.0805 404.058 39.409C401.167 56.7996 398.318 73.9776 395.448 91.1556C395.417 91.3177 395.324 91.4613 395.19 91.5564C395.055 91.6516 394.888 91.6908 394.725 91.6659L397.425 40.1956ZM0.927557 487.228C0.642206 486.845 0.514055 486.368 0.569392 485.893C0.624729 485.419 0.859318 484.984 1.22515 484.677C1.57937 484.335 1.99869 484.067 2.45824 483.89C26.3261 475.769 50.2364 467.669 74.1893 459.59C79.0365 457.946 83.898 456.345 88.7736 454.786C88.9409 454.725 89.1244 454.729 89.2891 454.796C89.4538 454.862 89.5881 454.987 89.6665 455.147C89.6964 455.223 89.7102 455.305 89.7069 455.387C89.7036 455.47 89.6833 455.55 89.6474 455.624C89.6114 455.698 89.5606 455.764 89.498 455.817C89.4354 455.87 89.3626 455.91 89.2839 455.934L0.927557 487.228ZM577.752 548.882C577.642 548.974 577.502 549.024 577.359 549.024C577.215 549.024 577.076 548.974 576.965 548.882L554.005 528.77C553.946 528.731 553.899 528.677 553.869 528.613C553.839 528.55 553.827 528.479 553.835 528.409C553.836 528.337 553.851 528.266 553.88 528.2C553.91 528.134 553.952 528.075 554.005 528.026C558.852 532.023 563.763 535.956 568.483 540.038C571.714 542.865 574.669 545.927 577.752 548.882ZM286.746 614.937C286.821 612.795 287.063 610.663 287.469 608.559C287.767 607.496 288.086 606.433 288.468 605.348C288.525 605.218 288.628 605.113 288.758 605.054C288.887 604.995 289.034 604.986 289.17 605.029C289.237 605.042 289.302 605.068 289.359 605.106C289.417 605.145 289.466 605.194 289.503 605.251C289.541 605.309 289.567 605.374 289.579 605.442C289.591 605.509 289.589 605.579 289.574 605.646C288.617 608.665 287.66 611.684 286.725 614.724L286.746 614.937ZM613.299 336.283L600.096 337.452C599.717 337.495 599.335 337.388 599.033 337.154C598.891 337.055 598.774 336.925 598.689 336.774C598.604 336.624 598.555 336.455 598.544 336.283H613.299ZM185.676 514.398C185.619 514.352 185.548 514.326 185.474 514.326C185.401 514.326 185.329 514.352 185.272 514.398L176.875 522.902C176.642 523.132 176.33 523.261 176.003 523.264C175.67 523.273 175.344 523.16 175.089 522.945L185.676 514.398Z" fill="#E0E0E0"/>
<path d="M88.8555 625.824L269.101 354.222L419.173 492.665C420.902 492.122 518.728 461.209 576.628 392.394L630.184 402.419C565.542 498.146 438.803 537.702 433.445 539.331C433.445 539.331 336.828 638.096 312.137 677.601C249.545 697.231 107.991 631.404 88.8555 625.824Z" fill="white"/>
<path d="M81.6523 618.614L269.107 354.197L419.18 492.64C420.908 492.097 518.735 461.184 576.635 392.369L630.19 402.394C539.376 536.837 512.265 443.184 313.848 667.231" stroke="#45413C" stroke-width="14.4897" stroke-linecap="round" stroke-linejoin="round"/>
<path d="M197.519 371.654C197.519 371.654 72.2116 444.221 164.013 487.899L249.37 430.394L197.519 371.654Z" fill="white" stroke="#45413C" stroke-width="14.4897" stroke-linecap="round" stroke-linejoin="round"/>
<path d="M234.543 182.767C253.777 142.002 331.925 71.3606 442.393 94.8172C444.283 95.2238 446.035 96.1123 447.48 97.3963C448.925 98.6802 450.014 100.316 450.64 102.145C451.266 103.974 451.409 105.934 451.054 107.834C450.699 109.734 449.859 111.51 448.615 112.99C438.501 125.388 432.503 140.629 431.455 156.594" fill="#ADC4D9"/>
<path d="M234.543 182.767C253.777 142.002 331.925 71.3606 442.393 94.8172C444.283 95.2238 446.035 96.1123 447.48 97.3963C448.925 98.6802 450.014 100.316 450.64 102.145C451.266 103.974 451.409 105.934 451.054 107.834C450.699 109.734 449.859 111.51 448.615 112.99C438.501 125.388 432.503 140.629 431.455 156.594" stroke="#45413C" stroke-width="14.4897" stroke-linecap="round" stroke-linejoin="round"/>
<path d="M170.203 322.123C170.203 370.667 189.487 417.223 223.813 451.549C258.139 485.875 304.694 505.159 353.238 505.159C401.782 505.159 448.338 485.875 482.664 451.549C516.99 417.223 536.274 370.667 536.274 322.123C536.274 273.579 516.99 227.024 482.664 192.698C448.338 158.372 401.782 139.088 353.238 139.088C304.694 139.088 258.139 158.372 223.813 192.698C189.487 227.024 170.203 273.579 170.203 322.123Z" fill="#8CA4B8"/>
<path d="M428.155 223.803L428.797 224.1C443.414 231.087 456.501 212.075 444.55 201.186C422.269 180.958 393.569 169.233 363.497 168.072C333.425 166.911 303.907 176.39 280.132 194.841C267.441 204.717 278.823 224.84 293.786 219.038C315.329 210.647 338.358 206.742 361.462 207.561C384.567 208.38 407.261 213.907 428.155 223.803Z" fill="#C0DCEB"/>
<path d="M170.203 322.123C170.203 370.667 189.487 417.223 223.813 451.549C258.139 485.875 304.694 505.159 353.238 505.159C401.782 505.159 448.338 485.875 482.664 451.549C516.99 417.223 536.274 370.667 536.274 322.123C536.274 273.579 516.99 227.024 482.664 192.698C448.338 158.372 401.782 139.088 353.238 139.088C304.694 139.088 258.139 158.372 223.813 192.698C189.487 227.024 170.203 273.579 170.203 322.123Z" stroke="#45413C" stroke-width="14.4897" stroke-linecap="round" stroke-linejoin="round"/>
<path d="M505.127 346.494C506.599 343.013 506.631 339.09 505.214 335.586C503.798 332.082 501.049 329.282 497.571 327.802L456.239 308.716C454.517 307.981 452.668 307.593 450.797 307.575C448.925 307.557 447.069 307.909 445.334 308.612C443.599 309.314 442.02 310.352 440.688 311.667C439.356 312.981 438.297 314.546 437.572 316.272L421.646 353.827C420.889 355.777 419.747 357.556 418.289 359.057C416.831 360.558 415.086 361.751 413.158 362.566C411.23 363.38 409.159 363.798 407.066 363.797C404.973 363.795 402.902 363.374 400.976 362.557C399.049 361.74 397.306 360.544 395.85 359.041C394.394 357.538 393.255 355.758 392.5 353.806C391.745 351.854 391.39 349.771 391.455 347.679C391.521 345.587 392.006 343.53 392.881 341.629L408.782 304.074C409.517 302.353 409.905 300.504 409.923 298.632C409.941 296.761 409.589 294.904 408.887 293.17C408.184 291.435 407.146 289.856 405.832 288.524C404.517 287.192 402.952 286.133 401.227 285.408L348.314 262.988C344.836 261.517 340.917 261.486 337.417 262.903C333.917 264.319 331.122 267.068 329.647 270.544C326.602 277.739 325.428 285.588 326.235 293.36C327.043 301.131 329.805 308.572 334.264 314.988L343.178 326.494C328.363 370.938 294.956 444.641 263.969 481.826C267.574 483.85 271.376 485.801 275.055 487.579C315.489 506.736 361.556 510.357 404.486 497.751C430.412 459.258 454.041 410.814 460.362 375.604L469.991 374.024C477.697 372.777 484.961 369.598 491.105 364.784C497.249 359.97 502.073 353.677 505.127 346.494Z" fill="white"/>
<path d="M497.576 327.802L456.243 308.716C454.522 307.981 452.673 307.593 450.801 307.575C448.93 307.557 447.073 307.909 445.338 308.612C443.604 309.314 442.025 310.352 440.693 311.667C439.361 312.981 438.302 314.546 437.576 316.272L421.651 353.827C421.316 354.691 420.894 355.518 420.391 356.296C421.123 366.638 424.349 376.648 429.793 385.471C435.236 394.295 442.736 401.669 451.65 406.962C455.403 396.814 458.318 386.376 460.366 375.752L469.996 374.172C477.707 372.921 484.974 369.734 491.119 364.911C497.263 360.088 502.084 353.785 505.131 346.592C505.876 344.863 506.271 343.004 506.293 341.122C506.316 339.24 505.966 337.371 505.264 335.625C504.562 333.878 503.521 332.288 502.201 330.946C500.882 329.603 499.31 328.535 497.576 327.802ZM391.75 345.901C391.927 344.431 392.31 342.993 392.886 341.629L408.787 304.074C409.522 302.353 409.91 300.504 409.928 298.632C409.946 296.761 409.593 294.904 408.891 293.17C408.189 291.435 407.151 289.856 405.836 288.524C404.522 287.192 402.957 286.133 401.231 285.408L348.318 262.988C344.841 261.517 340.921 261.486 337.421 262.903C333.921 264.319 331.127 267.068 329.652 270.544C326.606 277.739 325.433 285.588 326.24 293.36C327.047 301.131 329.809 308.572 334.269 314.988L343.182 326.494C340.713 334.074 337.602 342.494 334.096 351.456C343.469 355.113 353.57 356.515 363.585 355.55C373.6 354.585 383.247 351.28 391.75 345.901Z" fill="white" stroke="#45413C" stroke-width="14.4897" stroke-linecap="round" stroke-linejoin="round"/>
<path d="M371.578 298.124C371.578 300.56 372.546 302.896 374.268 304.619C375.991 306.341 378.327 307.309 380.763 307.309C383.199 307.309 385.536 306.341 387.258 304.619C388.981 302.896 389.948 300.56 389.948 298.124C389.948 295.688 388.981 293.351 387.258 291.629C385.536 289.906 383.199 288.939 380.763 288.939C378.327 288.939 375.991 289.906 374.268 291.629C372.546 293.351 371.578 295.688 371.578 298.124Z" fill="#45413C"/>
<path d="M456.199 333.703C456.199 336.139 457.167 338.476 458.889 340.198C460.612 341.921 462.948 342.888 465.384 342.888C467.82 342.888 470.157 341.921 471.879 340.198C473.602 338.476 474.569 336.139 474.569 333.703C474.569 331.267 473.602 328.931 471.879 327.209C470.157 325.486 467.82 324.518 465.384 324.518C462.948 324.518 460.612 325.486 458.889 327.209C457.167 328.931 456.199 331.267 456.199 333.703Z" fill="#45413C"/>
<path d="M505.127 346.494C506.599 343.013 506.631 339.09 505.214 335.586C503.798 332.082 501.049 329.282 497.571 327.802L456.239 308.716C454.517 307.981 452.668 307.593 450.797 307.575C448.925 307.557 447.069 307.909 445.334 308.612C443.599 309.314 442.02 310.352 440.688 311.667C439.356 312.981 438.297 314.546 437.572 316.272L421.646 353.827C420.889 355.777 419.747 357.556 418.289 359.057C416.831 360.558 415.086 361.751 413.158 362.566C411.23 363.38 409.159 363.798 407.066 363.797C404.973 363.795 402.902 363.374 400.976 362.557C399.049 361.74 397.306 360.544 395.85 359.041C394.394 357.538 393.255 355.758 392.5 353.806C391.745 351.854 391.39 349.771 391.455 347.679C391.521 345.587 392.006 343.53 392.881 341.629L408.782 304.074C409.517 302.353 409.905 300.504 409.923 298.632C409.941 296.761 409.589 294.904 408.887 293.17C408.184 291.435 407.146 289.856 405.832 288.524C404.517 287.192 402.952 286.133 401.227 285.408L348.314 262.988C344.836 261.517 340.917 261.486 337.417 262.903C333.917 264.319 331.122 267.068 329.647 270.544C326.602 277.739 325.428 285.588 326.235 293.36C327.043 301.131 329.805 308.572 334.264 314.988L343.178 326.494C328.363 370.938 294.956 444.641 263.969 481.826C267.574 483.85 271.376 485.801 275.055 487.579C315.489 506.736 361.556 510.357 404.486 497.751C430.412 459.258 454.041 410.814 460.362 375.604L469.991 374.024C477.697 372.777 484.961 369.598 491.105 364.784C497.249 359.97 502.073 353.677 505.127 346.494Z" stroke="#45413C" stroke-width="14.4897" stroke-linecap="round" stroke-linejoin="round"/>
<path d="M302.676 498.023C325.319 504.603 349.025 506.725 372.478 504.27L411.736 421.11C412.45 419.655 412.838 418.063 412.874 416.443C412.91 414.823 412.593 413.214 411.944 411.729C411.296 410.244 410.331 408.918 409.119 407.843C407.906 406.769 406.474 405.971 404.922 405.506C392.051 401.698 379.819 395.998 368.626 388.592C367.285 387.696 365.766 387.1 364.174 386.844C362.582 386.588 360.953 386.679 359.399 387.11C357.845 387.542 356.402 388.303 355.169 389.343C353.937 390.383 352.943 391.676 352.256 393.135L302.676 498.023Z" fill="#FFCABF" stroke="#45413C" stroke-width="14.4897" stroke-linecap="round" stroke-linejoin="round"/>
<path d="M327.836 444.715L302.676 498.023C325.319 504.603 349.025 506.725 372.478 504.27L385.687 476.319C368.54 462.273 348.92 451.555 327.836 444.715Z" fill="#FF866E" stroke="#45413C" stroke-width="14.4897" stroke-linejoin="round"/>
<path d="M111.613 528.714C111.613 561.784 124.75 593.499 148.134 616.883C171.518 640.267 203.234 653.404 236.303 653.404C269.373 653.404 301.089 640.267 324.473 616.883C347.857 593.499 360.994 561.784 360.994 528.714C360.994 495.644 347.857 463.929 324.473 440.545C301.089 417.161 269.373 404.024 236.303 404.024C203.234 404.024 171.518 417.161 148.134 440.545C124.75 463.929 111.613 495.644 111.613 528.714Z" fill="#FFE500"/>
<path d="M348.356 569.997C333.088 594.235 309.942 612.477 282.808 621.659C255.674 630.84 226.207 630.401 199.358 620.416C172.51 610.43 149.917 591.507 135.378 566.826C120.838 542.145 115.238 513.211 119.519 484.887C113.379 501.247 110.745 518.714 111.789 536.157C112.833 553.599 117.53 570.628 125.577 586.139C133.623 601.65 144.839 615.296 158.498 626.195C172.157 637.093 187.953 644.999 204.864 649.401C221.774 653.803 239.42 654.602 256.659 651.747C273.898 648.892 290.345 642.446 304.933 632.827C319.521 623.208 331.925 610.631 341.341 595.911C350.757 581.192 356.974 564.657 359.59 547.38C356.622 555.281 352.858 562.859 348.356 569.997Z" fill="#E0A416"/>
<path d="M111.613 528.714C111.613 561.784 124.75 593.499 148.134 616.883C171.518 640.267 203.234 653.404 236.303 653.404C269.373 653.404 301.089 640.267 324.473 616.883C347.857 593.499 360.994 561.784 360.994 528.714C360.994 495.644 347.857 463.929 324.473 440.545C301.089 417.161 269.373 404.024 236.303 404.024C203.234 404.024 171.518 417.161 148.134 440.545C124.75 463.929 111.613 495.644 111.613 528.714Z" stroke="#45413C" stroke-width="14.4897" stroke-linecap="round" stroke-linejoin="round"/>
<path d="M137.668 528.714C137.668 554.875 148.06 579.965 166.559 598.464C185.058 616.963 210.148 627.355 236.309 627.355C262.47 627.355 287.56 616.963 306.059 598.464C324.557 579.965 334.95 554.875 334.95 528.714C334.95 502.553 324.557 477.463 306.059 458.964C287.56 440.466 262.47 430.073 236.309 430.073C210.148 430.073 185.058 440.466 166.559 458.964C148.06 477.463 137.668 502.553 137.668 528.714Z" fill="#ADC4D9"/>
<path d="M145.076 506.047C156.909 487.253 174.739 473.002 195.678 465.601C216.618 458.199 239.443 458.081 260.458 465.265C281.473 472.45 299.449 486.515 311.476 505.186C323.503 523.857 328.877 546.041 326.729 568.146C332.547 555.049 335.445 540.843 335.223 526.514C335 512.185 331.662 498.076 325.44 485.166C319.217 472.257 310.26 460.856 299.19 451.755C288.12 442.655 275.202 436.072 261.333 432.464C247.463 428.857 232.975 428.311 218.874 430.864C204.772 433.417 191.395 439.009 179.671 447.25C167.947 455.492 158.158 466.186 150.981 478.591C143.805 490.995 139.414 504.813 138.113 519.084C140.108 514.572 142.435 510.215 145.076 506.047Z" fill="#DAEDF7"/>
<path d="M137.668 528.714C137.668 554.875 148.06 579.965 166.559 598.464C185.058 616.963 210.148 627.355 236.309 627.355C262.47 627.355 287.56 616.963 306.059 598.464C324.557 579.965 334.95 554.875 334.95 528.714C334.95 502.553 324.557 477.463 306.059 458.964C287.56 440.466 262.47 430.073 236.309 430.073C210.148 430.073 185.058 440.466 166.559 458.964C148.06 477.463 137.668 502.553 137.668 528.714Z" stroke="#45413C" stroke-width="14.4897" stroke-linecap="round" stroke-linejoin="round"/>
<path d="M248.183 509.825L230.084 430.197C219.53 430.87 209.152 433.229 199.344 437.184L217.418 516.739L248.183 509.825Z" fill="#FFE500" stroke="#45413C" stroke-width="14.4897" stroke-linecap="round" stroke-linejoin="round"/>
<path d="M217.473 516.788L248.218 509.801L255.208 540.546L224.463 547.533L217.473 516.788Z" fill="#FFE500" stroke="#45413C" stroke-width="14.4897" stroke-linecap="round" stroke-linejoin="round"/>
<path d="M213.543 453.036C213.543 454.483 214.118 455.871 215.141 456.894C216.165 457.918 217.552 458.493 219 458.493C220.447 458.493 221.835 457.918 222.858 456.894C223.882 455.871 224.456 454.483 224.456 453.036C224.456 451.589 223.882 450.201 222.858 449.177C221.835 448.154 220.447 447.579 219 447.579C217.552 447.579 216.165 448.154 215.141 449.177C214.118 450.201 213.543 451.589 213.543 453.036Z" fill="#FFFACF"/>
<path d="M219.645 478.27C219.645 479.717 220.219 481.105 221.243 482.128C222.266 483.152 223.654 483.727 225.101 483.727C226.548 483.727 227.936 483.152 228.96 482.128C229.983 481.105 230.558 479.717 230.558 478.27C230.558 476.823 229.983 475.435 228.96 474.411C227.936 473.388 226.548 472.813 225.101 472.813C223.654 472.813 222.266 473.388 221.243 474.411C220.219 475.435 219.645 476.823 219.645 478.27Z" fill="#FFFACF"/>
<path d="M255.167 540.59L334.722 522.492C334.049 511.938 331.69 501.559 327.734 491.751L248.18 509.825L255.167 540.59Z" fill="#FFE500" stroke="#45413C" stroke-width="14.4897" stroke-linecap="round" stroke-linejoin="round"/>
<path d="M306.488 511.405C306.488 512.853 307.063 514.241 308.087 515.264C309.11 516.287 310.498 516.862 311.945 516.862C313.392 516.862 314.78 516.287 315.804 515.264C316.827 514.241 317.402 512.853 317.402 511.405C317.402 509.958 316.827 508.57 315.804 507.547C314.78 506.524 313.392 505.949 311.945 505.949C310.498 505.949 309.11 506.524 308.087 507.547C307.063 508.57 306.488 509.958 306.488 511.405Z" fill="#FFFACF"/>
<path d="M281.25 517.529C281.25 518.976 281.825 520.364 282.848 521.387C283.872 522.411 285.26 522.986 286.707 522.986C288.154 522.986 289.542 522.411 290.565 521.387C291.589 520.364 292.163 518.976 292.163 517.529C292.163 516.082 291.589 514.694 290.565 513.67C289.542 512.647 288.154 512.072 286.707 512.072C285.26 512.072 283.872 512.647 282.848 513.67C281.825 514.694 281.25 516.082 281.25 517.529Z" fill="#FFFACF"/>
<path d="M224.395 547.578L242.493 627.133C253.047 626.46 263.426 624.101 273.234 620.145L255.16 540.591L224.395 547.578Z" fill="#EBCB00" stroke="#45413C" stroke-width="14.4897" stroke-linecap="round" stroke-linejoin="round"/>
<path d="M248.133 604.368C248.133 605.815 248.708 607.203 249.731 608.226C250.754 609.249 252.142 609.824 253.59 609.824C255.037 609.824 256.425 609.249 257.448 608.226C258.471 607.203 259.046 605.815 259.046 604.368C259.046 602.92 258.471 601.532 257.448 600.509C256.425 599.486 255.037 598.911 253.59 598.911C252.142 598.911 250.754 599.486 249.731 600.509C248.708 601.532 248.133 602.92 248.133 604.368Z" fill="#FFFACF"/>
<path d="M242.004 579.133C242.004 580.581 242.579 581.969 243.602 582.992C244.625 584.015 246.013 584.59 247.461 584.59C248.908 584.59 250.296 584.015 251.319 582.992C252.342 581.969 252.917 580.581 252.917 579.133C252.917 577.686 252.342 576.298 251.319 575.275C250.296 574.252 248.908 573.677 247.461 573.677C246.013 573.677 244.625 574.252 243.602 575.275C242.579 576.298 242.004 577.686 242.004 579.133Z" fill="#FFFACF"/>
<path d="M217.41 516.813L137.855 534.912C138.528 545.466 140.887 555.844 144.843 565.652L224.398 547.578L217.41 516.813Z" fill="#EBCB00" stroke="#45413C" stroke-width="14.4897" stroke-linecap="round" stroke-linejoin="round"/>
<path d="M155.164 545.998C155.164 547.445 155.739 548.833 156.762 549.856C157.786 550.879 159.174 551.454 160.621 551.454C162.068 551.454 163.456 550.879 164.479 549.856C165.503 548.833 166.078 547.445 166.078 545.998C166.078 544.55 165.503 543.162 164.479 542.139C163.456 541.116 162.068 540.541 160.621 540.541C159.174 540.541 157.786 541.116 156.762 542.139C155.739 543.162 155.164 544.55 155.164 545.998Z" fill="#FFFACF"/>
<path d="M180.398 539.875C180.398 541.322 180.973 542.71 181.997 543.733C183.02 544.756 184.408 545.331 185.855 545.331C187.302 545.331 188.69 544.756 189.714 543.733C190.737 542.71 191.312 541.322 191.312 539.875C191.312 538.427 190.737 537.039 189.714 536.016C188.69 534.993 187.302 534.418 185.855 534.418C184.408 534.418 183.02 534.993 181.997 536.016C180.973 537.039 180.398 538.427 180.398 539.875Z" fill="#FFFACF"/>
<path d="M205.426 528.714C205.426 532.767 206.224 536.78 207.775 540.525C209.326 544.27 211.6 547.672 214.466 550.538C217.332 553.404 220.734 555.677 224.479 557.228C228.223 558.779 232.237 559.578 236.29 559.578C240.343 559.578 244.356 558.779 248.101 557.228C251.845 555.677 255.248 553.404 258.114 550.538C260.98 547.672 263.253 544.27 264.804 540.525C266.355 536.78 267.154 532.767 267.154 528.714C267.154 524.661 266.355 520.647 264.804 516.903C263.253 513.158 260.98 509.756 258.114 506.89C255.248 504.024 251.845 501.75 248.101 500.199C244.356 498.648 240.343 497.85 236.29 497.85C232.237 497.85 228.223 498.648 224.479 500.199C220.734 501.75 217.332 504.024 214.466 506.89C211.6 509.756 209.326 513.158 207.775 516.903C206.224 520.647 205.426 524.661 205.426 528.714Z" fill="#FFE500"/>
<path d="M243.881 523.331C246.082 524.704 247.981 526.51 249.462 528.64C249.912 529.328 250.574 529.851 251.349 530.129C252.123 530.406 252.967 530.424 253.753 530.178C254.538 529.932 255.221 529.436 255.699 528.767C256.177 528.097 256.423 527.289 256.4 526.467C256.251 522.859 255.116 519.361 253.117 516.352C251.119 513.344 248.335 510.942 245.067 509.405C240.704 507.305 235.717 506.899 231.072 508.268C226.428 509.637 222.457 512.682 219.931 516.813L219.783 517.035C219.365 517.739 219.185 518.559 219.271 519.373C219.356 520.187 219.702 520.951 220.256 521.553C220.811 522.155 221.545 522.562 222.35 522.713C223.154 522.864 223.986 522.752 224.721 522.393C227.731 520.909 231.07 520.216 234.423 520.38C237.775 520.544 241.03 521.56 243.881 523.331Z" fill="#FFFACF"/>
<path d="M205.426 528.714C205.426 532.767 206.224 536.78 207.775 540.525C209.326 544.27 211.6 547.672 214.466 550.538C217.332 553.404 220.734 555.677 224.479 557.228C228.223 558.779 232.237 559.578 236.29 559.578C240.343 559.578 244.356 558.779 248.101 557.228C251.845 555.677 255.248 553.404 258.114 550.538C260.98 547.672 263.253 544.27 264.804 540.525C266.355 536.78 267.154 532.767 267.154 528.714C267.154 524.661 266.355 520.647 264.804 516.903C263.253 513.158 260.98 509.756 258.114 506.89C255.248 504.024 251.845 501.75 248.101 500.199C244.356 498.648 240.343 497.85 236.29 497.85C232.237 497.85 228.223 498.648 224.479 500.199C220.734 501.75 217.332 504.024 214.466 506.89C211.6 509.756 209.326 513.158 207.775 516.903C206.224 520.647 205.426 524.661 205.426 528.714Z" stroke="#45413C" stroke-width="14.4897" stroke-linecap="round" stroke-linejoin="round"/>
<path d="M234.381 266.05C247.714 270.272 264.232 241.359 258.134 232.495C248.875 218.841 209.171 258.05 234.381 266.05Z" fill="#C0DCEB"/>
<path d="M647.635 332.025L615.734 309.21L756.918 39.2621C758.237 36.7837 760.469 34.9154 763.14 34.0523L838.843 7.83034C841.466 7.15419 844.206 7.06245 846.868 7.56161C849.53 8.06077 852.05 9.13863 854.25 10.719C856.45 12.2994 858.276 14.3437 859.598 16.7074C860.921 19.0711 861.708 21.6966 861.905 24.3981L861.238 104.496C861.266 107.303 860.204 110.012 858.275 112.052L647.635 332.025Z" fill="#E8F4FA"/>
<path d="M788.646 102.027L759.56 36.0275C758.477 36.9234 757.58 38.0221 756.918 39.2621L615.734 309.21L631.685 320.667L788.646 102.126V102.027Z" fill="#C0DCEB"/>
<path d="M858.274 112.052C859.239 111.032 859.994 109.832 860.496 108.521L788.645 102.027L631.684 320.568L647.634 332.025L858.274 112.052Z" fill="#ADC4D9"/>
<path d="M559.825 438.616L542.738 426.345L601.627 335.975L626.663 353.95L559.825 438.616Z" fill="#DEA47A" stroke="#45413C" stroke-width="14.4897" stroke-linecap="round" stroke-linejoin="round"/>
<path d="M518.344 446.32C518.344 452.416 520.766 458.263 525.077 462.574C529.388 466.885 535.235 469.307 541.331 469.307C547.428 469.307 553.275 466.885 557.586 462.574C561.897 458.263 564.319 452.416 564.319 446.32C564.319 440.223 561.897 434.376 557.586 430.065C553.275 425.754 547.428 423.332 541.331 423.332C535.235 423.332 529.388 425.754 525.077 430.065C520.766 434.376 518.344 440.223 518.344 446.32Z" fill="#BDBEC0" stroke="#45413C" stroke-width="14.4897" stroke-linecap="round" stroke-linejoin="round"/>
<path d="M788.645 102.027L759.559 36.0275M788.645 102.027L860.496 108.521M788.645 102.027L631.684 320.568" stroke="#DAEDF7" stroke-width="14.4897" stroke-linecap="round" stroke-linejoin="round"/>
<path d="M597.634 296.099C590.93 291.287 582.59 289.333 574.446 290.666C566.303 291.999 559.021 296.511 554.202 303.21L547.881 312.05C546.44 314.067 545.738 316.519 545.892 318.993C546.046 321.468 547.048 323.814 548.729 325.636C550.409 327.459 552.666 328.647 555.12 329.001C557.574 329.355 560.075 328.853 562.202 327.58L577.288 318.494L651.016 371.432L647.214 388.716C646.675 391.144 646.991 393.683 648.109 395.905C649.227 398.126 651.079 399.893 653.35 400.907C655.621 401.921 658.173 402.118 660.573 401.467C662.973 400.816 665.075 399.355 666.522 397.333L672.843 388.518C677.655 381.814 679.61 373.474 678.276 365.33C676.943 357.187 672.431 349.905 665.732 345.086L597.634 296.099Z" fill="#BDBEC0" stroke="#45413C" stroke-width="14.4897" stroke-linecap="round" stroke-linejoin="round"/>
<path d="M647.635 332.025L615.734 309.21L756.918 39.2621C758.237 36.7837 760.469 34.9154 763.14 34.0523L838.843 7.83034C841.466 7.15419 844.206 7.06245 846.868 7.56161C849.53 8.06077 852.05 9.13863 854.25 10.719C856.45 12.2994 858.276 14.3437 859.598 16.7074C860.921 19.0711 861.708 21.6966 861.905 24.3981L861.238 104.496C861.266 107.303 860.204 110.012 858.275 112.052L647.635 332.025Z" stroke="#45413C" stroke-width="14.4897" stroke-linecap="round" stroke-linejoin="round"/>
<path d="M592.892 406.37C589.288 405.433 585.946 403.685 583.121 401.258C580.297 398.832 578.065 395.791 576.596 392.37C574.436 387.404 574.009 381.855 575.386 376.617C577.013 370.379 581.042 365.037 586.593 361.758C592.143 358.478 598.766 357.527 605.015 359.111C605.781 359.308 654.546 373.333 625.213 409.234" fill="white"/>
<path d="M592.892 406.37C589.288 405.433 585.946 403.685 583.121 401.258C580.297 398.832 578.065 395.791 576.596 392.37C574.436 387.404 574.009 381.855 575.386 376.617C577.013 370.379 581.042 365.037 586.593 361.758C592.143 358.478 598.766 357.527 605.015 359.111C605.781 359.308 654.546 373.333 625.213 409.234" stroke="#45413C" stroke-width="14.4897" stroke-linecap="round" stroke-linejoin="round"/>
</svg>
