<svg width="24" height="24" viewBox="0 0 24 24" fill="none" xmlns="http://www.w3.org/2000/svg">
<path d="M2.54027 13.1848L3.1105 12.6976V12.6976L2.54027 13.1848ZM21.4597 10.8152L20.8895 11.3024V11.3024L21.4597 10.8152ZM2.04683 12.4084L2.76652 12.1973L2.76652 12.1973L2.04683 12.4084ZM2.54027 10.8152L1.97003 10.328H1.97003L2.54027 10.8152ZM2.04683 11.5916L2.76652 11.8027L2.76652 11.8027L2.04683 11.5916ZM21.4597 13.1848L20.8895 12.6976V12.6976L21.4597 13.1848ZM21.9532 12.4084L22.6729 12.6194V12.6194L21.9532 12.4084ZM21.9532 11.5916L22.6729 11.3806V11.3806L21.9532 11.5916ZM5.56106 9.00682C5.89389 8.76025 5.96382 8.29055 5.71726 7.95772C5.47069 7.62489 5.00099 7.55496 4.66816 7.80152L5.56106 9.00682ZM9.76151 12.2296C9.71992 11.8174 9.35211 11.5171 8.93999 11.5587C8.52787 11.6002 8.2275 11.9681 8.26909 12.3802L9.76151 12.2296ZM11.6198 15.7309C12.0319 15.7725 12.3998 15.4721 12.4413 15.06C12.4829 14.6479 12.1826 14.2801 11.7704 14.2385L11.6198 15.7309ZM14.6002 18.4484C15.0035 18.3536 15.2535 17.9499 15.1588 17.5467C15.0641 17.1435 14.6604 16.8934 14.2571 16.9881L14.6002 18.4484ZM4.53033 3.46967C4.23744 3.17678 3.76256 3.17678 3.46967 3.46967C3.17678 3.76256 3.17678 4.23744 3.46967 4.53033L4.53033 3.46967ZM19.4697 20.5303C19.7626 20.8232 20.2374 20.8232 20.5303 20.5303C20.8232 20.2374 20.8232 19.7626 20.5303 19.4697L19.4697 20.5303ZM7.15414 7.15414L6.62381 7.68447V7.68447L7.15414 7.15414ZM12 17.25C7.65653 17.25 4.56029 14.3946 3.1105 12.6976L1.97003 13.672C3.50781 15.4719 6.98545 18.75 12 18.75V17.25ZM12 6.75C16.3435 6.75 19.4397 9.6054 20.8895 11.3024L22.03 10.328C20.4922 8.52807 17.0146 5.25 12 5.25V6.75ZM3.1105 12.6976C2.83163 12.3712 2.80417 12.3257 2.76652 12.1973L1.32715 12.6194C1.46711 13.0967 1.70939 13.3669 1.97003 13.672L3.1105 12.6976ZM1.97003 10.328C1.7094 10.6331 1.46711 10.9033 1.32715 11.3806L2.76652 11.8027C2.80417 11.6743 2.83163 11.6288 3.1105 11.3024L1.97003 10.328ZM2.76652 12.1973C2.76689 12.1986 2.76178 12.1798 2.75708 12.1377C2.75268 12.0982 2.75 12.0507 2.75 12C2.75 11.9493 2.75268 11.9018 2.75708 11.8623C2.76178 11.8202 2.76689 11.8014 2.76652 11.8027L1.32715 11.3806C1.26785 11.5827 1.25 11.8129 1.25 12C1.25 12.1871 1.26785 12.4173 1.32715 12.6194L2.76652 12.1973ZM22.03 13.672C22.2906 13.3669 22.5329 13.0967 22.6729 12.6194L21.2335 12.1973C21.1958 12.3257 21.1684 12.3712 20.8895 12.6976L22.03 13.672ZM20.8895 11.3024C21.1684 11.6288 21.1958 11.6743 21.2335 11.8027L22.6729 11.3806C22.5329 10.9033 22.2906 10.6331 22.03 10.328L20.8895 11.3024ZM22.6729 12.6194C22.7321 12.4173 22.75 12.1871 22.75 12C22.75 11.8129 22.7321 11.5827 22.6729 11.3806L21.2335 11.8027C21.2331 11.8014 21.2382 11.8202 21.2429 11.8623C21.2473 11.9018 21.25 11.9493 21.25 12C21.25 12.0507 21.2473 12.0982 21.2429 12.1377C21.2382 12.1798 21.2331 12.1986 21.2335 12.1973L22.6729 12.6194ZM12 9.75C13.2426 9.75 14.25 10.7574 14.25 12H15.75C15.75 9.92893 14.0711 8.25 12 8.25V9.75ZM3.1105 11.3024C3.672 10.6451 4.49764 9.79461 5.56106 9.00682L4.66816 7.80152C3.49189 8.67292 2.58498 9.60824 1.97003 10.328L3.1105 11.3024ZM11.7704 14.2385C10.7117 14.1316 9.86836 13.2883 9.76151 12.2296L8.26909 12.3802C8.44753 14.1482 9.85176 15.5525 11.6198 15.7309L11.7704 14.2385ZM14.2571 16.9881C13.5494 17.1544 12.7965 17.25 12 17.25V18.75C12.9177 18.75 13.7856 18.6398 14.6002 18.4484L14.2571 16.9881ZM3.46967 4.53033L6.62381 7.68447L7.68447 6.62381L4.53033 3.46967L3.46967 4.53033ZM7.48515 7.82715C8.7835 7.18858 10.2942 6.75 12 6.75V5.25C10.0293 5.25 8.2932 5.75812 6.82314 6.48114L7.48515 7.82715ZM16.3155 17.3762L19.4697 20.5303L20.5303 19.4697L17.3762 16.3155L16.3155 17.3762ZM20.8895 12.6976C20.02 13.7154 18.5295 15.182 16.5149 16.1729L17.1769 17.5189C19.4404 16.4056 21.0857 14.7773 22.03 13.672L20.8895 12.6976ZM13.591 14.6517L16.3155 17.3762L17.3762 16.3155L14.6517 13.591L13.591 14.6517ZM14.25 12C14.25 12.6215 13.999 13.183 13.591 13.591L14.6517 14.6517C15.3294 13.9739 15.75 13.0353 15.75 12H14.25ZM6.62381 7.68447L9.34835 10.409L10.409 9.34835L7.68447 6.62381L6.62381 7.68447ZM9.34835 10.409L13.591 14.6517L14.6517 13.591L10.409 9.34835L9.34835 10.409ZM10.409 10.409C10.817 10.001 11.3785 9.75 12 9.75V8.25C10.9647 8.25 10.0261 8.67055 9.34835 9.34835L10.409 10.409Z" fill="#282930"/>
</svg>
