<svg width="1280" height="890" viewBox="0 0 1280 890" fill="none" xmlns="http://www.w3.org/2000/svg">
<g clip-path="url(#clip0_201_303)">
<path d="M258.666 0C260.317 2.79718 262.187 5.49481 263.579 8.41144C272.262 26.618 278.796 45.5611 282.148 65.4798C282.964 70.3176 283.093 75.4242 282.576 80.3118C281.114 94.2181 272.292 103.535 258.417 105.158C251.226 105.994 243.806 105.566 236.546 104.979C222.383 103.824 208.289 102.809 194.126 105.277C176.134 108.413 161.573 117.233 149.876 131.049C144.764 137.092 141.303 143.99 139.692 151.764C138.558 157.239 138.936 162.654 141.522 167.641C146.534 177.287 153.805 184.882 163.572 189.7C173.816 194.757 186.985 192.955 196.036 185.798C196.036 185.619 196.115 185.36 196.026 185.281C190.555 180.284 189.412 173.913 190.187 166.935C190.406 164.964 190.635 162.983 190.953 161.022C192.614 150.908 200.402 145.652 210.467 147.822C223.855 150.719 230.668 162.236 226.5 175.326C220.97 192.687 208.558 203.378 192.057 209.689C157.933 222.749 120.168 198.659 114.667 164.625C112.549 151.486 115.602 139.092 122.097 127.804C136.399 102.958 157.863 87.5885 185.851 81.3969C203.028 77.5943 220.314 78.2015 237.65 79.9634C242.314 80.4412 247.019 80.7598 251.703 80.7598C257.373 80.7598 259.362 78.9879 259.352 73.294C259.352 68.6354 258.775 63.8971 257.79 59.328C253.633 40.146 247.009 21.8299 237.789 4.46951C237.033 3.04604 236.506 1.49315 235.879 0.00995437C243.488 0 251.077 0 258.666 0Z" fill="black"/>
<path d="M0.000180371 761.858C9.07093 757.388 18.8379 755.686 28.7441 754.531C45.1053 752.62 61.3073 753.625 77.022 758.563C84.024 760.763 90.6082 764.376 97.272 767.571C99.2911 768.537 100.216 768.328 101.25 766.367C103.637 761.858 106.681 757.816 110.958 754.87C114.369 752.52 118.059 750.888 122.276 750.808C129.437 750.679 133.814 756.681 131.039 763.291C129.089 767.94 126.583 772.379 124.086 776.769C120.307 783.409 117.114 790.257 115.433 797.743C115.254 798.539 115.105 799.336 114.996 800.142C113.633 809.887 116.587 814.735 126.304 816.457C138.309 818.587 150.085 817.045 161.195 811.779C165.253 809.857 167.451 806.702 167.342 801.854C167.202 796.2 170.534 791.83 175.458 790.287C180.381 788.744 185.951 790.546 189.213 794.916C192.903 799.833 193.191 805.298 191.172 810.893C188.924 817.134 185.493 822.858 180.062 826.641C162.607 838.785 143.481 844.877 121.998 841.283C120.486 841.035 119.004 840.607 117.532 840.159C96.9239 833.917 86.958 818.13 90.1308 796.797C90.469 794.498 91.5829 791.79 90.7574 790.008C89.9816 788.346 87.0873 787.689 85.1578 786.534C67.8816 776.262 49.0638 775.306 29.7586 777.327C19.4347 778.402 9.5185 781.05 -0.00976562 785.171C0.000180371 777.416 0.000180371 769.632 0.000180371 761.858Z" fill="black"/>
<path d="M193.051 -5.53997e-05C193.877 1.69219 194.693 3.39438 195.538 5.07667C198.85 11.6665 201.476 18.4852 201.933 25.9311C202.56 36.0049 197.706 43.6498 188.068 46.6959C183.125 48.2587 177.854 49.075 172.672 49.4731C160.697 50.3889 148.652 50.3889 136.956 53.7137C124.832 57.1579 113.155 61.7071 101.956 67.4906C100.116 68.4462 98.3755 69.6009 96.5653 70.6262C86.2016 76.549 80.1643 85.2392 78.9509 97.3039C78.3442 103.276 78.0458 103.257 83.4664 105.417C88.6682 107.497 93.2632 110.513 96.983 114.694C98.5744 116.486 100.076 118.556 100.922 120.776C103.358 127.137 98.3357 133.189 91.642 131.995C89.1953 131.557 86.9177 130.233 84.4909 129.546C79.6472 128.192 74.8234 126.639 69.8802 125.843C64.6486 124.997 60.0336 126.968 56.5426 130.999C53.2306 134.822 50.1772 138.863 46.895 142.706C45.3235 144.537 43.6924 146.468 41.7032 147.753C37.7944 150.291 33.448 148.867 31.6378 144.557C30.9317 142.865 30.4045 140.824 30.6233 139.043C32.2147 126.032 37.2076 114.654 48.5759 107.368C52.3752 104.929 53.6384 102.669 53.8771 98.2197C54.9612 78.2313 63.3954 62.2844 80.4926 51.0559C98.276 39.3794 117.79 32.8494 138.706 30.4304C147.469 29.4151 156.371 29.5943 165.203 29.1961C169.977 28.9871 174.751 28.7282 179.525 28.4396C181.932 28.3002 182.996 27.026 182.2 24.647C180.718 20.2073 179.356 15.698 177.565 11.3877C175.944 7.47567 173.796 3.7826 171.886 -0.0100098C178.948 -5.53997e-05 186 -5.53997e-05 193.051 -5.53997e-05Z" fill="black"/>
<path d="M791.184 -0.000110801C799.33 9.82485 803.467 21.1629 803.855 33.8846C804.153 43.5901 800.692 51.8323 793.491 58.2827C783.933 66.8435 772.654 71.1736 759.764 70.656C752.623 70.3773 746.407 67.5602 741.424 62.4038C740.071 61.0002 738.987 60.9107 737.197 61.4382C724.058 65.2906 711.079 64.7829 698.557 59.079C686.751 53.7037 679.421 41.8779 679.938 29.6739C680.455 17.4798 691.236 7.76429 703.311 8.61042C714.59 9.39681 720.965 19.4607 716.499 29.425C715.047 32.6602 714.013 32.7796 711.944 29.9128C711.735 29.6241 711.546 29.3055 711.337 29.0169C708.93 25.7419 706.722 24.5274 704.803 25.4432C701.033 27.245 699.004 31.0675 699.86 34.7207C700.615 37.9658 702.495 40.4743 705.151 42.3557C713.108 47.9899 721.85 49.2242 731.229 46.875C733.069 46.4171 733.219 45.1628 733.507 43.6896C734.492 38.7224 738.341 35.537 743.005 35.7062C747.66 35.8754 751.271 39.3296 751.688 44.476C752.016 48.5175 754.145 51.2151 757.656 52.4295C760.56 53.4349 763.802 53.8231 766.886 53.8331C769.253 53.8331 771.69 52.9969 773.967 52.1906C785.753 48.0496 790.627 39.6979 788.28 27.4441C786.4 17.6092 782.312 8.90905 774.435 2.32921C773.609 1.64236 772.953 0.766375 772.217 -0.0200195C778.532 -0.000110801 784.858 -0.000110801 791.184 -0.000110801Z" fill="black"/>
<path d="M0 289.224C5.0824 291.315 10.4731 292.857 15.1875 295.585C32.235 305.44 40.6592 324.363 37.755 345.028C35.1492 363.553 25.6209 378.276 12.3728 390.838C8.59334 394.412 4.14748 397.279 0.009946 400.464C0.009946 392.869 0.009946 385.274 0.009946 377.669C0.318272 377.509 0.686274 377.4 0.934924 377.171C10.6522 368.322 17.5746 357.7 20.9363 344.919C23.3234 335.83 22.846 326.931 17.9824 318.699C13.8946 311.811 7.94685 307.232 0 305.5C0 300.074 0 294.649 0 289.224Z" fill="black"/>
<path d="M0.000180372 450.933C0.706346 450.127 1.4523 449.35 2.10873 448.504C8.25536 440.62 14.9192 433.184 23.5921 428.058C27.6501 425.659 32.2053 423.927 36.7307 422.573C40.4108 421.478 43.9515 422.782 46.3386 426.027C48.7952 429.382 48.7555 433.085 46.6668 436.489C45.0357 439.157 42.9569 441.606 40.7887 443.885C35.8754 449.061 30.5841 453.899 25.81 459.195C13.9047 472.404 6.0374 487.824 1.65122 505.045C1.26332 506.588 0.557156 508.041 -0.00976562 509.534C0.000180372 490.004 0.000180372 470.463 0.000180372 450.933Z" fill="black"/>
<path d="M960.376 -5.53997e-05C966.194 16.6636 954.408 36.7316 936.475 40.7033C913.092 45.8896 893.031 24.4578 899.824 1.56278C899.973 1.04515 900.063 0.517572 900.182 -0.0100098C906.329 -0.0100098 912.476 -0.0100098 918.622 -0.0100098C917.608 2.28945 916.255 4.50927 915.628 6.91823C912.883 17.4499 919.905 26.1302 930.09 24.7963C936.585 23.9501 941.339 20.4163 943.716 14.2347C945.725 8.99869 944.9 4.1111 940.861 -0.0100098C947.366 -5.53997e-05 953.871 -5.53997e-05 960.376 -5.53997e-05Z" fill="black"/>
<path d="M972.47 439.276C972.799 440.282 972.968 440.949 973.226 441.576C977.503 451.799 982.824 461.425 989.568 470.234C998.887 482.409 1011.03 490.77 1025.08 496.504C1029 498.097 1033.01 499.48 1036.99 500.894C1041.5 502.496 1043.52 506.219 1042.09 512.401C1040.47 519.419 1038.72 526.516 1035.95 533.126C1026.8 554.956 1009.74 568.155 987.658 575.124C963.449 582.768 939.499 581.514 916.116 571.54C882.698 557.275 859.374 533.514 848.364 498.475C845.032 487.864 843.58 476.924 845.39 465.805C845.798 463.276 846.783 460.738 847.986 458.458C849.468 455.661 852.014 453.989 855.336 454.277C858.648 454.556 860.817 456.607 861.901 459.613C862.627 461.634 862.995 463.794 863.373 465.924C864.626 472.852 865.044 480.039 867.162 486.679C876.641 516.343 897.239 536.152 925.127 548.257C945.338 557.036 966.135 555.802 986.166 546.754C1000.12 540.452 1009.12 529.572 1013.18 514.681C1013.84 512.262 1013.46 511.067 1010.94 510.012C996.788 504.059 985.271 494.642 975.971 482.488C964.036 466.89 955.294 449.649 949.604 430.835C946.83 421.667 944.005 412.509 941.22 403.341C940.882 402.216 940.593 401.061 940.454 399.907C939.758 394.312 942.891 389.315 947.934 387.862C952.907 386.419 958.476 388.668 960.426 393.894C963.4 401.848 969.208 406.925 975.524 412.131C990.86 424.783 1008.83 432.039 1027 439.147C1035.82 442.591 1044.51 446.374 1053.06 450.425C1075.26 460.957 1094.54 475.839 1111.72 493.08C1132.72 514.143 1144.89 539.935 1148.29 569.678C1151.68 599.402 1129.71 625.164 1110.17 632.68C1098.54 637.149 1086.55 639.518 1074.17 639.568C1064.6 639.608 1055.03 639.021 1045.46 638.722C1044.32 638.682 1043.17 638.712 1041.72 638.712C1042.08 639.608 1042.29 640.265 1042.6 640.882C1046.68 649.154 1051.02 657.307 1054.74 665.728C1056.65 670.048 1057.5 674.836 1058.69 679.455C1058.98 680.55 1058.82 681.795 1058.7 682.959C1057.86 691.032 1050.49 694.646 1043.62 690.266C1039.02 687.319 1035.85 682.999 1033.25 678.291C1031.42 674.966 1029.98 671.432 1028.15 668.107C1022.36 657.585 1016.52 647.084 1010.61 636.632C1007.68 631.435 1004.58 626.349 1001.52 621.222C1000.6 619.669 999.683 618.106 998.579 616.683C995.396 612.592 994.859 608.879 997.057 605.196C999.265 601.503 1003.78 599.243 1008.28 600.497C1011.57 601.413 1014.91 602.996 1017.58 605.116C1020.64 607.555 1022.91 610.959 1025.66 613.826C1026.44 614.632 1027.72 615.568 1028.68 615.469C1038.65 614.483 1048.53 615.658 1058.42 616.583C1068.51 617.529 1078.6 618.266 1088.69 616.424C1111.85 612.194 1126.25 594.744 1125.86 571.122C1125.54 551.542 1118.5 534.022 1108.63 517.528C1098.98 501.392 1085.53 489.377 1068.2 481.901C1060.65 478.646 1053.03 475.54 1045.34 472.643C1025.28 465.088 1005.6 456.686 986.474 447.001C981.839 444.691 977.374 442.014 972.47 439.276Z" fill="black"/>
<path d="M532.24 296.361C533.633 297.506 534.926 298.492 536.129 299.587C538.646 301.866 538.546 302.772 535.712 304.733C530.54 308.307 523.916 308.058 518.187 304.076C512.935 300.423 510.658 294.381 512.239 288.109C513.502 283.112 516.446 279.101 520.126 275.676C529.843 266.648 541.063 259.829 553.346 255.051C564.028 250.9 575.038 247.585 585.979 244.151C598.312 240.279 610.585 236.297 622.252 230.593C633.58 225.058 643.049 217.304 651.224 207.788C660.196 197.345 664.472 184.912 666.889 171.653C667.506 168.279 667.983 164.884 668.61 160.902C651.105 161.46 634.555 158.125 618.502 151.516C620.7 156.771 622.908 161.838 626.717 166.029C627.981 167.423 629.264 168.906 630.089 170.568C633.481 177.367 628.906 185.221 621.416 185.111C595.716 184.753 570.712 180.712 546.911 170.538C535.552 165.681 525.447 159.021 516.665 150.321C516.148 149.813 515.67 149.216 515.054 148.878C509.961 146.031 508.519 141.521 510.339 136.385C512.687 129.775 515.233 123.156 518.555 117.004C531.564 92.9241 552.789 79.6151 578.499 72.7367C605.403 65.5396 632.257 66.7342 658.773 74.7176C694.678 85.528 725.123 104.77 748.337 134.623C757.119 145.921 764.042 158.265 767.602 172.27C768.09 174.182 768.517 176.172 768.547 178.124C768.597 181.468 767.055 184.086 763.912 185.45C760.76 186.824 757.826 186.117 755.389 183.827C754.096 182.613 753.061 181.07 752.057 179.587C741.226 163.501 729.579 148.101 715.187 134.951C689.566 111.549 659.848 97.0452 625.126 93.6906C592.265 90.5152 563.67 100.141 540.138 123.564C536.149 127.535 533.205 132.552 529.764 137.062C528.541 138.664 528.869 139.7 530.39 141.083C544.444 153.865 561.352 160.873 579.444 165.352C586.784 167.174 594.343 168.129 601.813 169.453C602.668 169.603 603.563 169.583 604.886 169.662C604.399 168.388 604.08 167.482 603.702 166.616C600.201 158.673 596.631 150.759 593.189 142.795C592.115 140.317 591.091 137.759 590.544 135.141C589.679 131.039 590.773 127.346 594.294 124.798C597.904 122.19 601.793 122.349 605.523 124.529C607.611 125.754 609.501 127.336 611.43 128.829C624.112 138.645 637.797 146.339 654.029 148.33C658.405 148.868 662.861 148.818 667.267 149.067C669.058 149.166 669.794 148.38 670.022 146.598C670.36 144.01 670.808 141.402 671.574 138.913C672.638 135.429 675.154 133.568 678.019 133.677C680.824 133.787 683.221 135.608 683.937 139.122C684.921 143.98 685.707 148.927 685.956 153.865C686.682 168.269 684.842 182.424 680.386 196.131C673.155 218.399 658.992 235.281 639.239 247.515C628.359 254.255 616.612 259.232 604.448 263.154C592.921 266.867 581.374 270.49 569.816 274.123C557.971 277.856 547.06 283.351 537.363 291.165C536.03 292.24 534.807 293.465 533.563 294.639C533.265 294.948 533.036 295.336 532.24 296.361Z" fill="black"/>
<path d="M382.453 679.216C380.892 686.712 379.241 694.198 377.789 701.723C372.686 728.092 369.553 754.621 371.503 781.547C371.741 784.792 372.139 788.027 372.308 791.283C372.607 797.424 369.732 802.382 364.759 804.542C357.936 807.498 350.248 803.855 347.742 796.17C346.339 791.88 345.245 787.46 344.44 783.03C340.252 760.026 328.834 740.605 314.651 722.578C307.053 712.912 297.504 705.496 286.653 699.822C274.897 693.68 262.485 692.207 249.545 695.103C242.225 696.746 236.794 700.847 233.263 707.487C227.743 717.879 224.968 728.948 226.082 740.685C227.614 756.771 241.071 767.521 257.124 765.919C258.994 765.73 260.853 765.421 263.211 765.103C262.624 763.838 262.266 762.873 261.759 761.987C259.938 758.861 257.969 755.825 256.248 752.65C253.464 747.513 254.07 742.237 257.681 738.614C261.261 735.02 266.712 734.304 271.744 736.852C276.419 739.221 279.741 743.014 282.327 747.463C290.861 762.106 294.819 778.003 294.998 794.876C295.098 803.984 294.292 813.013 290.572 821.434C289.14 824.679 287.2 827.885 284.813 830.493C280.994 834.684 275.375 835.48 270.929 833.18C266.582 830.931 264.136 826.053 265.041 820.528C265.518 817.612 266.513 814.755 267.507 811.958C270.471 803.646 270.829 787.848 268.015 780.173C267.289 780.442 266.533 780.651 265.836 780.99C233.751 796.29 205.076 772.429 201.545 746.448C198.661 725.205 204.201 706.242 218.334 690.067C227.604 679.465 240.036 675.523 253.633 674.558C271.545 673.283 288.006 677.464 302.995 687.548C314.532 695.303 324.438 704.699 332.723 715.809C336.99 721.532 341.038 727.425 345.186 733.239C345.703 733.955 346.23 734.662 347.125 735.877C347.364 734.622 347.553 733.906 347.642 733.179C351.084 703.634 356.892 674.597 366.54 646.407C367.415 643.848 368.3 641.25 369.563 638.871C371.821 634.651 375.411 632.212 380.345 632.451C385.159 632.68 388.451 635.357 390.33 639.658C391.494 642.296 392.349 645.073 393.245 647.83C401.639 673.761 414.917 697.144 431.169 718.795C442.786 734.274 458.769 744.159 476.871 750.49C488.129 754.431 493.848 751.734 498.782 740.784C501.984 733.687 502.969 726.042 503.735 718.377C503.834 717.391 503.824 716.376 504.003 715.41C504.56 712.444 506.142 710.224 509.096 709.278C512.02 708.343 514.974 708.88 516.804 711.19C518.644 713.519 520.454 716.356 520.931 719.203C523.438 734.154 521.1 748.24 511.831 760.633C503.347 771.971 491.65 775.863 478.004 772.14C475.826 771.543 473.638 770.886 471.599 769.95C449.449 759.787 429.378 746.667 414.897 726.669C404.305 712.046 394.776 696.646 384.781 681.595C384.243 680.789 383.776 679.933 383.269 679.097C382.96 679.117 382.712 679.167 382.453 679.216Z" fill="black"/>
<path d="M607.511 530.916C606.497 532.19 605.89 532.917 605.333 533.674C596.929 544.992 586.645 554.189 574.61 561.556C557.115 572.267 539.809 583.276 522.384 594.107C510.956 601.204 503.556 611.318 499.657 624.099C498.364 628.33 498.066 632.62 499.01 636.96C500.9 645.67 510.14 651.613 518.475 649.463C518.803 649.373 519.111 649.184 519.42 649.045C518.644 645.451 517.858 641.947 517.162 638.443C516.973 637.478 516.913 636.462 516.963 635.477C517.142 632.192 518.306 629.405 521.588 628.14C524.94 626.846 527.943 627.872 530.151 630.49C532.3 633.028 534.359 635.746 535.88 638.682C542.852 652.101 562.178 655.097 573.168 639.22C574.242 637.677 575.097 635.566 575.058 633.735C574.859 624.169 562.933 613.776 553.166 614.543C553.166 615.319 553.127 616.106 553.176 616.882C553.375 619.898 552.848 620.426 549.805 620.018C545.289 619.42 541.719 617.35 539.918 613C538.068 608.53 539.192 604.419 542.196 600.865C547.278 594.863 553.942 593.629 561.153 595.5C564.773 596.436 568.414 597.919 571.567 599.91C582.716 606.948 590.156 616.902 593.448 629.763C594.542 634.043 594.273 638.384 592.921 642.614C586.376 663.1 562.108 675.802 541.838 668.953C536.636 667.191 531.932 663.966 526.999 661.408C527.088 661.169 527.178 660.92 527.267 660.671C526.899 660.92 526.491 661.119 526.173 661.418C513.601 673.174 497.2 669.69 487.433 661.936C476.264 653.066 471.967 641.001 473.708 627.235C476.523 604.927 487.831 587.457 506.281 574.755C510.876 571.59 515.929 569.051 520.941 566.573C538.267 558.022 554.191 547.152 570.174 536.471C581.552 528.866 589.738 518.045 596.163 506.01C599.853 499.102 601.623 491.676 600.808 483.762C599.704 473.071 595.407 470.135 585.242 473.38C582.776 474.166 580.448 475.44 578.111 476.615C576.271 477.541 575.804 479.004 576.838 480.905C578.608 484.16 580.448 487.386 582.01 490.73C582.607 491.995 583.044 493.836 582.537 494.941C582.219 495.638 579.971 495.787 578.648 495.628C575.167 495.2 571.606 494.832 568.284 493.776C555.166 489.616 550.6 475.6 558.885 464.63C561.173 461.594 564.216 458.926 567.409 456.836C570.84 454.586 574.729 452.834 578.638 451.55C602.648 443.646 621.326 455.96 623.664 481.234C625.225 498.146 626.518 515.089 627.99 532.021C628.726 540.423 630.109 548.695 633.47 556.539C635.291 560.769 638.264 563.676 642.551 565.328C644.51 566.085 646.002 565.727 647.355 564.104C652.02 558.48 652.676 550.765 646.738 545.688C644.988 544.195 643.446 542.284 642.273 540.283C637.727 532.559 642.402 524.028 651.373 523.5C656.973 523.172 661.657 525.322 665.566 529.124C674.299 537.625 677.203 548.038 675.035 559.893C673.483 568.394 669.594 575.761 663.458 581.873C655.889 589.418 646.858 591.767 636.554 589.099C620.302 584.899 610.137 573.003 607.959 554.817C607.143 548.038 607.601 541.119 607.491 534.261C607.501 533.385 607.511 532.529 607.511 530.916Z" fill="black"/>
<path d="M725.789 749.604C725.978 746.04 726.207 742.715 726.336 739.4C726.764 727.833 727.182 716.306 725.073 704.789C723.203 694.576 731.339 686.881 741.583 688.852C744.299 689.37 746.974 690.405 749.47 691.629C752.544 693.132 755.508 694.924 758.332 696.855C769.104 704.222 780.432 710.582 792.159 716.276C802.503 721.293 812.588 726.748 821.43 734.234C823.996 736.414 831.953 736.225 834.34 734.085C834.847 733.637 835.125 732.9 835.434 732.253C838.875 724.986 847.25 723.503 852.899 729.227C856.718 733.089 858.071 738.007 857.643 743.193C856.629 755.497 850.502 765.103 840.079 771.254C832.858 775.525 826.781 774.211 821.798 768.378C819.739 765.969 817.67 763.58 815.701 761.101C807.804 751.176 798.146 743.462 786.808 737.798C773.719 731.258 760.65 724.658 747.571 718.088C747.272 717.939 746.914 717.899 746.447 717.77C746.347 718.237 746.228 718.556 746.218 718.894C745.8 732.631 745.313 746.368 745.045 760.105C744.965 764.057 745.393 768.029 745.85 771.961C746.407 776.699 745.154 780.631 741.096 783.269C736.939 785.957 732.672 785.559 728.614 782.911C727.49 782.174 726.475 781.239 725.54 780.273C717.405 771.802 709.338 763.251 701.163 754.81C688.502 741.74 678.774 726.728 671.225 710.224C663.855 694.108 656.426 678.032 649.016 661.935C648.568 660.97 648.051 660.044 647.554 659.089C647.186 659.288 646.967 659.327 646.907 659.437C638.722 676.598 630.984 693.949 627.175 712.703C624.479 725.982 623.325 739.4 625.921 752.859C628.438 765.909 639.965 773.026 652.666 769.711C655.163 769.064 656.466 768.029 656.396 765.103C656.316 761.698 656.654 758.214 657.321 754.869C658.375 749.574 662.871 746.309 667.665 746.886C672.508 747.473 675.86 751.306 675.82 756.761C675.701 774.559 676.298 792.387 673.672 810.096C671.981 821.504 669.495 832.683 664.82 843.264C663.408 846.47 661.846 849.764 659.638 852.422C657.838 854.592 655.202 856.613 652.547 857.429C645.933 859.47 640.164 853.647 641.666 846.878C641.934 845.663 642.382 844.419 643.009 843.344C650.637 830.214 653.531 815.74 654.984 800.879C655.431 796.309 655.72 791.721 656.107 786.843C655.073 786.952 654.397 786.962 653.74 787.102C631.083 791.989 611.122 779.337 606.218 756.721C602.3 738.644 604.08 720.736 608.675 703.027C612.554 688.066 618.82 674.04 625.951 660.383C628.925 654.699 631.998 649.055 634.863 643.311C636.146 640.733 637.091 637.985 638.055 635.268C639.319 631.744 641.556 629.345 645.356 628.837C649.145 628.339 652.179 629.922 654.088 633.108C656.744 637.517 659.36 641.987 661.528 646.646C668.709 662.045 675.572 677.604 682.802 692.973C686.492 700.817 690.461 708.552 694.777 716.057C702.376 729.267 713.536 739.371 724.814 749.305C724.964 749.434 725.182 749.424 725.789 749.604Z" fill="black"/>
<path d="M490.029 52.1907C465.96 43.2118 441.473 37.9758 416.25 36.3533C397.611 35.1588 379.47 38.1351 361.736 43.6299C351.929 46.666 343.296 51.9319 336.055 59.2881C328.357 67.1123 328.506 72.627 336.304 80.3516C342.809 86.802 350.577 89.6888 359.667 88.9322C361.099 88.8128 362.502 88.2852 364.421 87.8174C363.467 86.5133 362.78 85.7966 362.363 84.9505C361.259 82.7108 359.846 80.4909 359.329 78.1019C358.553 74.5581 359.986 71.4723 363.029 69.4018C366.092 67.3213 369.375 67.3412 372.488 69.2525C373.84 70.0787 375.094 71.2533 376.028 72.5474C379.43 77.2657 383.846 80.7597 388.71 83.8257C393.474 86.8219 398.536 88.6137 404.225 88.9223C407.06 89.0716 409.934 89.8182 412.64 90.7439C415.236 91.6299 417.155 93.561 417.195 96.5573C417.245 99.5536 415.365 101.425 412.839 102.55C406.185 105.506 399.282 106.681 392.31 103.924C387.367 101.972 382.623 99.5137 377.789 97.274C376.983 96.8957 376.217 96.4478 375.471 96.0496C366.739 106.84 355.192 105.546 343.784 103.396C333.131 101.385 324.777 95.2135 318.322 86.6129C310.514 76.2106 310.186 64.0364 317.466 53.2558C324.269 43.172 333.678 36.1144 344.569 30.9481C355.888 25.5727 368.072 23.4126 380.265 21.1331C399.332 17.5694 418.349 18.5947 437.485 20.6453C453.528 22.3674 468.924 26.1003 483.952 31.8639C494.018 35.7162 504.71 36.5126 515.372 37.0899C516.605 37.1596 517.878 36.8112 519.102 36.5325C521.896 35.8954 524.612 35.6963 527.297 37.0501C528.063 37.4284 529.038 37.4781 529.923 37.508C531.454 37.5677 532.996 37.3985 534.528 37.4881C545.956 38.1948 555.166 33.2177 563.57 26.1799C563.64 26.1202 563.699 26.0605 563.769 26.0007C567.27 22.9149 569.965 22.4172 572.402 24.428C574.879 26.4686 575.356 30.3508 572.939 33.8249C565.38 44.6751 555.424 52.1807 541.987 53.654C534.021 54.53 525.944 54.311 517.918 54.7689C516.347 54.8585 514.397 55.3462 513.333 56.3715C499.09 70.1484 487.364 85.7369 479.845 104.222C477.348 110.354 476.563 116.785 476.99 123.384C477.169 126.181 477.428 128.989 477.358 131.776C477.149 141.004 470.008 148.21 460.898 146.877C429.518 142.278 398.944 148.22 368.31 153.267C349.413 156.383 330.635 160.225 311.837 163.899C308.326 164.585 304.905 165.86 301.523 167.074C297.873 168.378 295.028 168.119 293.258 165.989C291.517 163.899 291.487 160.713 293.427 157.607C297.435 151.197 302.846 146.14 310.086 143.97C318.362 141.491 326.826 139.411 335.349 138.037C371.036 132.254 406.851 127.436 442.905 124.509C445.879 124.27 448.853 124.031 451.837 123.942C453.538 123.892 454.254 123.374 454.114 121.533C453.13 108.333 456.959 96.3582 463.404 85.0301C469.978 73.4532 478.253 63.24 487.971 54.1716C488.637 53.4947 489.343 52.8377 490.029 52.1907Z" fill="black"/>
<path d="M337.756 525.043C332.465 524.605 327.163 524.247 321.892 523.709C302.845 521.758 283.769 519.956 264.762 517.647C255.324 516.502 246.213 513.655 237.55 509.614C232.249 507.135 227.475 503.93 223.715 499.371C216.037 490.043 216.683 478.755 225.903 470.931C229.921 467.517 234.586 464.7 239.33 462.35C258.118 453.043 277.046 444.034 295.923 434.906C296.858 434.448 297.773 433.951 299.106 433.254C297.932 432.557 297.196 432.079 296.41 431.671C285.738 426.186 274.46 425.449 262.863 427.47C261.112 427.779 259.401 429.232 257.75 429.103C250.51 428.545 246.263 422.224 248.133 415.167C249.336 410.617 252.101 407.034 256.278 405.192C260.177 403.48 264.454 401.997 268.651 401.678C288.553 400.145 306.346 405.78 321.713 418.641C323.414 420.064 324.607 420.164 326.437 419.029C330.664 416.421 335.011 414.002 339.357 411.583C340.849 410.757 342.421 410 344.052 409.513C347.344 408.527 350.477 409.751 352.078 412.419C353.739 415.187 353.301 418.651 350.775 421.099C349.621 422.224 348.249 423.15 346.886 424.016C342.848 426.574 338.77 429.063 334.444 431.741C335.15 432.736 335.767 433.592 336.373 434.448C342.331 442.919 346.777 452.028 347.901 462.48C348.11 464.431 348.1 466.481 347.732 468.403C346.727 473.688 341.655 476.227 337 473.519C334.663 472.155 332.664 469.995 330.923 467.865C325.095 460.718 319.435 453.451 313.766 446.174C312.662 444.761 311.727 444.592 310.136 445.478C289.448 457.045 269.069 469.079 250.142 483.424C249.147 484.18 248.192 484.977 246.75 486.131C248.59 486.977 249.992 487.714 251.455 488.281C262.266 492.482 273.634 494.184 285.062 495.309C303.86 497.161 322.708 498.425 341.496 500.346C349.92 501.212 358.255 502.974 366.589 504.567C369.116 505.055 371.622 506.11 373.91 507.334C382.851 512.152 384.85 522.704 378.077 530.289C375.65 533.006 372.607 535.346 369.444 537.167C361.219 541.896 352.824 546.325 344.41 550.715C330.107 558.171 316.462 566.682 303.591 576.378C299.504 579.454 295.953 583.246 292.233 586.8C290.035 588.9 289.647 591.419 291.646 593.818C294.222 596.903 296.848 599.989 299.782 602.727C301.821 604.638 302.229 605.484 300.051 607.435C295.505 611.507 289.995 612.721 284.127 611.915C270.302 610.003 261.957 596.864 265.896 583.465C267.816 576.955 271.565 571.5 276.389 566.921C281.163 562.392 286.156 558.012 291.457 554.14C305.193 544.096 319.624 535.127 334.832 527.452C335.856 526.934 336.851 526.377 337.865 525.829C337.855 525.571 337.806 525.302 337.756 525.043Z" fill="black"/>
<path d="M826.392 324.801C824.145 321.227 821.947 318.122 820.166 314.787C818.824 312.268 817.66 309.541 817.023 306.764C816.128 302.862 817.441 299.377 820.644 296.879C823.876 294.37 827.646 294.002 831.097 295.953C833.951 297.566 836.657 299.726 838.835 302.175C843.997 307.978 849.139 313.861 853.684 320.142C866.912 338.428 881.583 355.46 897.287 371.636C899.356 373.766 901.296 376.066 903.006 378.505C905.224 381.67 905.941 385.144 903.623 388.638C901.604 391.694 897.586 393.217 893.498 392.023C890.594 391.167 887.55 390.042 885.183 388.24C879.086 383.591 872.82 378.992 867.559 373.478C858.339 363.812 849.766 353.529 841.043 343.396C839.66 341.793 838.686 341.116 836.587 342.141C830.391 345.168 823.677 346.292 816.884 346.611C800.911 347.367 784.928 348.234 768.944 348.353C761.982 348.403 754.831 347.407 748.078 345.655C734.68 342.191 727.897 332.954 727.708 319.107C727.549 306.853 730.075 294.988 733.855 283.431C737.336 272.779 741.245 262.258 745.114 251.736C748.038 243.792 753.27 239.91 761.694 240.517C774.753 241.443 787.782 242.876 800.782 244.449C821.141 246.908 841.411 250.213 861.959 250.84C883.94 251.507 905.871 251.218 927.603 247.246C928.657 247.057 929.761 246.898 930.825 246.968C933.919 247.187 936.166 249.128 936.823 251.985C937.439 254.653 936.385 257.579 933.76 258.913C931.711 259.958 929.383 260.755 927.106 260.983C911.471 262.576 895.835 264.209 880.17 265.423C856.26 267.285 832.31 266.896 808.36 266.18C795.172 265.781 781.974 265.901 768.785 265.891C767.93 265.891 766.547 266.578 766.299 267.265C761.077 281.898 754.841 296.212 752.056 311.631C751.768 313.234 751.559 314.847 751.4 316.469C750.843 322.153 751.619 323.746 757.288 324.831C763.295 325.976 769.462 326.931 775.549 326.842C791.89 326.593 808.231 325.747 824.562 325.129C825.06 325.119 825.567 324.96 826.392 324.801Z" fill="black"/>
<path d="M150.284 335.98C144.774 343.047 138.926 349.07 135.813 356.934C133.943 361.642 133.645 366.609 134.938 371.596C135.505 373.786 136.072 375.976 136.678 378.146C137.713 381.849 136.609 384.219 132.978 385.582C128.264 387.364 123.908 386.15 120.347 383.004C113.126 376.633 109.098 368.59 109.844 358.795C110.65 348.194 115.553 339.235 122.336 331.351C128.841 323.796 137.036 318.579 146.565 315.553C150.434 314.329 154.332 313.891 158.251 315.424C158.818 315.643 159.484 315.673 160.111 315.693C165.641 315.862 168.615 318.231 169.729 323.676C170.564 327.747 171.201 331.859 171.867 335.97C174.125 349.757 180.152 361.682 189.511 371.985C192.734 375.528 196.056 379.002 198.98 382.785C206.101 391.983 206.589 401.032 200.542 410.996C192.615 424.066 180.858 430.964 165.721 432.527C153.586 433.781 141.472 435.245 129.388 436.867C125.38 437.405 121.441 438.609 117.552 439.754C88.3209 448.335 72.6659 469.109 65.6042 497.668C62.9586 508.369 63.4161 519.04 65.6141 529.672C67.0862 536.769 71.0049 542.632 75.9679 547.809C77.7483 549.66 79.7076 550.735 82.4627 550.307C84.7403 549.959 85.3271 551.064 84.1734 553.224C82.0847 557.136 78.5937 558.778 74.3467 558.888C68.4289 559.037 63.0182 557.196 58.5028 553.473C47.3831 544.315 40.222 532.768 38.9589 518.165C37.5465 501.979 41.7736 486.788 47.8108 471.986C57.6772 447.797 74.3268 430.267 98.5354 420.104C110.819 414.948 123.808 413.405 136.897 412.36C146.624 411.583 156.371 410.996 166.089 410.16C173.856 409.503 179.446 405.163 183.932 399.08C185.473 396.99 185.444 395.069 183.604 393.267C181.147 390.868 178.71 388.449 176.114 386.199C161.344 373.338 152.552 357.372 150.682 337.742C150.692 337.413 150.563 337.095 150.284 335.98Z" fill="black"/>
<path d="M716.062 556.19C716.748 560.729 717.653 564.791 717.941 568.902C718.837 581.882 719.592 594.883 720.199 607.883C720.319 610.442 720.796 611.437 723.621 611.566C735.198 612.094 746.278 615.11 756.999 619.351C763.554 621.939 770.128 624.567 776.394 627.762C800.593 640.096 826.293 648.408 852.043 656.62C855.316 657.665 858.697 658.451 861.81 659.865C864.386 661.03 867.042 662.543 868.942 664.573C874.143 670.128 872.094 678.111 865.043 680.958C861.432 682.412 857.752 682.242 854.142 681.098C828.153 672.806 801.925 665.171 777.249 653.215C759.555 644.645 741.394 637.388 722.069 633.227C716.191 631.963 710.542 629.594 704.872 627.483C700.417 625.831 697.851 622.267 697.333 617.658C696.697 611.915 696.657 606.111 696.209 600.348C695.205 587.467 694.171 574.586 692.997 561.725C692.748 558.958 691.485 556.27 691.336 553.503C691.147 550.048 691.326 546.515 691.903 543.11C692.36 540.423 694.946 539.397 697.343 538.77C703.45 537.187 709.656 536.739 715.863 538.053C736.6 542.443 756.631 549.202 776.523 556.409C782.64 558.629 788.648 561.138 794.705 563.517C795.6 563.865 796.515 564.174 797.649 564.582C797.897 563.417 798.056 562.551 798.265 561.695C799.29 557.673 800.135 553.592 801.438 549.65C802.651 545.967 804.979 542.911 808.44 540.96C812.816 538.491 817.302 538.332 821.499 541.249C825.726 544.185 827.139 548.476 826.114 553.413C825.07 558.45 823.727 563.427 822.494 568.424C820.465 576.706 821.34 584.69 824.582 592.544C826.552 597.292 828.511 602.09 829.854 607.037C831.495 613.079 829.834 617.599 825.895 620.077C822.036 622.506 816.486 622.058 812.11 618.106C809.097 615.379 806.401 612.024 804.402 608.481C800.672 601.901 798.733 594.604 797.758 587.099C797.529 585.297 796.763 584.491 795.093 583.903C769.76 575.044 744.448 566.115 719.135 557.216C718.23 556.917 717.335 556.618 716.062 556.19Z" fill="black"/>
<path d="M334.026 274.322C339.874 269.654 342.948 263.622 344.718 256.833C344.877 256.205 344.34 255.15 343.803 254.633C339.387 250.392 338.353 244.648 341.018 238.447C343.783 232.006 348.597 229.209 354.853 229.14C363.287 229.05 367.783 233.589 370.548 240.796C373.551 248.64 373.303 256.305 369.583 263.91C364.013 275.278 355.569 283.5 343.524 288.169C343.713 288.816 343.853 289.483 344.091 290.12C349.661 305.022 346.996 317.455 335.15 327.976C321.037 340.519 304.904 343.794 287.349 336.139C254.548 321.835 250.509 290.697 258.397 269.455C268.939 241.035 287.787 219.922 315.218 206.832C341.157 194.459 368.568 188.944 397.292 190.477C405.249 190.905 413.117 192.259 420.546 195.285C424.017 196.698 427.23 198.719 430.801 200.59C431.258 199.973 431.885 199.117 432.511 198.261C437.086 192.099 442.219 186.435 449.32 183.26C452.602 181.787 456.362 180.951 459.962 180.741C464.498 180.473 468.536 183.877 469.749 187.948C471.261 192.995 468.317 196.449 463.165 195.952C461.862 195.822 460.3 196.36 459.127 197.047C449.827 202.542 443.74 210.833 439.265 220.439C438.24 222.649 437.484 224.989 436.45 227.198C434.749 230.852 432.143 232.584 429.189 232.206C426.017 231.807 423.381 229.159 423.142 225.178C422.953 221.992 423.261 218.648 424.057 215.562C424.694 213.123 423.968 212.138 422.008 211.172C416.061 208.235 409.645 206.902 403.161 206.563C369.225 204.771 337.358 211.799 308.524 230.235C292.213 240.667 281.372 255.708 274.638 273.765C272.142 280.464 271.873 287.333 273.336 294.331C276.17 307.829 289.09 320.461 302.736 322.521C311.28 323.816 318.64 320.889 324.667 314.837C333.081 306.385 331.012 292.698 320.42 287.074C311.677 282.425 302.945 283.61 294.471 288.049C292.879 288.886 291.507 290.06 291.666 292.3C291.706 292.897 290.87 293.873 290.214 294.142C286.544 295.665 282.307 293.514 280.855 289.533C279.721 286.427 280.397 283.47 281.67 280.594C286.454 269.743 297.982 263.661 310.921 264.945C319.545 265.782 327.273 268.648 334.026 274.322Z" fill="black"/>
<path d="M977.91 730.929C980.287 728.67 982.535 726.758 984.524 724.598C987.16 721.741 989.458 718.586 992.133 715.769C998.548 709.01 1007.39 710.244 1010.94 718.855C1012.86 723.503 1013.66 728.789 1014.04 733.856C1014.91 745.035 1015.12 756.253 1015.76 767.442C1015.97 771.035 1016.61 774.619 1017.18 778.193C1018.16 784.384 1021.51 789.013 1026.87 792.159C1028.58 793.154 1028.19 794.279 1027.45 795.553C1025.05 799.764 1019.12 802.053 1013.64 800.64C1006.13 798.709 1000.65 794.149 997.047 787.291C993.496 780.522 991.924 773.176 991.318 765.66C990.751 758.642 990.691 751.575 990.412 744.537C990.383 743.731 990.412 742.934 990.412 741.58C989.488 742.277 988.911 742.725 988.314 743.143C983.46 746.597 978.736 750.251 973.713 753.436C969.785 755.925 965.359 756.442 961.012 754.312C956.099 751.903 954.08 747.573 953.97 742.357C953.901 738.933 954.189 735.488 954.488 732.074C955.761 717.242 955.035 702.43 954.219 687.618C954.199 687.19 954.05 686.772 953.851 685.866C952.946 686.712 952.23 687.21 951.713 687.867C946.312 694.775 940.593 701.454 935.67 708.681C928.787 718.785 924.938 730.143 923.844 742.367C923.655 744.437 923.675 746.518 923.695 748.598C923.764 756.731 927.066 763.331 934.039 767.442C939.041 770.398 944.571 772.489 949.932 774.838C953.98 776.61 958.217 777.974 962.176 779.905C964.314 780.95 966.274 782.602 967.905 784.354C970.69 787.351 971.565 791.014 970.073 794.936C968.581 798.858 965.468 801.058 961.42 801.396C958.217 801.665 954.885 801.555 951.723 800.978C940.504 798.937 929.941 795.115 920.413 788.674C906.17 779.039 898.889 765.68 898.621 748.459C898.452 738.126 900.143 728.082 903.445 718.337C909.114 701.604 918.085 686.911 931.204 674.936C936.595 670.009 942.652 666.076 949.783 664.115C951.534 663.638 951.832 662.722 951.504 661.139C951.086 659.108 950.778 657.048 950.459 654.987C950.101 652.648 949.604 650.826 946.949 649.582C943.209 647.83 942.284 642.156 944.422 638.045C947.446 632.212 954.696 630.46 960.525 634.183C964.175 636.512 966.771 639.916 968.024 643.888C970.312 651.095 972.629 658.392 973.833 665.838C976.916 684.89 977.761 704.142 977.443 723.434C977.413 725.514 977.363 727.595 977.343 729.675C977.353 729.854 977.483 730.003 977.91 730.929Z" fill="black"/>
<path d="M1033.95 102.102C1020.58 108.443 1008.43 116.098 997.166 125.465C997.653 125.833 997.842 126.082 998.061 126.112C1005.87 127.187 1012.71 130.651 1019.18 134.862C1024.63 138.416 1029.87 142.278 1035.23 145.971C1047.08 154.133 1060.04 159.041 1074.62 158.275C1090.92 157.418 1105.57 152.222 1117.43 140.496C1120.83 137.131 1123.29 133.16 1124.66 128.561C1127.66 118.576 1123.11 108.702 1113.5 104.67C1104.88 101.047 1096.38 101.395 1088.24 106.134C1085.44 107.766 1082.79 109.697 1080.23 111.698C1079.24 112.474 1078.44 113.719 1078.01 114.923C1077.28 116.904 1076.09 117.133 1074.41 116.406C1070.89 114.893 1069.25 111.997 1068.77 108.373C1067.91 102.062 1070.34 96.866 1074.46 92.3069C1091.05 73.9511 1118 74.0904 1134.44 92.6155C1149.85 109.976 1149.26 136.445 1132.97 152.989C1122.34 163.789 1109.1 169.324 1094.29 171.484C1068.58 175.237 1044.69 170.329 1022.62 156.542C1017.79 153.526 1012.83 150.729 1007.82 148.041C1000.83 144.289 993.506 143.91 986.036 146.538C982.625 147.733 979.273 149.116 975.832 150.192C973.614 150.878 971.266 151.545 968.979 151.555C961.231 151.615 956.497 144.239 959.659 137.151C960.455 135.36 961.649 133.707 962.882 132.164C973.037 119.433 985.698 109.807 1000.23 102.63C1009.29 98.1601 1018.5 93.9793 1027.89 89.5496C1023.5 80.6205 1017.7 72.5674 1007.46 69.611C1000.85 67.6997 993.824 67.202 986.971 66.1269C986.384 66.0374 985.559 66.0772 985.151 66.4256C982.605 68.5857 980.805 67.0427 979.124 65.251C976.18 62.1452 975.682 57.3671 977.841 53.0967C980.218 48.4181 984.276 45.8599 989.159 44.5061C995.545 42.7342 1002.04 42.8039 1008.51 43.9188C1030.84 47.781 1048.38 66.0573 1050.64 88.1958C1051.06 92.4264 1050.37 96.8262 1049.77 101.097C1049.49 103.068 1048.44 105.058 1047.32 106.771C1043.9 112.017 1038.5 111.608 1035.72 106.004C1035.16 104.879 1034.67 103.725 1033.95 102.102Z" fill="black"/>
<path d="M1051.94 309.073C1057.69 299.158 1063.46 289.682 1068.73 279.937C1072.51 272.959 1075.63 265.612 1079.06 258.435C1080.04 256.395 1081.11 254.404 1082.09 252.373C1086.05 244.2 1090.4 243.125 1100.09 246.599C1102.84 247.585 1105.32 249.835 1107.48 251.955C1116.43 260.745 1121.98 271.525 1124.82 283.64C1131.9 313.791 1126.37 342.012 1109 367.157C1081.95 406.297 1027.12 408.647 994.958 372.811C981.919 358.277 974.38 341.246 973.106 321.685C972.798 317.037 973.057 312.249 973.872 307.66C976.657 291.872 988.254 281.609 1004.31 280.464C1020.09 279.339 1032.42 286.387 1042.85 297.426C1045.99 300.761 1048.53 304.663 1051.94 309.073ZM1093.38 264.587C1092.86 265.851 1092.46 266.737 1092.1 267.643C1087.1 280.146 1081.96 292.569 1075.06 304.215C1068.67 315.026 1062.63 326.045 1056.3 336.896C1053.94 340.947 1051.38 344.909 1048.56 348.652C1045.16 353.161 1038.98 352.524 1036.66 347.358C1035.64 345.088 1035.09 342.171 1035.53 339.772C1036.26 335.751 1037.6 331.729 1039.36 328.016C1042.34 321.705 1042.62 321.755 1037.87 316.39C1030.99 308.595 1022.7 302.941 1012.33 301.07C1002.34 299.268 995.137 304.534 993.347 314.478C993.158 315.543 993.008 316.618 992.919 317.703C990.86 340.887 1005.02 365.634 1026.8 376.902C1054.92 391.445 1089.32 379.261 1101.92 350.244C1106.95 338.657 1109.56 326.493 1109.73 313.891C1109.97 296.939 1106.4 281.032 1095.69 267.334C1095.04 266.488 1094.33 265.702 1093.38 264.587Z" fill="black"/>
<path d="M890.952 186.943C889.788 187.57 888.774 188.118 887.759 188.655C877.565 193.971 867.31 199.137 855.803 201.028C840.526 203.537 829.227 196.867 823.956 182.284C820.922 173.893 820.524 165.322 822.255 156.622C824.871 143.472 829.754 131.139 836.05 119.363C837.651 116.376 839.79 113.579 842.107 111.081C845.817 107.089 850.909 106.233 855.216 108.373C859.483 110.493 861.611 115.092 860.865 120.537C860.736 121.503 860.587 122.469 860.428 123.603C861.253 123.683 861.87 123.862 862.457 123.782C874.074 122.13 885.73 120.637 897.298 118.696C903.116 117.72 908.556 115.381 913.4 111.867C917.468 108.921 920.541 105.228 921.884 100.29C923.306 95.0442 922.202 90.7141 917.548 88.0065C913.241 85.498 908.487 83.4275 903.663 82.223C893.2 79.615 882.528 79.7643 871.895 81.566C870.782 81.7552 869.558 82.1235 868.683 82.7904C864.396 86.1152 857.862 85.8265 853.893 81.9841C850.014 78.2313 849.736 72.1791 853.267 67.6697C855.823 64.4047 859.294 62.2247 863.173 61.3686C870.284 59.7958 877.495 58.2728 884.736 57.7452C895.328 56.9787 905.652 59.099 915.36 63.469C919.199 65.201 922.978 67.3114 926.33 69.8497C941.388 81.2973 944.491 99.1853 934.197 115.082C932.109 118.308 929.582 121.453 926.628 123.872C908.556 138.674 887.63 144.975 864.426 143.821C861.333 143.661 858.26 142.507 855.226 141.661C853.993 141.312 853.247 141.272 852.69 142.646C849.02 151.655 845.986 160.833 845.887 170.678C845.867 173.256 846.354 175.884 846.931 178.412C847.518 180.97 849.378 182.573 852.023 182.463C855.156 182.334 858.528 182.384 861.323 181.219C867.549 178.641 873.576 175.535 879.484 172.28C883.751 169.941 887.58 166.815 891.807 164.396C901.604 158.792 910.486 162.565 913.261 173.515C914.166 177.078 914.405 180.821 914.832 184.504C915.151 187.192 915.19 189.919 915.509 192.607C916.941 204.473 925.027 212.506 936.922 213.84C939.787 214.158 942.701 214.098 945.566 214.407C946.5 214.507 947.366 215.273 948.271 215.731C947.774 216.527 947.445 217.523 946.759 218.09C931.601 230.593 914.355 229.179 901.326 214.447C895.139 207.449 892.295 199.127 891.549 189.959C891.489 189.242 891.449 188.516 891.37 187.799C891.39 187.66 891.25 187.51 890.952 186.943Z" fill="black"/>
<path d="M65.6436 674.886C67.0161 674.597 68.0605 674.428 69.075 674.159C88.0818 669.152 107.407 665.907 126.881 663.468C129.169 663.18 131.595 663.259 133.873 663.668C137.503 664.315 140.159 666.425 141.094 670.168C142.029 673.911 140.766 677.166 137.762 679.266C135.305 680.988 132.411 682.392 129.507 683.118C121.719 685.079 113.772 686.443 105.965 688.354C92.6271 691.629 79.3591 695.183 66.0414 698.548C63.0676 699.294 60.044 699.981 57.0005 700.29C46.7661 701.335 39.3961 694.337 39.9829 684.084C40.142 681.227 40.6493 678.3 41.5345 675.583C46.1295 661.587 50.8638 647.641 55.628 633.695C57.2691 628.907 59.0593 624.169 60.9192 619.46C61.4961 617.987 60.9889 617.27 60.0042 616.225C56.2347 612.223 52.5348 608.152 49.0238 603.931C47.8502 602.518 47.0844 600.646 46.5473 598.865C45.4134 595.102 46.2389 591.648 49.173 588.95C52.127 586.233 55.6777 585.725 59.2682 587.238C61.3867 588.124 63.5848 589.368 65.1363 591.021C77.2804 603.971 93.0846 608.043 109.854 609.785C139.184 612.831 167.053 607.256 193.867 595.46C200.501 592.544 206.151 588.243 211.362 583.286C212.864 581.863 214.376 580.389 216.097 579.255C219.18 577.204 222.552 576.776 225.794 578.846C229.106 580.957 230.588 584.371 229.673 587.994C228.857 591.2 227.306 594.495 225.217 597.043C219.717 603.732 212.964 609.038 205.156 612.91C180.49 625.154 154.71 633.128 126.931 633.575C112.022 633.814 97.3116 632.6 83.0292 628.011C81.6765 627.573 80.5128 627.085 79.8763 629.086C75.2315 643.828 70.5171 658.551 65.8326 673.283C65.7033 673.612 65.7331 673.98 65.6436 674.886Z" fill="black"/>
<path d="M479.636 363.026C480.819 361.224 481.396 360.209 482.103 359.293C486.31 353.768 490.089 347.806 494.883 342.838C505.098 332.257 516.446 330.704 529.396 337.563C538.099 342.171 546.423 347.527 556.001 350.264C560.258 351.479 564.545 352.564 568.802 353.788C573.894 355.261 576.331 357.959 576.033 361.622C575.754 365.057 572.551 368.252 567.738 368.451C562.834 368.65 557.831 368.152 552.988 367.286C541.361 365.206 530.281 361.393 519.798 355.869C512.696 352.136 509.782 352.853 505.177 359.412C502.164 363.703 499.538 368.252 496.644 372.622C495.052 375.031 493.481 377.5 491.541 379.62C487.702 383.811 482.868 385.055 477.458 383.283C469.71 380.755 463.991 375.728 460.032 368.64C459.336 367.386 458.7 366.092 457.834 364.429C457.068 365.345 456.462 366.062 455.875 366.799C444.457 381.043 433.049 395.308 421.591 409.523C420.069 411.414 418.359 413.196 416.519 414.789C407.189 422.862 395.791 419.965 391.504 408.428C390.599 405.989 389.853 403.411 389.515 400.833C386.8 380.088 384.91 359.273 387.168 338.369C389.147 320.073 395.463 303.359 407.746 289.393C410.919 285.79 415.037 282.993 418.876 280.026C420.109 279.081 421.8 278.563 423.361 278.254C428.673 277.189 432.611 281.589 430.642 286.616C429.369 289.861 427.4 292.858 425.53 295.834C419.403 305.539 414.639 315.812 412.003 327.041C409.745 336.637 409.198 346.362 409.745 356.147C410.253 365.176 411.019 374.185 411.685 383.203C411.745 383.99 411.934 384.756 412.142 386.06C413.187 385.125 413.943 384.557 414.579 383.86C423.889 373.647 433.198 363.444 442.468 353.191C444.706 350.712 446.675 347.975 448.982 345.566C455.228 339.026 464.22 339.096 470.108 346.014C472.405 348.702 473.798 352.176 475.548 355.321C476.821 357.611 478.035 360 479.636 363.026Z" fill="black"/>
<path d="M617.388 416.958C624.857 414.898 631.799 412.588 638.931 411.185C642.8 410.418 646.997 410.976 651.005 411.384C652.775 411.563 654.605 412.618 656.117 413.683C658.892 415.634 660.314 418.432 659.728 421.896C659.131 425.4 656.813 427.381 653.511 428.336C652.01 428.774 650.677 429.083 649.384 427.48C648.916 426.903 647.176 426.992 646.161 427.271C638.254 429.501 630.397 431.88 622.5 434.15C619.745 434.936 616.94 435.563 614.145 436.2C613.678 436.31 612.862 436.23 612.653 435.931C610.853 433.304 608.138 430.905 609.103 427.271C609.659 425.171 608.665 424.364 607.203 423.429C595.745 416.152 583.144 413.375 569.726 413.803C556.637 414.211 544.185 417.367 532.24 422.662C511.771 431.741 494.545 445.05 480.749 462.669C473.907 471.409 469.351 481.264 467.869 492.432C466.537 502.566 468.993 511.396 476.045 518.921C478.76 521.818 481.376 524.824 483.773 527.97C486.1 531.026 487.015 534.5 484.937 538.103C482.848 541.717 479.317 542.722 475.568 542.065C472.166 541.468 468.566 540.622 465.632 538.899C452.742 531.334 446.227 519.359 443.551 505.055C441.343 493.239 443.273 481.831 447.659 470.772C454.522 453.491 465.403 439.007 479.665 427.341C505.087 406.546 534.378 395.656 567.339 395.716C574.311 395.726 581.393 396.94 588.216 398.493C600.678 401.35 608.098 406.447 617.388 416.958Z" fill="black"/>
<path d="M1154 723.314C1178.83 719.541 1203.22 722.767 1228.2 723.872C1227.43 722.786 1226.96 721.98 1226.36 721.293C1212.75 705.814 1199.03 690.435 1183.15 677.166C1180.45 674.916 1177.85 672.497 1175.47 669.919C1174.22 668.575 1173.19 666.803 1172.68 665.051C1171.13 659.666 1175.81 654.888 1181.22 656.341C1183.27 656.889 1185.2 658.023 1187.03 659.148C1198.13 665.977 1207.61 674.757 1216.5 684.183C1222.71 690.753 1228.99 697.293 1234.73 704.261C1239.18 709.667 1243.36 715.44 1246.79 721.542C1252.38 731.477 1248.03 740.047 1236.74 741.321C1230.51 742.018 1224.1 741.61 1217.82 741.182C1195.9 739.709 1174.12 740.874 1152.38 743.85C1150.88 744.059 1150.23 744.636 1149.85 746.08C1146.83 757.338 1143.75 768.587 1140.67 779.825C1139.39 784.464 1136.11 787.42 1131.82 787.858C1127.58 788.286 1123.59 786.027 1121.44 781.886C1120.86 780.771 1120.36 779.586 1120 778.382C1116.81 767.571 1109.48 760.424 1099.63 755.666C1089.49 750.768 1078.59 749.265 1067.46 749.365C1065.82 749.375 1064.02 749.932 1062.6 750.768C1058.42 753.207 1054.39 752.022 1052.65 747.473C1051.04 743.243 1052.19 739.44 1054.93 736.086C1057.91 732.462 1061.9 730.412 1066.34 729.157C1071.69 727.644 1077.1 727.983 1082.46 728.958C1099.8 732.124 1115.15 739.211 1127.54 752.052C1127.84 752.361 1128.2 752.62 1128.87 753.187C1129.3 751.853 1129.72 750.808 1129.97 749.723C1132.91 737.419 1135.8 725.096 1138.75 712.792C1139.15 711.13 1139.58 709.448 1140.23 707.875C1141.4 705.028 1143.6 703.366 1146.73 703.415C1149.96 703.455 1152.49 705.167 1153.27 708.193C1154.08 711.379 1154.12 714.763 1154.33 718.078C1154.44 719.681 1154.14 721.293 1154 723.314Z" fill="black"/>
<path d="M794.227 482.717C794.357 491.049 792.825 499.092 789.553 506.747C788.499 509.216 787.096 511.585 785.525 513.765C783.416 516.691 780.552 519.1 776.961 519.528C771.451 520.175 765.722 520.703 760.441 518.483C734.134 507.444 707.876 496.295 681.669 485.017C678.178 483.514 674.885 481.363 671.862 479.024C668.092 476.117 667.068 471.668 667.834 467.268C668.58 462.968 669.853 458.618 671.733 454.686C681.042 435.235 697.244 424.803 717.822 420.542C728.594 418.312 739.256 419.248 749.56 423.051C754.284 424.793 758.899 426.923 763.405 429.203C782.223 438.719 791.721 454.507 793.869 475.132C794.029 476.655 794.128 478.198 794.208 479.731C794.267 480.726 794.227 481.722 794.227 482.717ZM771.65 507.971C771.968 506.817 772.108 506.478 772.147 506.13C773.779 492.532 772.396 479.203 767.622 466.412C766.339 462.978 763.445 459.822 760.59 457.353C754.384 451.978 747.123 448.086 739.156 446.125C734.601 445 729.628 444.433 724.993 444.94C707.767 446.842 696.528 458.18 686.015 470.732C686.562 470.981 686.94 471.2 687.358 471.329C707.986 477.491 728.077 485.126 747.65 494.055C753.926 496.912 759.586 501.103 765.553 504.647C767.433 505.762 769.382 506.747 771.65 507.971Z" fill="black"/>
<path d="M1252.85 563.845C1261.72 552.876 1270.26 542.314 1278.81 531.752C1279.13 531.902 1279.45 532.051 1279.78 532.2C1279.78 535.485 1279.51 538.79 1279.84 542.035C1280.6 549.541 1278.83 555.822 1273.92 561.934C1270 566.822 1267.32 572.934 1265.09 578.876C1261.91 587.348 1254.4 589.986 1247.41 584.162C1241.5 579.255 1235.89 573.999 1230 569.061C1222.32 562.611 1214.55 556.3 1206.75 549.989C1205.37 548.884 1203.74 548.098 1201.95 547.003C1201.89 547.839 1201.8 548.187 1201.85 548.516C1206.8 579.295 1221.86 603.543 1248.24 620.476C1257.11 626.17 1266.94 629.474 1277.15 631.704C1279.19 632.152 1279.89 632.949 1279.84 635.089C1279.68 641.141 1279.79 647.203 1279.78 653.255C1279.78 654.052 1279.7 654.838 1279.64 655.943C1276.44 655.346 1273.43 654.848 1270.44 654.231C1248.76 649.742 1230.85 638.732 1215.39 623.064C1192 599.353 1178.76 570.983 1175.28 537.944C1175.04 535.704 1174.88 533.425 1175.04 531.185C1175.63 523.122 1182.44 517.916 1190.36 519.499C1192.45 519.917 1194.51 520.733 1196.49 521.589C1207.03 526.108 1216.72 532.031 1225.38 539.567C1230.97 544.434 1236.38 549.501 1241.92 554.419C1245.62 557.704 1249.42 560.889 1252.85 563.845Z" fill="black"/>
<path d="M1219.82 409.075C1220.55 403.59 1221.21 398.732 1221.94 393.317C1217.42 394.312 1213.47 394.123 1211.11 390.38C1210 388.618 1209.36 386.1 1209.57 384.039C1210.15 378.346 1214.72 376.275 1222.83 377.828C1223.08 374.672 1223.33 371.537 1223.58 368.411C1224.96 351.021 1226.39 333.631 1227.66 316.23C1227.9 312.915 1227.49 309.561 1227.35 306.226C1227.24 303.628 1225.82 302.483 1223.28 302.742C1213.58 303.718 1203.86 304.614 1194.19 305.738C1188.81 306.366 1183.46 307.331 1178.11 308.237C1176.43 308.516 1174.81 309.103 1173.14 309.491C1171.83 309.8 1170.5 310.208 1169.17 310.268C1164.73 310.447 1161.25 308.018 1160.31 304.215C1159.36 300.403 1161.21 296.471 1165.34 294.779C1168.65 293.415 1172.2 292.469 1175.72 291.743C1189.6 288.906 1203.5 286.059 1217.46 283.6C1221.39 282.913 1225.61 283.102 1229.58 283.67C1238.18 284.884 1243.48 290.17 1245.73 298.452C1247.82 306.206 1247.25 314.11 1246.15 321.904C1242.34 349.02 1238.41 376.126 1234.34 403.202C1233.7 407.452 1232.54 411.723 1230.96 415.724C1228.36 422.294 1223.08 424.992 1216.13 423.628C1212.06 422.832 1208.02 421.737 1204.08 420.453C1189.78 415.774 1175.11 414.52 1160.18 415.416C1148.73 416.102 1137.29 417.068 1125.81 415.605C1121.86 415.107 1118.51 414.022 1116.85 410.16C1115.08 406.058 1115.91 402.037 1119.05 399.18C1121.72 396.761 1125.01 394.551 1128.4 393.556C1133.2 392.162 1138.33 391.465 1143.33 391.376C1157.84 391.107 1172.2 392.789 1186.35 396.015C1195.64 398.135 1204.57 401.27 1213.02 405.72C1214.99 406.765 1217.03 407.711 1219.82 409.075Z" fill="black"/>
<path d="M115.752 508.688C115.802 501.64 116.488 494.742 118.974 488.132C125.917 469.677 144.386 460.997 163.005 467.477C173.538 471.14 181.734 477.979 187.99 487.037C198.383 502.118 202.551 518.662 197.856 536.71C193.361 553.98 179.516 564.771 163.155 564.253C154.283 563.975 146.336 560.909 139.354 555.563C123.938 543.777 116.209 528.039 115.752 508.688ZM178.243 522.355C177.258 512.232 173.767 503.502 167.262 495.996C164.139 492.393 160.4 489.576 155.745 488.212C149.907 486.5 145.222 488.142 141.82 493.169C139.493 496.613 137.991 500.446 138.2 504.617C138.837 517.388 143.68 528.258 153.527 536.62C155.277 538.103 157.446 539.248 159.594 540.104C166.288 542.762 172.225 540.582 175.11 533.992C176.711 530.349 177.238 526.248 178.243 522.355Z" fill="black"/>
<path d="M460.599 853.916C442.964 853.925 427.966 843.872 421.849 828.004C418.269 818.717 416.279 809.091 417.523 799.057C417.761 797.096 418.219 795.125 418.915 793.273C420.546 788.933 423.649 786.186 428.394 785.937C433.009 785.698 436.669 787.888 438.419 792.019C440.09 795.961 440.975 800.261 441.99 804.462C443.044 808.842 443.511 813.391 444.804 817.692C446.963 824.829 452.234 828.552 459.554 828.751C470.773 829.049 481.048 826.133 489.482 818.319C493.46 814.636 497.2 810.694 501.149 806.981C506.917 801.546 513.263 796.967 520.852 794.329C532.707 790.208 540.654 793.015 547 803.845C550.103 809.141 553.544 814.098 558.716 817.502C561.7 819.473 564.922 821.166 568.194 822.609C572.481 824.5 576.957 825.974 581.313 827.716C584.217 828.88 584.436 829.866 582.338 832.275C577.862 837.431 572.093 840.039 565.35 839.95C548.849 839.74 535.462 833.629 527.038 818.747C526.093 817.074 525.168 817.005 523.865 818.05C521.05 820.31 518.146 822.47 515.501 824.918C512.258 827.925 509.274 831.22 506.122 834.325C494.156 846.171 479.337 851.726 462.966 853.786C461.991 853.906 460.987 853.896 460.599 853.916Z" fill="black"/>
<path d="M180.52 889.92C181.325 881.449 181.494 873.336 182.986 865.482C185.691 851.178 197.438 840.935 211.919 839.362C223.188 838.138 233.989 840.069 244.602 844.001C263.449 850.989 282.914 854.642 303.064 852.95C310.046 852.363 316.998 850.939 323.841 849.366C329.152 848.142 329.889 846.27 328.506 841.114C328.247 840.158 328.058 839.173 327.989 838.188C327.601 832.673 329.381 830.941 334.275 833.27C338.392 835.231 342.341 838.128 345.474 841.453C348.915 845.096 348.836 850.053 347.393 854.811C345.454 861.182 341.356 865.821 335.757 869.235C326.497 874.879 316.262 877.209 305.6 878.025C281.67 879.847 258.606 875.785 236.177 867.633C230.16 865.443 224.093 864.089 217.678 864.039C212.834 863.999 209.263 865.771 207.324 870.33C204.847 876.134 202.291 881.917 199.984 887.79C199.337 889.423 198.641 889.99 196.911 889.96C191.689 889.851 186.467 889.92 180.52 889.92Z" fill="black"/>
<path d="M13.7749 204.682C13.5362 188.775 25.7101 174.51 42.5388 170.966C50.4757 169.294 58.333 169.563 66.0909 171.972C79.6373 176.162 91.4631 183.061 99.9073 194.688C104.821 201.457 109.266 208.614 113.404 215.89C118.268 224.441 122.574 233.311 127.139 242.021C128.989 245.554 130.819 249.287 127.865 252.891C124.931 256.464 120.625 256.803 116.418 255.917C107.735 254.085 99.4895 250.96 91.6024 246.858C87.1167 244.529 82.651 242.12 78.0062 240.149C69.562 236.546 60.909 235.779 52.1665 239.194C51.341 239.512 50.4458 239.831 49.7695 240.378C46.179 243.275 42.1807 243.554 38.3316 241.493C27.1225 235.5 14.0932 222.51 13.7749 204.682ZM103.398 231.897C99.4895 221.077 92.7859 210.475 86.2216 203.318C78.3742 194.757 68.5376 189.86 57.2389 188.327C52.9323 187.739 48.208 188.516 43.961 189.71C37.9338 191.403 34.0946 195.862 32.4038 201.964C30.1858 209.977 35.0594 222.61 42.0613 227.179C42.1906 227.258 42.3995 227.208 41.8226 227.169C44.9457 224.73 47.4123 222.311 50.3265 220.639C56.7814 216.926 63.8829 215.721 71.2528 216.806C81.7558 218.349 91.0354 222.848 99.5592 229.04C100.842 229.976 102.115 230.941 103.398 231.897Z" fill="black"/>
<path d="M1215.5 864.935C1203.37 865.064 1191.73 863.113 1180.87 857.449C1174.71 854.244 1169.17 850.252 1164.81 844.797C1156.81 834.803 1155.11 823.664 1159.09 811.609C1161.36 804.701 1165.42 798.848 1170.42 793.632C1184.51 778.919 1202.14 771.354 1221.95 768.218C1222.83 768.079 1223.75 768.029 1224.64 768.069C1229.66 768.248 1233.35 770.876 1234.52 775.067C1235.7 779.347 1233.8 783.697 1229.43 786.285C1227.58 787.38 1225.5 788.087 1223.59 789.112C1215.15 793.622 1206.52 797.813 1198.41 802.859C1193.83 805.716 1189.63 809.599 1186.16 813.769C1179.56 821.693 1181 828.452 1189.84 833.728C1197.32 838.187 1205.67 840.367 1214.08 842.06C1221.05 843.463 1228.2 843.951 1235.27 844.867C1236.17 844.986 1237.06 845.136 1237.93 845.365C1241.77 846.4 1244.29 849.366 1244.53 853.049C1244.76 856.633 1242.83 860.047 1239.2 861.361C1236 862.526 1232.63 863.402 1229.27 863.86C1224.72 864.487 1220.1 864.596 1215.5 864.935Z" fill="black"/>
<path d="M889.172 889.92C881.981 889.92 874.412 889.97 866.853 889.831C866.157 889.821 865.133 888.696 864.844 887.88C862.268 880.553 861.293 872.938 861.234 865.214C861.194 860.873 861.502 856.543 861.632 852.203C861.662 851.138 861.632 850.063 861.632 848.58C859.682 849.147 857.962 849.565 856.301 850.143C843.858 854.483 831.167 857.618 817.889 857.529C813.941 857.499 809.893 857.34 806.063 856.474C793.81 853.696 785.734 844.409 784.689 831.876C783.546 818.179 786.977 805.338 792.865 793.074C793.213 792.348 793.701 791.671 794.208 791.044C796.346 788.386 799.022 786.922 802.513 787.759C805.974 788.595 808.132 791.024 808.46 794.388C808.818 797.942 808.59 801.595 808.212 805.159C807.506 811.898 806.103 818.577 805.715 825.316C805.168 834.922 808.162 837.909 817.75 838.118C827.408 838.327 836.816 837.092 845.837 833.22C850.89 831.05 856.112 829.149 861.433 827.805C872.771 824.948 880.788 830.154 882.677 841.701C883.592 847.286 883.443 853.039 883.841 858.713C884.309 865.283 884.537 871.893 885.492 878.393C886.069 882.245 887.849 885.899 889.172 889.92Z" fill="black"/>
<path d="M1199.05 37.528C1196.25 39.8573 1193.54 42.3957 1190.56 44.5458C1185 48.5475 1179.62 53.007 1173.56 56.0431C1159.06 63.2799 1147.69 58.2032 1142.48 42.8436C1141.58 40.2057 1140.95 37.4882 1140.08 34.3625C1138.22 35.6367 1136.45 36.6918 1134.87 37.966C1123.93 46.8154 1111.4 52.141 1097.61 54.4703C1094.65 54.968 1091.43 54.9481 1088.47 54.4305C1079.24 52.788 1074.16 46.6064 1074 37.2393C1073.94 33.9842 1074.04 30.7292 1074.19 27.4741C1074.37 23.7412 1076.69 20.8445 1079.92 20.0979C1083.34 19.3115 1087.1 20.7748 1088.45 24.2787C1089.65 27.4044 1090.07 30.8984 1090.47 34.2729C1090.92 38.0357 1091.37 38.7026 1095.19 38.2049C1103.96 37.0601 1111.99 34.034 1119.02 28.5491C1122.94 25.4932 1126.72 22.1983 1130.91 19.5703C1134.3 17.45 1138.09 15.6184 1141.94 14.6329C1148.19 13.0203 1153.83 16.3252 1155.83 22.477C1156.82 25.5131 1156.88 28.8577 1157.37 32.0531C1157.86 35.348 1158.21 38.6727 1158.92 41.9179C1159.44 44.3368 1161.26 45.4815 1163.64 44.506C1166.96 43.1522 1170.47 41.9079 1173.33 39.8374C1180.49 34.6412 1187.32 28.9871 1194.31 23.5421C1196.52 21.82 1198.71 20.0382 1201.08 18.5649C1206.84 14.9813 1213.46 17.5297 1214.69 24.1991C1215.4 28.0017 1215.04 32.1327 1214.47 36.005C1213.85 40.1559 1214.32 43.2916 1218.49 45.2028C1220.51 46.1286 1219.83 47.4027 1218.42 48.4877C1213.17 52.5392 1206.42 51.5736 1202.84 45.9693C1201.3 43.5205 1200.41 40.6238 1199.05 37.528Z" fill="black"/>
<path d="M689.794 282.107C683.628 280.385 677.441 278.732 671.305 276.91C665.934 275.318 660.603 273.616 655.311 271.804C653.551 271.197 651.791 270.301 650.319 269.166C648.22 267.543 647.494 265.214 648.349 262.606C649.195 260.028 651.084 258.574 653.74 258.316C654.963 258.196 656.286 258.336 657.48 258.664C672.021 262.656 686.542 266.677 701.053 270.769C702.863 271.276 704.663 272.013 706.265 272.969C710.8 275.666 711.795 280.882 708.612 285.093C707.588 286.447 706.275 287.591 704.992 288.726C696.617 296.122 687.318 302.165 677.521 307.47C675.959 308.316 674.487 309.342 672.618 310.506C677.063 313.095 681.38 314.677 686.084 315.165C687.248 315.285 688.432 315.354 689.585 315.563C695.643 316.658 699.024 320.411 699.134 326.533C699.193 329.589 698.756 332.655 698.547 335.721C697.672 348.433 696.816 361.134 695.921 373.846C695.752 376.185 695.662 378.554 695.195 380.844C694.061 386.408 688.72 388.569 683.956 385.483C680.903 383.502 679.192 380.545 678.496 377.061C678.028 374.772 677.77 372.403 677.74 370.073C677.571 358.029 678.177 346.024 680.435 334.178C680.942 331.54 680.147 330.614 677.789 329.679C672.598 327.618 667.456 325.348 662.502 322.77C657.529 320.182 653.412 316.549 653.471 310.297C653.521 304.175 657.609 300.691 662.473 298.073C666.6 295.854 671.026 294.171 675.144 291.942C680.266 289.174 685.209 286.098 690.232 283.152C690.093 282.793 689.943 282.455 689.794 282.107Z" fill="black"/>
<path d="M1024.33 861.013C1006.27 860.724 988.204 860.505 970.143 860.087C966.651 860.007 963.111 859.44 959.709 858.614C954.766 857.409 951.941 853.945 951.912 849.774C951.872 845.494 954.736 841.791 959.789 840.706C964.354 839.72 969.068 839.153 973.733 838.944C1002.09 837.63 1030.46 838.048 1058.81 839.093C1065.48 839.342 1072.18 839.203 1078.86 839.282C1082.88 839.332 1086.8 839.77 1090.19 842.269C1095.52 846.201 1095.57 851.705 1090.32 855.777C1087.06 858.295 1083.24 858.853 1079.32 858.962C1060.99 859.5 1042.66 859.978 1024.33 860.485C1024.33 860.664 1024.33 860.834 1024.33 861.013Z" fill="black"/>
<path d="M916.374 311.283C916.693 301.966 920.104 292.589 927.365 285.113C934.029 278.264 941.379 272.083 948.411 265.593C957.302 257.39 966.303 249.297 975.036 240.936C979.631 236.536 982.466 230.961 983.788 224.69C983.918 224.073 984.107 223.466 984.306 222.868C984.972 220.868 986.166 218.897 988.314 219.006C990.174 219.106 992.491 219.912 993.705 221.236C996.688 224.491 997.514 228.811 996.43 232.942C995.206 237.601 993.874 242.578 991.168 246.42C985.728 254.145 979.661 261.511 973.216 268.43C964.712 277.548 955.572 286.059 946.759 294.888C941.06 300.602 937.47 307.411 937.42 315.613C937.4 319.067 938.116 322.561 938.842 325.956C939.519 329.121 940.782 332.157 941.538 335.313C942.194 338.07 941.578 338.697 938.683 338.777C934.556 338.896 930.846 337.672 927.554 335.193C920.592 329.918 916.285 321.168 916.374 311.283Z" fill="black"/>
<path d="M1184.26 443.786C1203.35 443.806 1219.15 457.582 1220.26 473.171C1221.65 492.403 1203.92 506.667 1184.77 501.71C1179.24 500.277 1174.38 497.599 1170.31 493.557C1169.6 492.861 1168.89 492.154 1168.11 491.557C1153.2 480.219 1154.32 458.359 1170.37 448.414C1175.32 445.339 1180.74 443.806 1184.26 443.786ZM1189.9 480.527C1190.96 480.358 1192.59 480.248 1194.15 479.82C1200.99 477.929 1202.65 471.628 1197.72 466.521C1194.11 462.789 1186.94 461.704 1182.39 464.222C1180.08 465.496 1178.77 467.417 1178.73 470.115C1178.63 476.157 1181.79 479.761 1187.73 480.378C1188.26 480.418 1188.8 480.448 1189.9 480.527Z" fill="black"/>
<path d="M1166.69 164.675C1169.39 162.555 1171.68 160.664 1174.08 158.941C1175.91 157.627 1177.78 156.333 1179.81 155.378C1183.57 153.606 1187.56 154.522 1189.92 157.389C1192.31 160.295 1192.39 164.277 1189.87 167.681C1186.22 172.629 1181.54 176.431 1176.19 179.428C1170.29 182.742 1170.13 183.32 1174.69 188.377C1180.73 195.066 1187.61 200.73 1195.76 204.732C1199.97 206.802 1204.23 208.783 1208.37 211.003C1210.16 211.968 1211.94 213.213 1213.28 214.726C1216.09 217.911 1215.04 221.226 1210.93 222.321C1209.14 222.789 1207.17 222.819 1205.31 222.679C1187.18 221.266 1172.51 212.894 1160.03 200.123C1159.52 199.605 1159.05 199.068 1158.54 198.55C1158.42 198.43 1158.23 198.371 1157.97 198.221C1156.02 200.153 1154.18 202.273 1152.05 204.025C1149.78 205.886 1147.39 207.758 1144.75 208.992C1141.86 210.346 1138.84 209.768 1136.63 207.19C1134.49 204.692 1134.48 201.765 1136.04 199.087C1137.38 196.778 1139.27 194.777 1140.95 192.667C1143.31 189.71 1145.86 186.903 1147.99 183.788C1148.71 182.722 1148.8 180.851 1148.49 179.507C1147.01 173.166 1146.62 166.815 1147.94 160.425C1148.25 158.941 1148.74 157.448 1149.44 156.094C1151.25 152.531 1154.69 150.679 1158.3 151.127C1162.03 151.595 1164.96 154.323 1165.81 158.314C1166.2 160.226 1166.35 162.197 1166.69 164.675Z" fill="black"/>
<path d="M200.78 277.179C199.268 277.607 198.263 277.896 197.259 278.185C192.495 279.568 187.78 281.211 182.936 282.266C177.148 283.53 172.523 281.032 171.041 276.383C169.599 271.824 171.807 267.384 177.118 264.796C181.663 262.586 186.338 260.635 190.983 258.624C197.865 255.638 204.738 252.652 211.67 249.785C213.57 248.999 215.619 248.371 217.648 248.192C225.883 247.436 232.378 254.344 231.204 262.537C230.966 264.219 230.299 265.831 229.842 267.484C228.091 273.914 226.102 280.305 224.68 286.805C223.258 293.335 222.432 299.985 221.278 306.575C221.03 307.988 220.622 309.402 220.095 310.736C217.777 316.579 212.367 318.331 207.513 314.309C205.056 312.278 203.067 309.292 201.764 306.346C198.621 299.208 198.273 291.643 199.695 283.998C200.093 281.898 200.372 279.787 200.78 277.179Z" fill="black"/>
<path d="M613.707 889.9C604.388 889.9 595.914 889.94 587.44 889.841C586.575 889.831 585.66 889.094 584.864 888.547C582.109 886.655 579.543 884.465 576.659 882.813C564.833 876.034 555.046 877.298 545.528 887.004C543.369 889.204 541.281 890.11 538.257 889.98C532.856 889.751 527.436 889.92 521.657 889.92C521.916 888.397 522.025 887.083 522.363 885.839C526.471 870.818 543.807 855.518 559.243 853.985C564.256 853.487 569.607 853.995 574.5 855.229C588.862 858.833 600.638 866.538 608.625 879.289C610.594 882.435 611.877 886.028 613.707 889.9Z" fill="black"/>
<path d="M445.819 597.531C445.043 600.587 444.238 605.713 442.418 610.461C439.663 617.668 435.436 619.4 427.996 617.32C423.908 616.175 420.805 613.587 418.199 610.392C411.157 601.731 407.527 591.638 406.125 580.668C405.279 574.068 405.15 567.439 407.258 561.078C408.313 557.902 410.053 554.797 412.122 552.169C414.539 549.103 418.12 548.585 422.108 548.555C428.424 548.505 431.537 552.318 434.272 556.937C441.304 568.812 445.282 581.614 445.819 597.531Z" fill="black"/>
<path d="M159.176 889.92C158.301 889.92 157.426 889.92 156.55 889.92C131.626 889.92 106.701 889.96 81.7764 889.841C80.0657 889.831 77.9771 889.134 76.704 888.029C62.521 875.646 52.4457 860.794 50.2178 841.632C49.6907 837.112 50.1283 832.444 50.4366 827.865C50.556 826.043 51.292 824.152 52.1473 822.499C53.7088 819.473 56.3246 817.741 59.7958 817.771C63.3863 817.801 66.201 819.553 67.4642 822.838C68.9759 826.78 69.9606 830.931 71.1143 835.012C77.261 856.822 89.3056 873.794 111.197 881.857C118.736 884.625 126.921 885.819 134.928 887.053C141.681 888.099 148.594 888.129 155.437 888.666C156.729 888.766 157.993 889.144 159.266 889.393C159.226 889.562 159.206 889.741 159.176 889.92Z" fill="black"/>
<path d="M565.629 221.684C564.266 221.445 562.416 221.355 560.735 220.778C549.556 216.906 538.337 213.153 527.297 208.892C520.007 206.075 513.482 201.785 508.032 196.051C503.307 191.084 499.945 185.38 499.219 178.432C499.03 176.58 499.15 174.609 499.587 172.798C500.473 169.105 502.8 166.517 506.56 165.581C510.21 164.675 513.373 165.81 515.909 168.517C517.013 169.702 517.988 171.026 518.863 172.39C522.394 177.934 527.078 182.215 532.797 185.38C543.121 191.084 553.863 195.743 565.321 198.689C567.926 199.356 570.552 200.232 572.899 201.506C577.544 204.015 579.742 208.395 578.947 212.645C578.101 217.125 574.212 220.579 569.03 221.385C568.066 221.534 567.061 221.564 565.629 221.684Z" fill="black"/>
<path d="M1088.55 216.766C1076.27 216.348 1064.99 212.257 1054.42 206.005C1050.53 203.706 1046.87 201.008 1042.89 198.888C1039.58 197.126 1036.04 195.563 1032.43 194.588C1027.17 193.174 1024.44 194.548 1021.38 198.918C1020.5 200.182 1019.3 201.217 1018.23 202.352C1016.88 200.849 1015.05 199.565 1014.27 197.803C1011.84 192.259 1015.07 184.016 1020.67 180.632C1025.11 177.944 1030.06 177.446 1034.81 178.83C1040.31 180.423 1045.67 182.663 1050.86 185.111C1054.84 186.993 1058.38 189.77 1062.23 191.95C1071.88 197.415 1082.11 200.919 1093.37 200.899C1096.21 200.899 1098.44 199.983 1100.29 197.863C1101.53 196.439 1102.82 195.036 1104.23 193.762C1106.71 191.522 1109.66 191.173 1111.93 192.677C1114.34 194.269 1115.3 197.216 1113.91 200.411C1109.96 209.45 1103.66 215.631 1093.27 216.468C1091.75 216.607 1090.22 216.667 1088.55 216.766Z" fill="black"/>
<path d="M78.9211 296.272C79.6869 297.566 80.1444 298.313 80.5721 299.069C83.3669 303.957 82.9094 309.79 79.4184 313.752C75.9373 317.704 70.3277 318.749 64.9967 316.42C56.6918 312.806 51.9177 302.483 53.8969 292.41C55.7071 283.202 62.7588 276.642 72.8043 275.129C84.272 273.397 94.3871 276.921 103.627 283.51C103.995 283.769 104.313 284.098 104.641 284.416C108.242 287.92 109.127 292.43 106.909 295.924C104.741 299.348 100.593 300.234 95.7596 298.542C90.5181 296.71 85.0578 296.222 78.9211 296.272Z" fill="black"/>
<path d="M624.768 302.314C624.748 316.758 612.077 326.762 597.406 323.855C592.931 322.969 588.713 321.397 585.203 318.35C581.025 314.747 579.762 310.337 580.478 304.763C581.453 297.287 584.636 291.424 590.703 287.074C594.611 284.277 598.968 282.714 603.782 282.375C615.786 281.569 624.788 290.1 624.768 302.314ZM596.461 306.913C600.957 308.814 605.791 307.48 607.472 303.847C607.979 302.762 608.118 301.04 607.581 300.084C607.203 299.417 605.333 299.208 604.239 299.397C599.992 300.134 598.311 303.568 596.461 306.913Z" fill="black"/>
<path d="M477.836 281.191C478.582 265.334 484.679 254.274 496.316 246.41C498.484 244.947 501.209 243.902 503.795 243.563C509.265 242.867 513.254 247.426 511.99 252.811C511.384 255.399 510.131 257.888 508.877 260.267C506.699 264.428 504.123 268.389 502.035 272.59C497.121 282.475 497.986 292.161 503.566 301.528C504.402 302.921 505.396 304.225 506.152 305.659C507.226 307.699 506.6 308.744 504.362 308.904C493.212 309.71 483.992 303.857 480.472 293.216C479.01 288.816 478.453 284.107 477.836 281.191Z" fill="black"/>
<path d="M856.947 403.749C856.698 419.596 851.616 431.303 841.7 440.879C838.915 443.567 835.762 445.617 831.684 445.677C826.373 445.747 822.574 442.143 823.021 436.847C823.23 434.339 824.294 431.8 825.398 429.481C826.562 427.052 828.293 424.902 829.685 422.583C834.151 415.167 835.802 407.213 834.21 398.632C833.852 396.681 833.524 394.691 833.514 392.72C833.514 388.589 835.304 385.333 839.114 383.552C843.003 381.73 847.021 382.128 849.935 385.144C852.223 387.513 854.083 390.649 855.127 393.785C856.4 397.587 856.609 401.738 856.947 403.749Z" fill="black"/>
<path d="M204.062 657.127C204.062 660.094 204.4 663.11 203.982 666.017C203.406 670.078 200.74 672.089 196.742 672.985C193.788 673.652 190.903 674.747 188.079 675.891C183.732 677.653 179.575 679.893 175.159 681.436C167.65 684.044 162.876 679.793 164.019 671.91C164.716 667.092 165.312 662.254 165.849 657.406C166.685 649.91 169.798 646.775 177.218 645.59C179.933 645.152 182.559 644.137 185.184 643.271C188.347 642.226 191.411 640.852 194.613 639.986C200.76 638.314 204.868 642.146 204.221 648.487C203.933 651.344 204.171 654.251 204.171 657.127C204.142 657.127 204.102 657.127 204.062 657.127Z" fill="black"/>
<path d="M939.061 510.898C921.984 511.127 912.555 499.132 907.354 483.912C906.289 480.796 905.881 477.382 905.643 474.077C905.315 469.548 909.134 467.198 913.003 469.607C914.634 470.623 915.967 472.474 916.892 474.226C918.443 477.163 919.438 480.388 920.9 483.384C923.357 488.431 926.778 489.715 932.03 487.684C935.312 486.41 938.524 484.967 941.796 483.683C948.142 481.194 953.354 482.428 956.825 487.177C960.475 492.174 960.306 498.445 956.248 503.472C951.832 508.937 946.014 511.266 939.061 510.898Z" fill="black"/>
<path d="M367.415 889.91C367.345 889.542 367.286 889.443 367.306 889.363C370.677 876.144 373.979 862.914 377.52 849.745C378.107 847.555 379.45 845.424 380.892 843.633C383.528 840.358 387.158 839.084 391.325 839.95C395.592 840.826 398.665 843.503 399.57 847.664C400.316 851.118 400.684 854.941 400.038 858.375C398.148 868.399 395.692 878.324 393.354 888.258C393.205 888.905 392.26 889.831 391.683 889.841C383.567 889.95 375.461 889.91 367.415 889.91Z" fill="black"/>
<path d="M403.967 499.192C399.511 499.162 394.836 496.733 391.266 492.014C385.646 484.598 383.249 476.456 385.965 467.328C387.526 462.072 389.515 456.935 391.425 451.779C391.922 450.445 392.758 449.211 393.583 448.036C396.985 443.158 402.465 441.655 407.04 444.283C411.615 446.911 412.799 452.296 410.412 457.841C408.353 462.629 406.374 467.497 404.932 472.494C403.529 477.391 405.449 480.527 410.143 482.528C414.52 484.389 416.757 488.311 415.823 492.432C414.828 496.792 410.939 499.331 403.967 499.192Z" fill="black"/>
<path d="M941.15 889.92C930.597 889.92 920.045 889.96 909.482 889.851C908.706 889.841 907.473 888.955 907.244 888.218C906.488 885.819 905.832 883.34 905.613 880.842C904.489 867.802 908.04 855.996 915.559 845.374C918.881 840.686 922.75 839.113 926.549 840.527C930.239 841.9 931.741 845.384 931.433 851.218C931.015 859.151 930.737 867.085 930.388 875.029C930.219 878.881 931.224 882.325 933.701 885.341C935.68 887.74 937.868 889.612 941.15 889.92Z" fill="black"/>
<path d="M792.308 119.233C785.813 119.233 779.328 119.193 772.834 119.243C766.528 119.293 763.027 115.192 764.986 109.159C766.687 103.953 769.134 98.9762 771.471 93.999C772.635 91.5104 774.833 90.6245 777.707 90.5548C782.839 90.4353 787.961 89.7186 793.103 89.5295C796.157 89.42 799.27 89.5793 802.274 90.1068C807.257 90.9729 809.345 94.1483 808.381 99.1354C807.167 105.387 805.188 111.359 801.408 116.605C799.061 119.831 795.67 119.582 792.308 119.233Z" fill="black"/>
<path d="M787.683 375.519C791.025 376.464 794.277 376.852 797.022 378.246C809.326 384.478 816.656 394.681 819.64 408.049C820.346 411.235 819.858 414.38 818.058 417.178C816.696 419.298 814.716 420.522 812.16 420.383C809.733 420.244 808.5 418.661 807.396 416.56C802.682 407.552 795.968 400.285 787.196 395.159C784.819 393.775 781.755 393.327 778.941 392.998C774.276 392.461 771.352 388.937 773.043 384.577C773.948 382.238 775.897 379.789 778.045 378.585C780.93 376.952 784.461 376.484 787.683 375.519Z" fill="black"/>
<path d="M1098.88 557.116C1098.72 571.649 1088.58 582.808 1074.13 584.311C1073.32 584.391 1072.5 584.431 1071.69 584.381C1067.72 584.162 1064.74 582.191 1063.8 579.235C1062.87 576.258 1064.14 573.023 1067.45 570.594C1069.56 569.051 1071.9 567.817 1074.05 566.324C1078.18 563.467 1080.43 559.525 1080.66 554.468C1080.79 551.562 1080.34 549.053 1077.57 547.182C1075.12 545.539 1074.61 542.274 1075.75 539.596C1077 536.65 1080.26 534.868 1083.77 535.266C1088.29 535.784 1091.63 538.282 1094.27 541.816C1097.64 546.336 1098.9 551.542 1098.88 557.116Z" fill="black"/>
<path d="M30.6533 32.8196C30.9915 35.8656 31.7375 38.842 31.5584 41.7686C31.26 46.5865 30.5937 51.4044 29.6488 56.1327C29.1117 58.8304 26.8838 60.3434 24.0492 60.443C21.2245 60.5425 19.1657 59.1489 18.0915 56.5707C17.6141 55.4359 17.276 54.0921 17.3754 52.8876C18.012 45.3721 15.9034 38.394 13.4368 31.4558C13.0788 30.4405 12.7008 29.4052 12.5118 28.3401C11.8256 24.5077 13.7352 21.4617 17.5047 20.5857C19.6929 20.078 21.9506 19.7694 24.1984 19.5902C31.0313 19.0527 37.8642 18.5251 44.707 18.1767C47.85 18.0175 51.0327 18.0971 54.1657 18.3858C58.3828 18.774 60.9986 21.5214 60.9588 25.095C60.919 28.7084 58.2535 31.3762 54.0264 31.645C46.2984 32.1427 38.5505 32.4413 30.6533 32.8196Z" fill="black"/>
<path d="M1064.18 775.774C1074.17 775.933 1087.43 785.658 1090.55 795.204C1092.02 799.714 1091.77 804.044 1088.18 807.528C1084.51 811.082 1080.03 811.44 1075.6 809.439C1072.69 808.125 1070.19 805.915 1067.42 804.223C1064.45 802.401 1061.42 800.679 1058.37 798.967C1056.88 798.131 1055.19 797.603 1053.82 796.628C1047.58 792.178 1047.48 783.767 1053.51 779.029C1056.32 776.839 1060.02 775.704 1064.18 775.774Z" fill="black"/>
<path d="M889.053 629.504C891.668 629.713 894.304 629.733 896.87 630.181C899.008 630.559 899.725 629.753 900.172 627.842C900.709 625.562 901.455 623.322 902.34 621.152C904.021 617.011 906.935 615.011 910.516 615.279C913.947 615.538 916.583 617.907 917.508 622.168C918.204 625.323 918.433 628.588 918.791 631.814C919.109 634.69 919.219 637.587 919.577 640.454C920.551 648.278 913.967 654.141 906.229 652.101C901.435 650.836 896.721 649.254 891.987 647.76C889.232 646.894 886.526 645.889 883.781 644.983C880.25 643.818 878.142 641.439 877.903 638.304C877.664 635.118 879.266 632.53 882.816 630.977C884.756 630.131 886.874 629.693 888.913 629.076C888.963 629.215 889.013 629.365 889.053 629.504Z" fill="black"/>
<path d="M625.932 42.0274C625.106 50.9564 619.696 55.0178 611.779 51.2949C609.342 50.1501 606.726 49.3637 604.18 48.4678C599.804 46.9249 595.368 45.5214 591.031 43.859C587.172 42.3758 586.148 37.4683 589.161 34.1435C591.32 31.7545 593.906 29.7138 596.452 27.713C600.609 24.438 605.155 21.7603 608.496 17.3704C609.978 15.4293 613.221 14.4936 615.847 13.8565C618.602 13.1796 621.396 15.489 621.934 18.4455C623.316 25.961 624.559 33.5064 625.852 41.0319C625.912 41.3704 625.912 41.7287 625.932 42.0274Z" fill="black"/>
<path d="M466.626 727.804C463.842 726.619 460.838 725.773 458.312 724.18C450.584 719.313 444.805 712.554 440.657 704.431C439.852 702.848 439.345 701.046 439.066 699.284C438.31 694.417 440.598 689.858 444.705 687.618C448.803 685.378 454.124 685.707 457.496 689.31C462.797 694.954 467.83 700.897 472.534 707.049C474.444 709.537 475.478 712.842 476.383 715.928C478.144 721.96 473.37 727.465 466.626 727.804Z" fill="black"/>
<path d="M1049.62 230.135C1055.37 230.205 1057.12 232.275 1056.42 236.844C1056.26 237.909 1056.13 239.014 1055.75 240.02C1053.34 246.43 1050.94 252.851 1048.39 259.212C1046.21 264.637 1041.53 266.23 1036.51 263.313C1034.73 262.278 1033.13 260.914 1031.52 259.61C1027.8 256.604 1024.18 253.468 1020.41 250.522C1017.25 248.043 1014.65 245.315 1015.92 240.945C1017.17 236.675 1020.8 235.889 1024.64 235.341C1030.97 234.455 1037.3 233.46 1043.58 232.255C1046.01 231.777 1048.29 230.613 1049.62 230.135Z" fill="black"/>
<path d="M239.669 203.019C240.723 192.249 243.806 183.349 249.108 175.306C251.912 171.056 256.458 169.762 260.436 171.554C264.355 173.315 266.265 177.606 265.071 182.563C264.305 185.719 263.161 188.775 262.256 191.9C261.401 194.847 260.506 197.793 259.889 200.799C258.865 205.777 259.72 207.389 264.196 209.728C266.901 211.142 267.09 212.247 264.982 214.417C257.552 222.092 246.502 220.439 241.907 210.784C240.624 208.076 240.206 204.95 239.669 203.019Z" fill="black"/>
<path d="M728.514 220.848C728.723 230.095 723.103 233.31 716.31 230.444C710.87 228.144 704.962 226.93 699.253 225.277C698.039 224.929 696.756 224.839 695.553 224.481C692.778 223.665 690.699 222.042 690.093 219.056C689.476 216.069 690.67 213.67 693.007 211.948C697.443 208.683 701.968 205.548 706.504 202.422C708.513 201.038 710.651 199.854 712.67 198.48C717.613 195.126 723.889 197.106 725.272 202.94C726.803 209.42 727.669 216.07 728.514 220.848Z" fill="black"/>
<path d="M710.89 851.407C715.943 851.407 721.005 851.198 726.038 851.487C728.952 851.656 731.956 852.263 734.681 853.318C737.924 854.572 739.893 857.22 739.704 860.923C739.505 864.626 737.277 867.025 733.905 867.951C731.17 868.698 728.236 868.946 725.372 869.006C721.314 869.096 717.256 868.618 713.198 868.728C707.807 868.867 702.436 869.394 697.046 869.623C694.539 869.733 691.963 869.902 689.536 869.434C685.488 868.658 682.942 865.403 682.843 861.65C682.743 857.808 685.27 854.423 689.327 853.368C691.317 852.85 693.415 852.661 695.474 852.532C700.606 852.193 705.748 851.984 710.88 851.715C710.89 851.616 710.89 851.506 710.89 851.407Z" fill="black"/>
<path d="M1113.33 710.403C1110.73 710.383 1108.68 709.139 1107.53 706.979C1104.35 701.006 1099.85 696.378 1094.38 692.466C1091.36 690.305 1089.8 687.06 1090.94 683.158C1092.08 679.226 1095.21 677.823 1098.89 677.186C1106.34 675.901 1113.8 674.597 1121.25 673.303C1121.88 673.194 1122.5 673.025 1123.12 672.995C1127.38 672.766 1129.96 676.081 1128.57 680.112C1125.69 688.464 1122.75 696.796 1119.79 705.118C1118.56 708.602 1116.27 710.393 1113.33 710.403Z" fill="black"/>
<path d="M886.596 329.33C884.338 328.494 881.931 327.917 879.842 326.772C871.249 322.103 864.406 315.504 859.264 307.182C858.747 306.336 858.27 305.45 857.912 304.534C856.519 300.97 856.728 297.556 859.374 294.649C861.999 291.753 865.461 290.926 869.041 292.171C871.458 293.007 873.944 294.291 875.775 296.033C881.533 301.508 887.023 307.252 892.524 312.985C893.558 314.06 894.324 315.494 894.911 316.887C897.566 323.208 893.578 329.032 886.596 329.33Z" fill="black"/>
<path d="M1208.95 105.477C1201.76 105.815 1194.59 106.153 1187.41 106.492C1182.84 106.711 1179.44 104.839 1177.9 101.256C1176.33 97.5827 1177.25 93.4317 1180.82 90.5649C1185.73 86.613 1190.82 82.8701 1196 79.2667C1199.35 76.9274 1204 77.1464 1206.24 80.5806C1209.89 86.175 1213.08 92.1974 1215.5 98.4189C1217.11 102.54 1213.42 106.253 1208.98 106.163C1208.98 105.934 1208.96 105.705 1208.95 105.477Z" fill="black"/>
<path d="M547.109 766.516C548.571 761.917 549.715 757.189 551.605 752.769C553.405 748.558 557.205 746.717 560.934 747.294C564.823 747.901 567.777 750.878 568.414 755.467C568.861 758.662 568.891 761.937 568.831 765.172C568.772 768.298 569.747 770.677 572.233 772.688C573.944 774.071 575.485 775.853 576.609 777.755C578.618 781.129 577.644 784.105 574.073 785.798C572.492 786.554 570.652 787.042 568.901 787.132C557.513 787.699 547.666 778.093 547.845 766.735C547.607 766.675 547.358 766.596 547.109 766.516Z" fill="black"/>
<path d="M708.941 836.953C706.146 836.953 703.351 837.063 700.566 836.933C693.644 836.605 690.252 831.04 693.256 824.799C694.459 822.3 696.001 819.921 697.672 817.691C700.367 814.078 703.241 810.594 706.126 807.13C709.249 803.397 713.098 803.606 715.634 807.707C719.324 813.67 722.925 819.682 726.455 825.735C729.041 830.164 726.714 834.873 721.622 835.659C719.483 835.988 717.315 836.087 715.157 836.246C713.088 836.406 711.019 836.505 708.941 836.625C708.941 836.734 708.941 836.844 708.941 836.953Z" fill="black"/>
<path d="M1262.96 219.325C1262.41 231.817 1252.7 248.391 1238.06 250.392C1236.15 250.651 1234.04 250.571 1232.19 250.054C1226.68 248.491 1224.75 241.921 1228.7 237.392C1230.84 234.943 1233.82 233.201 1236.54 231.29C1238.96 229.578 1241.65 228.224 1244.02 226.442C1247.13 224.103 1249.11 220.877 1250.3 217.164C1251.85 212.327 1254.06 210.475 1257.51 211.052C1260.88 211.6 1262.99 214.815 1262.96 219.325Z" fill="black"/>
<path d="M457.347 889.92C448.604 889.92 439.861 889.94 431.109 889.881C430.403 889.871 429.508 889.463 429.01 888.945C425.022 884.764 420.994 880.613 417.205 876.263C413.365 871.863 412.878 867.692 415.384 864.198C417.941 860.645 422.864 859.38 427.857 862.118C433.029 864.955 438.091 868.299 442.398 872.291C447.977 877.457 452.761 883.49 457.894 889.144C457.715 889.403 457.526 889.662 457.347 889.92Z" fill="black"/>
<path d="M857.464 592.633C856.668 596.416 856.29 599.382 855.395 602.179C854.421 605.245 852.282 606.43 849.269 605.385C846.782 604.519 844.176 603.255 842.306 601.453C835.842 595.231 832.838 587.467 833.435 578.458C833.693 574.546 835.155 571.052 838.119 568.374C843.43 563.567 851.158 565.299 853.108 572.147C855.067 579.065 856.131 586.223 857.464 592.633Z" fill="black"/>
<path d="M1240.01 140.566C1243.19 141.671 1246.22 142.557 1249.12 143.761C1251.51 144.756 1253.89 145.931 1256.03 147.384C1257.95 148.688 1258.8 150.759 1257.88 153.118C1256.99 155.408 1255 156.045 1252.8 155.935C1250.92 155.836 1249.04 155.457 1247.18 155.119C1241.85 154.163 1236.54 153.068 1231.19 152.192C1222.85 150.839 1219.82 144.318 1225.03 137.639C1229.39 132.035 1234.48 126.978 1239.45 121.871C1241.74 119.522 1245.05 119.552 1247.38 121.364C1249.67 123.146 1250.46 126.341 1248.97 129.198C1248.06 130.93 1246.74 132.473 1245.48 133.996C1243.93 135.877 1242.24 137.639 1240.61 139.471C1240.44 139.67 1240.36 139.929 1240.01 140.566Z" fill="black"/>
<path d="M112.539 728.918C105.099 728.59 100.424 720.865 104.104 714.375C105.427 712.046 107.586 709.925 109.843 708.452C115.801 704.56 121.977 700.996 128.154 697.463C131.337 695.641 134.877 696.198 137.155 698.488C139.532 700.867 140.059 704.49 138.11 707.735C133.027 716.207 125.638 722.329 117.392 727.465C116.01 728.321 114.17 728.451 112.539 728.918Z" fill="black"/>
<path d="M12.0247 627.832C12.323 626.408 12.6413 624.348 13.1784 622.357C14.3421 617.997 14.5211 613.657 13.5762 609.227C13.248 607.674 13.1187 605.962 13.427 604.429C14.2625 600.258 18.3702 597.909 22.3188 599.482C24.1787 600.218 25.9292 601.542 27.3614 602.976C30.9917 606.619 34.423 610.451 37.8942 614.244C40.2713 616.852 40.7586 619.759 38.7893 622.675C37.4168 624.716 35.6265 626.707 33.5677 627.991C29.46 630.549 25.0838 632.699 20.7175 634.83C16.8783 636.691 11.9849 633.028 12.0247 627.832Z" fill="black"/>
<path d="M74.6544 365.435C85.8536 365.723 91.5129 375.031 86.9278 384.527C83.4765 391.675 76.9221 395.258 70.2981 393.616C60.6604 391.227 56.7317 381.919 61.7445 373.359C64.7979 368.162 69.3234 365.544 74.6544 365.435Z" fill="black"/>
<path d="M1167.17 364.21C1162.15 364.24 1158.17 359.81 1159.19 354.833C1159.63 352.623 1160.67 350.254 1162.15 348.572C1167.27 342.749 1172.7 337.204 1178.02 331.56C1178.27 331.301 1178.58 331.092 1178.87 330.883C1182.83 327.897 1187.28 327.927 1190.18 330.943C1193.07 333.969 1192.87 338.409 1189.69 342.241C1184.78 348.134 1179.87 354.037 1174.97 359.93C1172.48 362.906 1170.14 364.19 1167.17 364.21Z" fill="black"/>
<path d="M849.279 26.4388C852.541 26.3691 855.594 26.9863 858.071 29.2758C861.989 32.8892 861.542 38.2247 856.748 40.4147C849.647 43.6698 844.365 48.6072 840.387 55.2666C837.98 59.2981 833.972 59.2981 831.147 55.5055C828.113 51.4342 827.915 46.7457 828.869 42.0174C830.779 32.5408 838.855 26.4686 849.279 26.4388Z" fill="black"/>
<path d="M1166.03 239.89C1168.59 240.677 1171.32 241.115 1173.65 242.329C1177.48 244.34 1177.34 248.78 1173.59 250.93C1164.27 256.285 1156.06 262.945 1149.42 271.466C1147.06 274.482 1143.65 274.392 1141.71 271.067C1140.77 269.435 1140.18 267.345 1140.18 265.453C1140.19 253.15 1153.57 240.179 1166.03 239.89Z" fill="black"/>
<path d="M333.738 364.728C337.309 365.166 341.476 365.116 344.48 368.57C344.798 368.929 345.435 369.028 345.932 369.217C350.059 370.71 351.472 374.324 349.254 378.027C346.071 383.343 342.868 388.648 339.556 393.884C336.682 398.433 329.998 398.374 328.228 393.357C325.98 386.946 324.379 380.187 323.533 373.458C322.867 368.132 327.422 364.648 333.738 364.728Z" fill="black"/>
<path d="M235.78 352.136C236.695 345.556 237.481 339.016 238.555 332.526C239.291 328.056 242.504 325.438 246.303 325.717C250.252 326.005 253.166 329.111 253.295 333.66C253.385 336.806 253.027 339.961 252.818 343.107C252.46 348.602 252.062 354.097 251.694 359.582C251.376 364.27 248.81 367.366 244.921 367.744C241.111 368.112 237.68 365.475 236.735 360.985C236.138 358.098 236.089 355.092 235.78 352.136Z" fill="black"/>
<path d="M337.895 655.216C337.895 658.641 337.955 662.075 337.885 665.499C337.756 671.183 333.161 674.617 327.869 672.617C322.996 670.765 318.271 668.446 313.627 666.057C310.593 664.504 308.246 662.005 308.803 658.292C309.39 654.42 311.578 651.245 315.447 650.11C320.37 648.676 325.413 647.551 330.475 646.735C335.14 645.979 338.472 649.861 337.895 655.216Z" fill="black"/>
<path d="M511.075 516.662C503.466 516.612 496.405 510.062 496.445 503.084C496.484 495.568 502.382 488.67 508.778 488.64C515.839 488.61 524.224 496.574 524.174 503.253C524.124 509.086 516.685 516.701 511.075 516.662Z" fill="black"/>
<path d="M665.984 369.715C665.477 372.751 664.522 375.15 661.847 376.365C659.251 377.539 656.784 376.733 654.894 374.812C652.686 372.562 650.757 370.054 648.688 367.664C644.68 363.036 640.701 358.377 636.624 353.808C634.356 351.26 633.739 348.283 635.181 345.606C636.663 342.878 639.747 341.524 643.079 342.42C644.521 342.808 646.013 343.465 647.186 344.381C653.283 349.119 658.654 354.604 662.573 361.304C664.084 363.882 664.87 366.898 665.984 369.715Z" fill="black"/>
<path d="M984.256 180.483C984.365 176.511 985.131 172.848 987.518 169.692C990.542 165.69 995.405 164.068 999.732 165.571C1004.31 167.174 1006.73 172.002 1004.07 175.973C1000.63 181.1 1000.18 186.406 1000.7 192.199C1001.01 195.783 998.787 197.783 995.206 197.455C991.695 197.136 989.239 195.086 987.379 192.259C985.032 188.645 984.385 184.574 984.256 180.483Z" fill="black"/>
<path d="M1221.43 201.028C1220.2 200.561 1217.72 199.953 1215.58 198.729C1209.79 195.444 1204.96 190.984 1201.04 185.599C1200.05 184.245 1199.29 182.633 1198.79 181.02C1197.83 177.884 1199.07 174.789 1201.62 173.226C1204.05 171.743 1207.27 172.011 1209.65 174.092C1211 175.276 1212.06 176.78 1213.4 177.974C1216.97 181.15 1220.61 184.235 1224.23 187.341C1225.33 188.277 1226.52 189.113 1227.51 190.158C1229.43 192.209 1230.25 194.608 1229.09 197.355C1228.09 199.734 1225.69 201.068 1221.43 201.028Z" fill="black"/>
<path d="M963.17 185.081C963.18 190.357 959.967 194.906 955.323 196.181C950.738 197.445 945.934 195.265 943.318 190.536C942.462 188.984 941.726 187.252 941.428 185.519C940.284 178.87 944.462 173.106 950.578 172.629C957.083 172.111 963.15 178.123 963.17 185.081Z" fill="black"/>
<path d="M1239.81 822.559C1233.93 822.131 1230.08 820.827 1228.06 816.567C1226.27 812.794 1227.24 809.26 1229.81 806.244C1232.94 802.591 1236.99 801.137 1241.72 802.302C1243.53 802.75 1245.3 803.576 1246.93 804.512C1252.34 807.628 1252.59 815.88 1247.14 819.573C1244.63 821.255 1241.43 821.912 1239.81 822.559Z" fill="black"/>
<path d="M416.598 82.651C410.302 81.6556 404.086 78.5299 399.859 72.2089C397.989 69.4117 398.347 66.0869 400.286 63.8771C402.216 61.6771 405.438 60.9007 408.482 62.5034C413.107 64.9422 417.642 67.6 422.018 70.4469C424.982 72.3781 425.957 75.5038 425.062 78.2213C424.147 80.9986 421.392 82.661 416.598 82.651Z" fill="black"/>
<path d="M332.862 607.674C338.621 607.604 343.286 612.173 343.316 617.887C343.335 623.531 338.9 628.15 333.31 628.29C327.581 628.429 322.817 623.89 322.717 618.206C322.618 612.452 327.153 607.744 332.862 607.674Z" fill="black"/>
<path d="M914.713 444.851C908.557 444.801 903.474 440.202 903.444 434.677C903.415 429.481 908.069 425.131 913.599 425.191C919.796 425.251 925.127 429.899 925.077 435.185C925.027 440.53 920.333 444.9 914.713 444.851Z" fill="black"/>
<path d="M465.184 209.211C468.775 209.261 471.261 210.107 472.942 212.576C475.021 215.641 474.006 219.145 470.625 220.629C467.323 222.082 463.951 223.386 460.689 224.899C459.445 225.476 458.5 226.77 457.237 227.218C455.566 227.796 453.537 228.443 451.996 227.965C450.733 227.567 449.609 225.705 449.092 224.262C448.733 223.276 449.221 221.704 449.828 220.688C452.732 215.86 456.65 212.068 461.952 209.928C463.165 209.42 464.558 209.34 465.184 209.211Z" fill="black"/>
<path d="M398.397 245.037C398.347 245.873 398.387 246.968 398.198 248.023C397.204 253.558 391.335 255.937 386.77 252.701C383.08 250.083 381.151 244.469 382.454 240.149C383.508 236.665 386.671 234.375 390.182 234.545C393.951 234.724 397.393 237.74 398.109 241.553C398.288 242.618 398.288 243.713 398.397 245.037Z" fill="black"/>
<path d="M1236.37 22.8254C1240.74 22.7756 1244.58 27.2451 1244.68 32.5209C1244.77 36.9606 1241.5 40.5441 1237.31 40.6138C1232.79 40.6835 1228.84 36.4131 1228.86 31.4757C1228.88 26.5981 1232.11 22.8751 1236.37 22.8254Z" fill="black"/>
<path d="M1250.48 451.401C1245.99 451.341 1242.7 448.245 1242.73 444.114C1242.76 439.933 1246.33 436.598 1250.69 436.688C1254.75 436.768 1258.01 440.112 1257.99 444.184C1257.98 448.255 1254.65 451.46 1250.48 451.401Z" fill="black"/>
<path d="M779.011 207.13C779.05 211.142 775.748 214.278 771.422 214.347C767.105 214.417 763.823 211.321 763.843 207.21C763.873 203.159 767.264 199.854 771.372 199.874C775.539 199.894 778.971 203.159 779.011 207.13Z" fill="black"/>
<path d="M1165.65 268.27C1166.55 268.39 1167.63 268.24 1168.29 268.698C1169.39 269.465 1170.73 270.5 1171 271.655C1171.24 272.66 1170.44 274.701 1169.6 275.049C1166.41 276.373 1163.05 277.428 1159.64 278.075C1158.72 278.254 1156.76 276.811 1156.51 275.806C1156.18 274.482 1156.58 272.172 1157.54 271.505C1159.87 269.853 1162.71 268.907 1165.34 267.673C1165.44 267.872 1165.54 268.071 1165.65 268.27Z" fill="black"/>
<path d="M1018.2 334.536C1012.85 334.556 1008.58 330.296 1008.59 324.93C1008.6 319.585 1012.92 315.314 1018.25 315.364C1023.48 315.414 1027.67 319.605 1027.72 324.851C1027.78 330.226 1023.56 334.516 1018.2 334.536Z" fill="black"/>
<path d="M733.845 475.59C730.305 473.927 726.625 472.504 723.273 470.513C721.144 469.249 720.757 466.87 721.831 464.491C723.154 461.554 726.167 459.364 728.942 460.28C732.393 461.415 735.735 463.147 738.769 465.148C740.788 466.481 741.007 469.03 740.042 471.319C738.978 473.858 736.809 474.823 734.184 474.903C734.074 475.132 733.965 475.361 733.845 475.59Z" fill="black"/>
</g>
<defs>
<clipPath id="clip0_201_303">
<rect width="1280" height="890" fill="white"/>
</clipPath>
</defs>
</svg>
