<svg width="24" height="24" viewBox="0 0 24 24" fill="none" xmlns="http://www.w3.org/2000/svg">
<path d="M12 18C16.679 18 19.966 14.9333 21.4597 13.1848C21.7295 12.869 21.8644 12.7112 21.9532 12.4084C22.0156 12.1955 22.0156 11.8045 21.9532 11.5916C21.8644 11.2888 21.7295 11.131 21.4597 10.8152C19.966 9.06674 16.679 6 12 6C7.32099 6 4.03405 9.06674 2.54027 10.8152C2.27051 11.131 2.13564 11.2888 2.04683 11.5916C1.98439 11.8045 1.98439 12.1955 2.04683 12.4084C2.13564 12.7112 2.27051 12.869 2.54027 13.1848C4.03405 14.9333 7.32099 18 12 18Z" stroke="#282930" stroke-width="1.5" stroke-linecap="round"/>
<path d="M15 12C15 13.6569 13.6569 15 12 15C10.3431 15 9 13.6569 9 12C9 10.3431 10.3431 9 12 9C13.6569 9 15 10.3431 15 12Z" stroke="#282930" stroke-width="1.5" stroke-linecap="round"/>
</svg>
